<?xml version="1.0" encoding="UTF-8" standalone="no"?>
<!DOCTYPE svg PUBLIC "-//W3C//DTD SVG 1.1//EN" "http://www.w3.org/Graphics/SVG/1.1/DTD/svg11.dtd">
<!-- Created with Vectornator (http://vectornator.io/) -->
<svg height="100%" stroke-miterlimit="10" style="fill-rule:nonzero;clip-rule:evenodd;stroke-linecap:round;stroke-linejoin:round;" version="1.1" viewBox="0 0 1713.58 1303.2" width="100%" xml:space="preserve" xmlns="http://www.w3.org/2000/svg" xmlns:vectornator="http://vectornator.io" xmlns:xlink="http://www.w3.org/1999/xlink">
<defs/>
<clipPath id="ArtboardFrame">
<rect height="1303.2" width="1713.58" x="0" y="0"/>
</clipPath>
<g clip-path="url(#ArtboardFrame)" id="Layer-1" vectornator:layerName="Layer 1">
<g opacity="1" vectornator:layerName="freepik--alien--inject-201">
<path d="M1046.57 1264.05C1000.67 1262.93 926.663 1271.5 911.005 1328.06C895.347 1384.62 901.416 1501.12 902.028 1534.68C902.946 1588.13 976.749 1621.38 1026.83 1626.89C1076.92 1632.4 1126.24 1625.11 1157.4 1599.14C1188.57 1573.18 1206.27 1548.4 1178.21 1495.35C1150.16 1442.31 1143.74 1339.23 1137.41 1311.28C1131.09 1283.33 1093.19 1265.22 1046.57 1264.05Z" fill="#455a64" fill-rule="nonzero" opacity="1" stroke="none" vectornator:layerName="path"/>
<path d="M1166.99 1523C1173.31 1519.17 1179.39 1514.96 1185.2 1510.4C1183.26 1505.65 1181.02 1500.66 1178.21 1495.1C1175.59 1490.01 1173.24 1484.78 1171.18 1479.44C1160.28 1488.45 1148.13 1495.84 1135.12 1501.37C1100.1 1515.73 1062.4 1522.37 1024.59 1520.85C991.172 1519.69 958.202 1512.79 927.122 1500.45C918.141 1496.87 909.356 1492.82 900.804 1488.31C901.161 1504.18 901.62 1517.95 901.875 1527.74C906.976 1530.19 912.076 1532.48 917.534 1534.57C955.382 1548.98 995.622 1556.08 1036.12 1555.49C1081.2 1555.43 1127.87 1546.2 1166.99 1523Z" fill="#37474f" fill-rule="nonzero" opacity="1" stroke="none" vectornator:layerName="path"/>
<path d="M1028.52 1434.2C1060 1431.99 1091.01 1425.28 1120.58 1414.26C1130.97 1410.57 1141.09 1406.17 1150.88 1401.1C1148.99 1390.13 1147.31 1379.42 1145.78 1369.32C1133.56 1376.44 1120.59 1382.19 1107.11 1386.46C1079.18 1396.29 1049.98 1402.09 1020.41 1403.7C996.126 1404.93 971.816 1401.88 948.595 1394.67C938.097 1391.46 927.865 1387.44 917.993 1382.63C912.892 1380.19 908.251 1377.53 903.354 1375.14C902.385 1385.34 901.722 1396.1 901.263 1407.01C912.282 1413.26 923.902 1418.39 935.946 1422.31C965.73 1432.29 997.18 1436.32 1028.52 1434.2Z" fill="#37474f" fill-rule="nonzero" opacity="1" stroke="none" vectornator:layerName="path"/>
<path d="M1158.73 1598.18C1129.61 1607.08 1099.25 1611.25 1068.81 1610.52C1051.46 1610.92 1034.26 1607.19 1018.62 1599.65C1015.69 1598.42 1013.31 1596.15 1011.94 1593.28C1009.8 1587.31 1015.82 1581.8 1021.22 1578.39C1053.05 1557.98 1087.22 1541.71 1118.64 1520.85C1137.55 1508.99 1155.05 1495.03 1170.82 1479.23C1148.94 1423.64 1143.12 1336.83 1137.16 1311.48C1130.53 1283.53 1093.19 1265.58 1046.57 1264.25C999.956 1262.93 926.663 1271.75 911.005 1327.86C895.347 1383.96 901.416 1500.91 902.028 1534.47C902.946 1587.92 976.749 1621.18 1026.83 1626.69C1076.92 1632.2 1126.24 1624.9 1157.4 1598.94L1158.73 1598.18Z" fill="#000000" fill-rule="nonzero" opacity="0.2" stroke="none" vectornator:layerName="path"/>
<path d="M1143.58 992.454C1161.08 1029.08 1223.51 1061.77 1287.16 1047.28C1252.83 1102.72 1254.82 1202.85 1303.48 1250.18C1191.27 1243.09 1113.64 1151.43 1101.15 1099C1088.65 1046.57 1143.58 992.454 1143.58 992.454Z" fill="#455a64" fill-rule="nonzero" opacity="1" stroke="none" vectornator:layerName="path"/>
<path d="M1215.45 1199.33C1202.69 1162.54 1203.36 1122.43 1217.33 1086.1C1222.41 1073.15 1229.03 1060.87 1237.07 1049.53C1230.99 1048.74 1224.96 1047.6 1219.02 1046.11C1214.46 1053.35 1210.35 1060.86 1206.73 1068.6C1197.36 1088.6 1191.65 1110.1 1189.84 1132.1C1187.51 1162.41 1192.93 1192.81 1205.6 1220.44C1214.12 1225.27 1222.93 1229.58 1231.97 1233.35C1225.25 1222.64 1219.71 1211.23 1215.45 1199.33Z" fill="#37474f" fill-rule="nonzero" opacity="1" stroke="none" vectornator:layerName="path"/>
<path d="M1287.16 1047.33C1322.86 1026.63 1355.86 993.015 1368.36 981.03C1380.85 969.044 1405.08 996.586 1392.07 1035.35C1446.39 1003.98 1476.89 960.475 1490.66 996.637C1504.43 1032.8 1494.95 1102.01 1463.63 1128.07C1507.04 1110.32 1505.96 1145.21 1483.01 1174.59C1460.06 1203.97 1383.45 1254.31 1303.48 1250.18C1241.61 1215.65 1229.57 1080.54 1287.16 1047.33Z" fill="#ff725e" fill-rule="nonzero" opacity="1" stroke="none" vectornator:layerName="path"/>
<path d="M1287.16 1047.33C1322.86 1026.63 1355.86 993.015 1368.36 981.03C1380.85 969.044 1405.08 996.586 1392.07 1035.35C1446.39 1003.98 1476.89 960.475 1490.66 996.637C1504.43 1032.8 1494.95 1102.01 1463.63 1128.07C1507.04 1110.32 1505.96 1145.21 1483.01 1174.59C1460.06 1203.97 1383.45 1254.31 1303.48 1250.18C1241.61 1215.65 1229.57 1080.54 1287.16 1047.33Z" fill="#ffffff" fill-rule="nonzero" opacity="0.3" stroke="none" vectornator:layerName="path"/>
<path d="M1480.67 1177.45C1470.21 1182.55 1459.65 1187.65 1448.84 1191.83C1424.78 1202.08 1399.57 1209.41 1373.76 1213.66C1311.63 1222.56 1248.43 1207.84 1196.63 1172.4C1155.02 1143.41 1122.76 1102.93 1103.8 1055.9C1098.99 1069.76 1098.07 1084.66 1101.15 1099C1113.64 1151.43 1191.12 1243.09 1303.48 1250.18C1380.9 1254.21 1455.22 1207.08 1480.67 1177.45Z" fill="#000000" fill-rule="nonzero" opacity="0.2" stroke="none" vectornator:layerName="path"/>
<path d="M1220.09 1153.42C1216.62 1200.81 1181.07 1246.25 1119 1282.05C972.363 1366.67 733.971 1366.67 587.437 1282.05C521.999 1244.31 485.888 1195.76 485.888 1145.62C485.838 1144.82 485.838 1144.02 485.888 1143.22L485.888 1143.22C520.469 1030.66 602.687 948.948 607.481 873.87L1142.41 894.578C1143.68 980.57 1195.3 1029.94 1220.09 1153.42Z" fill="#fafafa" fill-rule="nonzero" opacity="1" stroke="none" vectornator:layerName="path"/>
<path d="M1149.4 945.939C1145.02 929.16 1142.67 911.916 1142.41 894.578L607.532 873.921C602.738 948.999 520.52 1030.71 485.939 1143.27L485.939 1143.27C485.889 1144.07 485.889 1144.87 485.939 1145.67C485.939 1195.81 522.05 1244.36 587.488 1282.11C618.728 1299.71 652.01 1313.41 686.588 1322.91C664.912 1300.31 649.865 1271.9 650.529 1241.3C651.243 1204.73 673.633 1172.19 698.625 1145.47C714.501 1127.39 733.507 1112.32 754.729 1100.99C783.444 1086.91 815.934 1083.8 847.76 1079.52C930.999 1068.2 1013.93 1046.52 1086.56 1004.34C1111.81 989.904 1136.59 971.441 1149.4 945.939Z" fill="#f0f0f0" fill-rule="nonzero" opacity="1" stroke="none" vectornator:layerName="path"/>
<path d="M1231.41 1266.24L1231.41 1266.24C1225.6 1420.78 1098.8 1566.6 881.066 1566.6C647.264 1566.6 513.073 1481.58 477.524 1306.48C474.573 1291.86 472.58 1277.05 471.556 1262.16C468.958 1221.9 473.834 1181.5 485.939 1143.02L485.939 1143.02C485.889 1143.82 485.889 1144.62 485.939 1145.41C485.939 1195.55 522.05 1244.11 587.488 1281.85C734.022 1366.47 972.414 1366.47 1119.05 1281.85C1181.12 1246.15 1216.67 1200.6 1220.14 1153.22C1225.31 1179.28 1228.9 1205.63 1230.9 1232.12C1231.77 1243.47 1231.94 1254.87 1231.41 1266.24Z" fill="#ff725e" fill-rule="nonzero" opacity="1" stroke="none" vectornator:layerName="path"/>
<path d="M1220.09 1153.42C1216.62 1200.81 1181.07 1246.25 1119 1282.05C972.363 1366.67 733.971 1366.67 587.437 1282.05C521.999 1244.31 485.888 1195.76 485.888 1145.62C485.838 1144.82 485.838 1144.02 485.888 1143.22L485.888 1143.22C473.783 1181.71 468.907 1222.1 471.505 1262.37C472.529 1277.25 474.522 1292.06 477.473 1306.69C513.175 1481.68 647.213 1566.81 881.015 1566.81C909.255 1566.87 937.436 1564.22 965.171 1558.9L960.071 1558.9C922.277 1558.29 880.76 1551.51 856.431 1522.59C848.015 1512.64 841.742 1500.15 830.266 1494.03C822.119 1490.41 813.265 1488.67 804.356 1488.93C751.363 1486.94 693.882 1490 650.58 1459.45C643.031 1446.34 653.385 1428.84 667.411 1423.13C681.437 1417.42 697.248 1420.12 712.141 1422.57C806.345 1438.13 903.405 1442.97 996.896 1423.69C1082.53 1406.15 1165.21 1367.18 1226.97 1305.77C1229.24 1292.79 1230.63 1279.67 1231.16 1266.5L1231.16 1266.5C1231.66 1255.19 1231.47 1243.86 1230.6 1232.58C1228.69 1206.01 1225.18 1179.57 1220.09 1153.42Z" fill="#000000" fill-rule="nonzero" opacity="0.15" stroke="none" vectornator:layerName="path"/>
<path d="M1220.09 1153.42C1216.62 1200.81 1181.07 1246.25 1119 1282.05C972.363 1366.67 733.971 1366.67 587.437 1282.05C521.999 1244.31 485.888 1195.76 485.888 1145.62C485.838 1144.82 485.838 1144.02 485.888 1143.22L485.888 1143.22C443.912 1119.2 419.583 1204.43 471.505 1262.37L471.505 1262.37C495.818 1290.89 525.068 1314.8 557.855 1332.96C639.461 1380.08 746.161 1403.49 853.167 1403.49C960.173 1403.49 1067.08 1380.08 1148.43 1332.96C1179.73 1315.64 1207.8 1293.06 1231.41 1266.19L1231.41 1266.19C1272.37 1218.71 1243.19 1121.34 1220.09 1153.42Z" fill="#e0e0e0" fill-rule="nonzero" opacity="1" stroke="none" vectornator:layerName="path"/>
<path d="M1234.22 1189.13C1230.67 1188.86 1227.21 1190.26 1224.83 1192.9C1222.65 1195.26 1220.81 1197.93 1219.37 1200.81L1218.97 1201.52C1206.69 1221.73 1193.06 1241.09 1178.16 1259.46C1174.32 1264.13 1171.08 1269.27 1168.52 1274.76C1167.67 1276.54 1167.25 1278.5 1167.3 1280.47C1167.62 1283.03 1168.96 1285.35 1171.02 1286.9C1175.79 1290.25 1181.89 1291.03 1187.34 1288.99C1192.7 1286.9 1197.58 1283.74 1201.68 1279.71C1218.2 1265.12 1235.34 1245.18 1240.64 1223.25C1242.58 1215.65 1246.61 1190.81 1234.22 1189.13ZM1155.16 1289.3C1147.93 1288.18 1140.65 1291.02 1136.08 1296.74L1135.78 1297.15C1134.56 1298.62 1133.74 1300.38 1133.38 1302.25C1132.26 1309.44 1141.95 1314.19 1147.87 1313.37C1152.72 1312.45 1157.07 1309.76 1160.06 1305.82C1162.8 1303.36 1163.88 1299.54 1162.83 1296.01C1161.79 1292.48 1158.8 1289.86 1155.16 1289.3Z" fill="#f5f5f5" fill-rule="nonzero" opacity="1" stroke="none" vectornator:layerName="path"/>
<path d="M1100.59 1356.88C959.306 1396.35 807.875 1408.34 668.992 1363.2C655.965 1359.72 643.737 1353.74 632.983 1345.6C628.789 1342.62 625.991 1338.05 625.231 1332.96C624.568 1321.53 639.665 1316.79 651.09 1316.69C656.564 1316.69 661.97 1316.84 667.309 1317.14C639.549 1308.18 612.784 1296.39 587.437 1281.95C521.999 1244.21 485.888 1195.65 485.888 1145.52C485.838 1144.72 485.838 1143.92 485.888 1143.12L485.888 1143.12C443.912 1119.1 419.583 1204.32 471.505 1262.26L471.505 1262.26C495.809 1290.82 525.059 1314.77 557.855 1332.96C639.461 1380.08 746.161 1403.49 853.167 1403.49C940.281 1403.6 1027.34 1388.04 1100.59 1356.88Z" fill="#000000" fill-rule="nonzero" opacity="0.15" stroke="none" vectornator:layerName="path"/>
<path d="M607.583 873.921C570.657 856.886 547.348 918.754 600.545 956.191C653.742 993.627 715.762 1039.89 885.197 1039.89C1054.63 1039.89 1143.84 979.346 1163.73 953.895C1183.62 928.445 1170.46 883.051 1142.31 894.731C1114.15 906.411 607.583 873.921 607.583 873.921Z" fill="#e0e0e0" fill-rule="nonzero" opacity="1" stroke="none" vectornator:layerName="path"/>
<path d="M1121.7 926.149L1089.01 945.837C1081.33 949.967 1074.25 955.113 1067.94 961.138C1054.53 975.266 1082.38 980.621 1091.81 979.193C1111.36 976.141 1129.57 967.416 1144.19 954.1C1152.81 946.194 1164.6 924.415 1151.69 914.725C1142.66 907.839 1131.29 920.335 1124.05 924.67L1121.7 926.149Z" fill="#f5f5f5" fill-rule="nonzero" opacity="1" stroke="none" vectornator:layerName="path"/>
<path d="M1028.06 978.071C1023.37 980.393 1021.08 985.784 1022.65 990.771C1025.09 994.59 1029.2 997.016 1033.72 997.3C1037.79 998.207 1041.99 998.379 1046.11 997.81C1050.27 997.243 1054.07 995.153 1056.77 991.944C1058.12 990.317 1058.89 988.291 1058.97 986.181C1058.47 982.411 1056.19 979.109 1052.85 977.306C1046.42 972.971 1034.59 974.348 1028.06 978.071Z" fill="#f5f5f5" fill-rule="nonzero" opacity="1" stroke="none" vectornator:layerName="path"/>
<path d="M1041.78 1019.49C942.729 1032.34 841.589 1034.79 747.028 1004.19C734.189 1000.79 722.144 994.894 711.58 986.844C700.98 978.495 695.241 965.411 696.279 951.957C699.186 931.556 726.881 919.468 743.866 931.556L704.134 879.583C646.907 876.217 607.685 873.717 607.685 873.717C570.759 856.682 547.45 918.55 600.647 955.987C653.844 993.423 715.864 1039.68 885.299 1039.68C938.145 1040.27 990.814 1033.47 1041.78 1019.49Z" fill="#000000" fill-rule="nonzero" opacity="0.15" stroke="none" vectornator:layerName="path"/>
<path d="M521.183 1050.85C519.398 1018.52 559.028 967.565 625.18 1006.53C691.332 1045.5 654.507 1128.48 604.013 1126.44L521.183 1050.85Z" fill="#e0e0e0" fill-rule="nonzero" opacity="1" stroke="none" vectornator:layerName="path"/>
<path d="M613.704 1090.74C624.262 1075.9 625.078 1053.45 612.327 1040.45C608.654 1036.73 604.166 1033.92 600.851 1029.94C597.134 1026.1 596.106 1020.4 598.25 1015.51C601.454 1011.46 606.461 1009.26 611.613 1009.64C620.271 1009.43 628.866 1011.18 636.757 1014.74C633.11 1011.75 629.24 1009.04 625.18 1006.63C558.875 967.667 519.398 1018.62 521.183 1050.96L587.029 1111.04C597.676 1106.96 606.932 1099.91 613.704 1090.74Z" fill="#000000" fill-rule="nonzero" opacity="0.15" stroke="none" vectornator:layerName="path"/>
<path d="M298.551 1336.73C278.915 1409.16 274.477 1451.64 279.17 1481.43C283.862 1511.21 321.146 1506.32 335.784 1468.63C336.09 1527.23 384.799 1559 402.089 1562.73C419.379 1566.45 437.792 1546.41 447.278 1473.32C469.261 1510.55 516.643 1524.78 517.307 1491.58C517.562 1478.16 512.206 1418.39 523.58 1349.94C489.05 1292.87 354.043 1273.79 298.551 1336.73Z" fill="#ff725e" fill-rule="nonzero" opacity="1" stroke="none" vectornator:layerName="path"/>
<path d="M298.551 1336.73C278.915 1409.16 274.477 1451.64 279.17 1481.43C283.862 1511.21 321.146 1506.32 335.784 1468.63C336.09 1527.23 384.799 1559 402.089 1562.73C419.379 1566.45 437.792 1546.41 447.278 1473.32C469.261 1510.55 516.643 1524.78 517.307 1491.58C517.562 1478.16 512.206 1418.39 523.58 1349.94C489.05 1292.87 354.043 1273.79 298.551 1336.73Z" fill="#ffffff" fill-rule="nonzero" opacity="0.3" stroke="none" vectornator:layerName="path"/>
<path d="M538.83 1039.28C578.205 1016.53 615.336 1036.32 621.456 1060.09C627.577 1083.85 610.235 1115.02 592.129 1148.88C575.4 1180.25 529.445 1301.08 523.58 1349.94C486.908 1321.53 377.607 1283.07 298.551 1336.73C332.673 1199.63 492.009 1066.36 538.83 1039.28Z" fill="#455a64" fill-rule="nonzero" opacity="1" stroke="none" vectornator:layerName="path"/>
<path d="M531.894 1255.69C511.1 1237.33 486.295 1224.11 459.468 1217.08C431.431 1209.68 402.119 1208.5 373.578 1213.61C367.967 1214.63 362.153 1215.9 356.44 1217.53C351.85 1224.11 347.362 1230.8 343.128 1237.53C344.149 1237.12 345.118 1236.56 346.138 1236.15C357.908 1231.84 370.18 1229.05 382.656 1227.84C408.701 1224.42 435.163 1226.15 460.539 1232.94C482.406 1239 502.673 1249.8 519.908 1264.56C527.127 1270.85 533.674 1277.88 539.442 1285.52C541.176 1279.91 543.012 1274.2 544.9 1268.49C540.792 1263.99 536.451 1259.72 531.894 1255.69Z" fill="#37474f" fill-rule="nonzero" opacity="1" stroke="none" vectornator:layerName="path"/>
<path d="M600.749 1132.66C592.627 1118.93 582.286 1106.65 570.146 1096.3C554.881 1083.28 536.842 1073.93 517.409 1068.96C512.614 1067.74 507.208 1066.51 501.546 1065.54C496.14 1069.83 490.445 1074.49 484.46 1079.52C511.449 1079.75 537.533 1089.28 558.314 1106.5C569.273 1115.61 578.484 1126.63 585.499 1139.04C587.614 1142.84 589.488 1146.78 591.109 1150.82L592.129 1148.88L600.749 1132.66Z" fill="#37474f" fill-rule="nonzero" opacity="1" stroke="none" vectornator:layerName="path"/>
<path d="M505.525 1160.21C521.983 1169.33 536.461 1181.64 548.113 1196.42C553.61 1203.44 558.442 1210.95 562.547 1218.86C564.689 1213.2 566.831 1207.64 568.922 1202.34C554.139 1179.37 533.878 1160.44 509.962 1147.25C488.069 1135.4 463.696 1128.87 438.812 1128.18L431.875 1128.18C426.775 1133.28 421.674 1138.38 416.931 1143.48C425.617 1142.51 434.364 1142.2 443.096 1142.56C464.972 1143.65 486.317 1149.68 505.525 1160.21Z" fill="#37474f" fill-rule="nonzero" opacity="1" stroke="none" vectornator:layerName="path"/>
<path d="M621.456 1060.09C615.387 1036.32 578.205 1016.53 538.83 1039.28C492.009 1066.36 332.673 1199.63 298.551 1336.73C278.915 1409.16 274.477 1451.64 279.17 1481.43C279.747 1486.39 281.829 1491.05 285.137 1494.79C283.196 1473.36 284.537 1451.76 289.115 1430.73C318.431 1285.17 405.902 1157.89 531.282 1078.34C549.388 1066.97 569.585 1056.41 590.854 1058.2C603.307 1059.49 614.693 1065.81 622.374 1075.69C623.002 1070.48 622.691 1065.19 621.456 1060.09Z" fill="#000000" fill-rule="nonzero" opacity="0.2" stroke="none" vectornator:layerName="path"/>
<path d="M761.411 1449.04C716.374 1440.06 642.011 1435.88 616.917 1488.98C591.823 1542.07 577.899 1657.85 572.799 1691C564.587 1743.84 631.606 1789.34 679.907 1803.21C728.207 1817.08 778.191 1818.51 813.282 1798.11C848.372 1777.71 870.1 1756.44 851.535 1699.42C832.969 1642.4 844.241 1539.73 842.507 1511.06C840.773 1482.4 807.161 1458.17 761.411 1449.04Z" fill="#455a64" fill-rule="nonzero" opacity="1" stroke="none" vectornator:layerName="path"/>
<path d="M835.825 1724.72C842.813 1722.05 849.627 1718.95 856.227 1715.43C855.056 1710.02 853.609 1704.68 851.892 1699.42C850.193 1693.95 848.78 1688.4 847.658 1682.79C835.355 1689.76 822.11 1694.91 808.334 1698.09C771.388 1706.25 733.117 1706.36 696.126 1698.4C663.407 1691.56 632.11 1679.13 603.605 1661.68C595.349 1656.63 587.38 1651.13 579.735 1645.2C577.338 1660.91 575.451 1674.53 574.023 1684.22C578.715 1687.53 583.458 1690.7 588.304 1693.66C623.141 1714.3 661.581 1728.15 701.583 1734.46C745.804 1742.06 793.339 1740.99 835.825 1724.72Z" fill="#37474f" fill-rule="nonzero" opacity="1" stroke="none" vectornator:layerName="path"/>
<path d="M714.538 1613.48C745.95 1616.64 777.652 1615.31 808.691 1609.55C819.569 1607.67 830.304 1605.04 840.824 1601.7C840.824 1590.63 840.824 1579.76 841.283 1569.56C828.09 1574.43 814.409 1577.85 800.48 1579.76C771.301 1584.66 741.574 1585.38 712.192 1581.91C688.006 1579.01 664.523 1571.86 642.827 1560.79C633.022 1555.82 623.611 1550.11 614.673 1543.7L601.514 1533.81C598.862 1543.75 596.413 1554.21 594.016 1564.82C603.804 1572.93 614.381 1580.04 625.588 1586.04C653.171 1600.88 683.386 1610.2 714.538 1613.48Z" fill="#37474f" fill-rule="nonzero" opacity="1" stroke="none" vectornator:layerName="path"/>
<path d="M835.06 1783.57C808.465 1791.18 780.735 1794.03 753.148 1791.99C715.966 1788.06 678.377 1768.12 662.973 1734C653.797 1714.81 649.055 1693.81 649.1 1672.54C650.018 1605.32 657.312 1518.05 715.405 1474.19C732.696 1461.13 755.698 1455.31 778.089 1453.22C772.734 1451.59 767.123 1450.21 761.309 1449.04C716.272 1440.06 641.909 1435.88 616.815 1488.98C591.721 1542.07 577.797 1657.85 572.697 1691C564.485 1743.84 631.504 1789.34 679.805 1803.21C728.105 1817.08 778.089 1818.51 813.18 1798.11C820.851 1793.86 828.168 1789 835.06 1783.57Z" fill="#000000" fill-rule="nonzero" opacity="0.2" stroke="none" vectornator:layerName="path"/>
<path d="M1009.8 1076.87L986.338 1081.97C966.65 1086.45 947.014 1088.85 928.703 1098.34C923.232 1100.84 918.453 1104.64 914.779 1109.41C911.07 1115.54 909.292 1122.65 909.679 1129.81C909.876 1138.1 910.66 1146.36 912.025 1154.54C913.521 1164.75 914.983 1174.81 916.411 1184.74C917.585 1192.95 919.574 1205.14 927.785 1209.63C936.208 1212.94 945.208 1214.54 954.256 1214.32C996.845 1215.04 1060.55 1199.84 1083.55 1189.74C1095.15 1185.36 1105.93 1179.05 1115.43 1171.07C1118.49 1168.44 1121 1165.24 1122.82 1161.63C1124.39 1157.74 1125.25 1153.59 1125.37 1149.39C1125.82 1134.36 1124.47 1119.33 1121.34 1104.61C1119.56 1093.08 1116.55 1080.74 1108.24 1071.82C1095.54 1058.2 1071.62 1064.11 1055.75 1067.12C1039.89 1070.13 1025.1 1073.45 1009.8 1076.87Z" fill="#455a64" fill-rule="nonzero" opacity="1" stroke="none" vectornator:layerName="path"/>
<path d="M1005.72 1152.91C1004.82 1170.89 989.531 1184.73 971.557 1183.84C953.583 1182.95 939.732 1167.67 940.616 1149.69C941.5 1131.72 956.785 1117.86 974.76 1118.74C992.749 1119.62 1006.61 1134.92 1005.72 1152.91Z" fill="#ff725e" fill-rule="nonzero" opacity="1" stroke="none" vectornator:layerName="path"/>
<path d="M1087.73 1103.44C1086.03 1100.83 1082.8 1099.67 1079.83 1100.58C1071 1103.96 1061.88 1106.54 1052.59 1108.28L1038 1111.55C1032.32 1112.6 1026.72 1114.1 1021.28 1116.04C1015.46 1118.43 1019.24 1125.57 1024.59 1125.27C1030.8 1124.63 1036.95 1123.56 1043 1122.06L1057.74 1118.79C1067.37 1116.81 1076.81 1113.99 1085.95 1110.38C1087.16 1109.75 1088.06 1108.63 1088.4 1107.31C1088.74 1105.98 1088.5 1104.57 1087.73 1103.44Z" fill="#ff725e" fill-rule="nonzero" opacity="1" stroke="none" vectornator:layerName="path"/>
<path d="M1095.08 1138.78C1093.35 1136.2 1090.15 1135.05 1087.17 1135.93C1078.34 1139.31 1069.23 1141.88 1059.94 1143.63C1055.09 1144.7 1050.19 1145.77 1045.35 1146.94C1039.66 1147.98 1034.06 1149.48 1028.62 1151.43C1022.81 1153.83 1026.58 1160.92 1031.94 1160.61C1038.14 1160 1044.3 1158.93 1050.35 1157.4L1065.09 1154.14C1074.74 1152.2 1084.2 1149.39 1093.34 1145.72C1095.72 1144.27 1096.49 1141.18 1095.08 1138.78Z" fill="#ff725e" fill-rule="nonzero" opacity="1" stroke="none" vectornator:layerName="path"/>
<path d="M1430.89 719.431C1452.26 779.717 1463.33 849.389 1460.06 883.459C1456.8 917.53 1455.73 942.471 1443.18 947.877C1428.23 954.253 1423.19 945.735 1379.53 928.445C1333.16 910.032 1238.65 901.005 1181.38 832.353C1124.1 763.702 1097.17 524.341 1097.17 524.341C1097.17 524.341 1373.1 601.408 1430.89 719.431Z" fill="#ffa8a7" fill-rule="nonzero" opacity="1" stroke="none" vectornator:layerName="path"/>
<path d="M1394.22 697.601C1407.99 704.29 1420.76 712.874 1432.16 723.103C1431.75 721.879 1431.35 720.604 1430.89 719.38C1373.1 601.357 1097.17 524.29 1097.17 524.29C1097.17 524.29 1124.15 763.651 1181.38 832.302C1198.77 852.709 1220.04 869.456 1243.96 881.572C1238.42 873.624 1233.82 865.067 1230.24 856.07C1214.68 815.726 1225.14 770.588 1223.71 727.336C1222.26 690.627 1211.75 654.847 1193.11 623.187C1221.26 645.577 1256.56 656.798 1291.44 665.673C1326.33 674.548 1361.73 681.688 1394.22 697.601Z" fill="#f28f8f" fill-rule="nonzero" opacity="1" stroke="none" vectornator:layerName="path"/>
<path d="M1181.38 832.353C1136.29 742.944 1139.71 699.284 1125.02 601.51C1115.33 536.939 1051.62 386.478 1051.62 386.478L1023.77 416.06C1023.77 416.06 1029.74 523.168 1060.19 610.844C1087.4 691.164 1128.41 766.124 1181.38 832.353Z" fill="#ff725e" fill-rule="nonzero" opacity="1" stroke="none" vectornator:layerName="path"/>
<path d="M1051.62 386.478C1072.02 417.947 1109.15 449.366 1180 491.036C1250.84 532.706 1403.65 625.38 1430.89 719.431C1398.7 658.226 1330.56 638.743 1210.09 597.022C1089.62 555.301 1048.31 487.67 1023.77 415.856L1051.62 386.478Z" fill="#ff725e" fill-rule="nonzero" opacity="1" stroke="none" vectornator:layerName="path"/>
<path d="M968.18 397.393C976.647 394.792 985.573 394.996 993.682 390.558C999.978 387.168 1005.42 382.388 1009.6 376.583C1018.62 363.934 1021.02 347.562 1022.5 332.465C1026.27 293.192 1023.16 252.848 1035.3 214.799C1043.62 188.685 1059.22 163.285 1083.04 148.8C1107.16 133.159 1138.16 132.88 1162.56 148.086C1164.6 149.361 1164.55 155.533 1161.33 154.564C1126.65 144.006 1088.35 152.319 1066.82 182.718C1047.03 210.668 1043.36 245.503 1042.03 278.809C1040.76 310.074 1043.62 345.114 1029.23 373.727C1023.07 386.862 1012.77 397.612 999.905 404.329C990.673 408.767 974.76 413.765 967.466 403.921C966.14 402.238 965.783 398.158 968.18 397.393Z" fill="#263238" fill-rule="nonzero" opacity="1" stroke="none" vectornator:layerName="path"/>
<path d="M1137.97 163.03C1142.7 174.872 1154.1 182.692 1166.85 182.833C1179.6 182.974 1191.17 175.408 1196.16 163.674C1201.15 151.94 1198.56 138.356 1189.61 129.276C1180.66 120.195 1167.12 117.411 1155.31 122.227C1139.29 128.735 1131.53 146.974 1137.97 163.03Z" fill="#ff725e" fill-rule="nonzero" opacity="1" stroke="none" vectornator:layerName="path"/>
<path d="M1170.61 166.6C1159.24 163.811 1151.08 153.825 1150.62 142.119C1150.8 138.94 1151.47 135.808 1152.61 132.836C1154.22 127.944 1157.22 123.622 1161.23 120.391C1159.26 120.797 1157.33 121.377 1155.47 122.125C1142.17 127.524 1134.22 141.249 1136.15 155.471C1138.09 169.694 1149.42 180.796 1163.67 182.446C1177.93 184.096 1191.49 175.873 1196.63 162.469C1188.82 167.161 1179.49 168.642 1170.61 166.6Z" fill="#000000" fill-rule="nonzero" opacity="0.2" stroke="none" vectornator:layerName="path"/>
<path d="M1162.81 632.622C1162.84 512.297 1097.36 401.496 991.948 343.482C972.769 333.032 952.611 324.491 931.764 317.98C916.003 312.879 898.611 310.482 885.452 299.822C878.153 293.463 873.602 284.524 872.752 274.882C871.528 263.1 873.925 251.318 872.752 239.179C872.242 226.685 866.437 215 856.788 207.046C846.587 199.804 830.776 200.365 823.687 210.464C820.893 215.364 818.978 220.715 818.025 226.275C816.805 230.982 815.219 235.586 813.282 240.046C810.221 247.084 804.968 254.684 797.267 254.735C787.729 254.735 782.526 243.922 779.619 234.844C775.641 222.501 771.306 209.852 762.533 200.263C753.76 190.674 739.479 185.37 727.646 190.47C724.93 191.617 722.507 193.36 720.557 195.571C718.924 197.672 717.696 200.059 716.935 202.609C709.03 226.326 726.167 253.052 718.058 276.667C717.265 279.374 715.789 281.833 713.773 283.807C709.582 286.901 704.105 287.651 699.237 285.796C685.925 281.614 678.836 267.741 668.635 258.152C656.445 246.727 635.89 241.933 623.241 253.052C613.857 261.111 611.817 275.392 615.387 287.173C619.659 298.85 626.653 309.341 635.788 317.776C640.889 323.284 647.774 328.64 649.202 336.188C652.365 352.713 641.195 360.109 615.999 384.03C547.297 449.315 502.77 538.01 502.77 632.826C502.767 749.762 564.667 857.961 665.473 917.224C670.012 920.233 674.653 923.191 679.601 926.047C795.787 993.117 984.196 993.117 1100.38 926.047C1158.48 892.487 1182.45 847.655 1192.19 811.952C1201.8 778.349 1200.61 742.575 1188.77 709.689C1171.94 661.746 1162.81 651.035 1162.81 632.622Z" fill="#ff725e" fill-rule="nonzero" opacity="1" stroke="none" vectornator:layerName="path"/>
<path d="M1162.81 632.622C1162.84 512.297 1097.36 401.496 991.948 343.482C972.769 333.032 952.611 324.491 931.764 317.98C916.003 312.879 898.611 310.482 885.452 299.822C878.153 293.463 873.602 284.524 872.752 274.882C871.528 263.1 873.925 251.318 872.752 239.179C872.242 226.685 866.437 215 856.788 207.046C846.587 199.804 830.776 200.365 823.687 210.464C820.893 215.364 818.978 220.715 818.025 226.275C816.805 230.982 815.219 235.586 813.282 240.046C810.221 247.084 804.968 254.684 797.267 254.735C787.729 254.735 782.526 243.922 779.619 234.844C775.641 222.501 771.306 209.852 762.533 200.263C753.76 190.674 739.479 185.37 727.646 190.47C724.93 191.617 722.507 193.36 720.557 195.571C718.924 197.672 717.696 200.059 716.935 202.609C709.03 226.326 726.167 253.052 718.058 276.667C717.265 279.374 715.789 281.833 713.773 283.807C709.582 286.901 704.105 287.651 699.237 285.796C685.925 281.614 678.836 267.741 668.635 258.152C656.445 246.727 635.89 241.933 623.241 253.052C613.857 261.111 611.817 275.392 615.387 287.173C619.659 298.85 626.653 309.341 635.788 317.776C640.889 323.284 647.774 328.64 649.202 336.188C652.365 352.713 641.195 360.109 615.999 384.03C547.297 449.315 502.77 538.01 502.77 632.826C502.767 749.762 564.667 857.961 665.473 917.224C670.012 920.233 674.653 923.191 679.601 926.047C795.787 993.117 984.196 993.117 1100.38 926.047C1158.48 892.487 1182.45 847.655 1192.19 811.952C1201.8 778.349 1200.61 742.575 1188.77 709.689C1171.94 661.746 1162.81 651.035 1162.81 632.622Z" fill="#ffffff" fill-rule="nonzero" opacity="0.4" stroke="none" vectornator:layerName="path"/>
<path d="M835.927 235.915C841.028 226.632 843.323 215.513 851.229 208.118C852.292 207.13 853.495 206.305 854.799 205.669C844.598 200.059 830.623 201.13 824.197 210.464C821.403 215.364 819.488 220.715 818.535 226.275C817.315 230.982 815.729 235.586 813.792 240.046C811.791 245.573 808.004 250.276 803.03 253.409C814.914 256.775 829.45 247.748 835.927 235.915ZM714.691 282.94L716.017 282.94C730.707 282.022 739.275 265.191 739.734 250.451C740.193 235.711 735.654 220.919 738.051 206.383C739.136 200.163 741.905 194.359 746.059 189.603C740.039 187.621 733.508 187.856 727.646 190.266C724.923 191.4 722.497 193.145 720.557 195.367C718.924 197.468 717.696 199.855 716.935 202.405C709.03 226.122 726.167 252.848 718.058 276.463C717.373 278.822 716.229 281.024 714.691 282.94ZM867.703 947.979C772.071 934.259 676.846 886.774 626.761 804.403C606.971 771.761 594.934 734.987 586.417 697.805C570.248 627.114 568.004 547.446 609.164 487.721C628.444 459.719 656.037 438.094 674.5 409.583C692.964 381.072 700.002 340.013 677.204 314.869C668.737 305.586 657.312 299.567 647.57 291.764C637.829 283.96 629.362 272.28 630.79 259.835C631.121 255.526 632.318 251.328 634.309 247.492C630.178 248.318 626.33 250.198 623.139 252.95C613.755 261.008 611.715 275.29 615.285 287.071C619.557 298.748 626.551 309.239 635.686 317.674C640.787 323.182 647.672 328.538 649.1 336.086C652.263 352.611 641.093 360.007 615.897 383.928C547.195 449.213 502.668 537.908 502.668 632.724C502.665 749.66 564.565 857.859 665.371 917.122C669.91 920.131 674.551 923.089 679.499 925.945C783.904 986.181 946.453 992.25 1062.69 944.307C997.712 953.232 932.325 957.313 867.652 947.979L867.703 947.979Z" fill="#ff725e" fill-rule="nonzero" opacity="0.3" stroke="none" vectornator:layerName="path"/>
<path d="M1058.25 822.204C1057.54 822.714 1055.86 822.51 1054.89 822.918C1053.1 823.632 1051.37 824.397 1049.79 825.06C1046.32 826.335 1042.8 827.304 1039.28 828.222C1032.5 830.021 1025.57 831.216 1018.57 831.792C1012.65 832.243 1006.7 832.055 1000.82 831.231C992.866 830.109 985.522 827.406 977.412 826.131C971.751 825.315 974.097 833.475 976.341 835.567C983.645 841.415 992.52 844.966 1001.84 845.767C1009.6 847.032 1017.48 847.307 1025.3 846.583C1033.2 845.972 1040.92 843.951 1048.1 840.616C1051.42 839.153 1054.51 837.229 1057.28 834.904C1059.81 833.047 1061.27 830.08 1061.21 826.947L1061.21 826.539C1062.13 825.366 1060.8 820.571 1058.25 822.204Z" fill="#263238" fill-rule="nonzero" opacity="1" stroke="none" vectornator:layerName="path"/>
<path d="M929.213 760.744C934.314 708.822 913.402 617.933 833.377 595.186C753.352 572.438 693.933 630.174 681.947 684.034C690.414 742.23 719.231 789.561 787.576 803.791C839.044 814.616 892.473 798.377 929.213 760.744Z" fill="#263238" fill-rule="nonzero" opacity="1" stroke="none" vectornator:layerName="path"/>
<path d="M729.278 663.021C728.412 665.618 727.747 668.278 727.289 670.977C726.029 677.069 726.398 683.385 728.36 689.288C735.195 707.955 754.27 706.629 768.857 698.162C778.191 692.756 786.454 685.36 796.348 680.974C809.813 675.007 825.523 675.007 838.427 667.917C843.457 665.582 847.193 661.136 848.627 655.778C851.178 640.477 837.509 626.859 824.605 620.994C807.62 613.241 781.863 616.76 765.44 624.054C748.508 631.472 735.413 645.583 729.278 663.021Z" fill="#455a64" fill-rule="nonzero" opacity="1" stroke="none" vectornator:layerName="path"/>
<path d="M893.052 685.207C892.989 691.666 889.769 697.686 884.432 701.325C869.539 709.995 848.168 694.388 857.145 677.812C859.703 673.375 863.865 670.089 868.774 668.631C877.235 666.003 886.408 669.368 891.165 676.843C892.54 679.408 893.192 682.3 893.052 685.207Z" fill="#455a64" fill-rule="nonzero" opacity="1" stroke="none" vectornator:layerName="path"/>
<path d="M1130.88 691.379C1099.62 662.97 1073.71 622.524 1083.91 561.829C1094.11 501.135 1127.11 488.741 1127.11 488.741C1154.96 496.748 1183.21 544.845 1184.74 590.085C1186.27 635.326 1172.35 676.027 1130.88 691.379Z" fill="#263238" fill-rule="nonzero" opacity="1" stroke="none" vectornator:layerName="path"/>
<path d="M1122.93 528.371C1109.31 540.101 1103.75 557.596 1103.14 575.141C1102 586.895 1105.05 598.674 1111.76 608.396C1115.79 613.496 1122.72 617.576 1128.79 615.179C1136.29 612.17 1137.41 602.377 1139.3 594.778C1141.83 586.392 1145.11 578.25 1149.09 570.449C1153.09 562.565 1154.97 553.777 1154.55 544.947C1152.97 529.901 1136.03 516.895 1122.93 528.371Z" fill="#455a64" fill-rule="nonzero" opacity="1" stroke="none" vectornator:layerName="path"/>
<path d="M1084.06 723.766C1072.53 707.598 1053.46 697.04 1033.06 710.454C1012.66 723.868 1022.35 754.267 1022.35 754.267L1084.06 723.766Z" fill="#ffffff" fill-rule="nonzero" opacity="0.3" stroke="none" vectornator:layerName="path"/>
<path d="M1022.6 749.166C1021.56 753.092 1022.41 757.28 1024.9 760.489C1031.83 770.333 1056.67 777.116 1067.33 771.659C1070.47 769.861 1073.17 767.387 1075.24 764.416C1082.77 755.321 1086.92 743.892 1086.97 732.08C1087.01 730.122 1086.64 728.178 1085.9 726.367C1081.41 716.779 1064.22 720.298 1056.26 723.052C1046.83 726.316 1025.92 736.619 1022.6 749.166Z" fill="#ff725e" fill-rule="nonzero" opacity="1" stroke="none" vectornator:layerName="path"/>
<path d="M631.81 476.755C622.17 477.571 613.296 481.396 603.503 480.223C595.788 479.327 588.367 476.732 581.775 472.623C567.494 463.545 558.416 448.04 550.765 433.401C530.976 395.404 517.613 353.529 489.866 320.122C470.842 297.221 444.779 277.993 414.84 273.147C384.148 267.22 352.801 279.611 334.458 304.923C332.979 307.014 335.478 313.185 338.334 310.89C368.936 286.102 410.913 278.86 445.034 300.689C476.35 320.785 494.304 354.397 509.197 387.396C523.274 418.355 534.699 454.568 560.864 477.775C572.42 488.424 587.145 494.999 602.789 496.493C613.908 497.207 631.963 495.728 635.329 482.824C635.839 480.784 634.462 476.5 631.81 476.755Z" fill="#263238" fill-rule="nonzero" opacity="1" stroke="none" vectornator:layerName="path"/>
<path d="M365.111 310.023C365.111 328.896 349.812 344.196 330.939 344.196C312.066 344.196 296.766 328.896 296.766 310.023C296.766 291.15 312.066 275.851 330.939 275.851C340.006 275.837 348.706 279.433 355.117 285.845C361.529 292.256 365.125 300.956 365.111 310.023Z" fill="#ff725e" fill-rule="nonzero" opacity="1" stroke="none" vectornator:layerName="path"/>
<path d="M365.111 310.023C365.124 305.394 364.187 300.811 362.357 296.558C361.007 304.117 357.82 311.229 353.074 317.266C350.335 320.671 346.843 323.395 342.873 325.222C330.528 329.863 316.601 325.863 308.599 315.379C303.912 309.176 301.257 301.676 300.999 293.906C298.327 298.856 296.941 304.398 296.97 310.023C297.679 328.369 312.758 342.876 331.117 342.876C349.476 342.876 364.555 328.369 365.264 310.023L365.111 310.023Z" fill="#000000" fill-rule="nonzero" opacity="0.2" stroke="none" vectornator:layerName="path"/>
<path d="M218.118 961.852C211.029 1026.42 216.282 1097.93 227.503 1130.83C238.724 1163.73 245.507 1188.21 259.176 1190.6C275.446 1193.46 278.456 1183.87 317.576 1156.58C359.144 1127.56 450.492 1096.6 490.989 1015.41C531.486 934.208 502.515 691.226 502.515 691.226C502.515 691.226 247.751 831.69 218.118 961.852Z" fill="#ffa8a7" fill-rule="nonzero" opacity="1" stroke="none" vectornator:layerName="path"/>
<path d="M502.668 691.226C502.668 691.226 351.85 774.362 268.714 871.983C291.972 853.367 323.288 843.319 351.697 831.843C392.041 815.471 423.102 801.241 457.122 774.056C456.572 818.818 459.06 863.566 464.569 907.992C467.68 931.862 472.321 955.732 471.046 979.805C468.394 1030.35 439.73 1074.77 400.559 1108.18C435.037 1086.3 469.975 1057.74 491.142 1015.41C531.741 934.208 502.668 691.226 502.668 691.226Z" fill="#f28f8f" fill-rule="nonzero" opacity="1" stroke="none" vectornator:layerName="path"/>
<path d="M491.142 1015.41C514.909 916.51 501.342 874.126 493.131 774.056C487.673 707.751 515.623 544.539 515.623 544.539L550.051 567.286C550.051 567.286 568.973 674.395 559.385 768.344C551.179 854.04 528.085 937.648 491.142 1015.41Z" fill="#ff725e" fill-rule="nonzero" opacity="1" stroke="none" vectornator:layerName="path"/>
<path d="M515.623 544.335C502.77 580.037 473.341 619.922 413.004 677.608C352.666 735.293 223.167 862.548 218.118 961.852C235.714 893.966 298.551 858.722 407.954 789.612C517.358 720.502 542.502 643.792 550.051 567.082L515.623 544.335Z" fill="#ff725e" fill-rule="nonzero" opacity="1" stroke="none" vectornator:layerName="path"/>
<path d="M515.623 544.335C502.77 580.037 473.341 619.922 413.004 677.608C352.666 735.293 223.167 862.548 218.118 961.852C235.714 893.966 298.551 858.722 407.954 789.612C517.358 720.502 542.502 643.792 550.051 567.082L515.623 544.335Z" fill="#ffffff" fill-rule="nonzero" opacity="0.3" stroke="none" vectornator:layerName="path"/>
<path d="M926.816 525.412C925.031 535.613 923.297 546.63 927.122 556.372C933.345 572.132 948.187 581.313 962.009 589.575C975.831 597.838 997.712 609.671 1006.08 613.241C1009.85 614.873 1010.41 612.527 1011.18 610.385C1016.82 591.793 1020.13 572.569 1021.02 553.158C1021.87 544.06 1019.99 534.914 1015.61 526.891C1006.31 513.285 994.36 501.696 980.472 492.821C967.262 483.589 955.225 472.419 940.536 465.177C939.618 464.718 938.394 464.361 937.68 465.177C937.36 465.57 937.165 466.049 937.119 466.554C933.651 486.292 930.234 505.674 926.816 525.412Z" fill="#ffffff" fill-rule="nonzero" opacity="0.4" stroke="none" vectornator:layerName="path"/>
</g>
</g>
</svg>
