<?xml version="1.0" encoding="UTF-8" standalone="no"?>
<!DOCTYPE svg PUBLIC "-//W3C//DTD SVG 1.1//EN" "http://www.w3.org/Graphics/SVG/1.1/DTD/svg11.dtd">
<!-- Created with Vectornator (http://vectornator.io/) -->
<svg height="100%" stroke-miterlimit="10" style="fill-rule:nonzero;clip-rule:evenodd;stroke-linecap:round;stroke-linejoin:round;" version="1.1" viewBox="0 0 3370.82 2384.24" width="100%" xml:space="preserve" xmlns="http://www.w3.org/2000/svg" xmlns:vectornator="http://vectornator.io" xmlns:xlink="http://www.w3.org/1999/xlink">
<defs/>
<clipPath id="ArtboardFrame">
<rect height="2384.24" width="3370.82" x="0" y="0"/>
</clipPath>
<g clip-path="url(#ArtboardFrame)" id="Layer-1" vectornator:layerName="Layer 1">
<g opacity="1" vectornator:layerName="freepik--Astronaut--inject-78">
<g opacity="1" vectornator:layerName="freepik--Backpack--inject-78">
<path d="M2011.67 2066.31C2011.67 2034.16 2000.4 2011.61 1982.12 2001.17C1963.85 1990.73 1685.49 1829.71 1667.21 1819.27C1648.94 1808.83 1624.02 1810.61 1596.02 1826.51L853.363 2255.33C797.714 2287.36 752.744 2365.44 752.744 2429.63L752.744 2678.81C752.744 2710.84 764.016 2733.39 782.17 2743.95L1096.84 2925.61C1115 2936.05 1140.15 2934.63 1168.03 2918.49L1910.69 2489.79C1966.22 2457.63 2011.31 2379.56 2011.31 2315.49L2011.67 2066.31Z" fill="#fafafa" fill-rule="nonzero" opacity="1" stroke="none" vectornator:layerName="path"/>
<path d="M1067.53 2611.29L1067.53 2860.47C1067.53 2891.08 1077.62 2913.15 1094.71 2924.42C1061.72 2905.44 800.324 2754.39 782.526 2744.3C764.728 2734.22 753.1 2711.08 753.1 2678.92L753.1 2429.75C754.269 2395.62 763.979 2362.33 781.339 2332.93C894.061 2397.95 1002.51 2460.36 1095.89 2514.59C1078.46 2543.92 1068.7 2577.19 1067.53 2611.29Z" fill="#f0f0f0" fill-rule="nonzero" opacity="1" stroke="none" vectornator:layerName="path"/>
<path d="M1168.27 2437.23L1911.05 2008.41C1938.81 1992.39 1963.97 1990.85 1982.24 2001.41C2000.51 2011.97 2011.79 2034.39 2011.79 2066.55L2011.79 2315.72C2011.79 2379.8 1966.7 2458.11 1911.17 2490.03L1168.39 2918.13C1140.51 2934.27 1115.35 2935.69 1097.2 2925.25C1079.04 2914.81 1067.77 2892.15 1067.77 2860.11L1067.77 2610.94C1067.65 2547.1 1112.74 2469.02 1168.27 2437.23Z" fill="#e0e0e0" fill-rule="nonzero" opacity="1" stroke="none" vectornator:layerName="path"/>
<path d="M1168.27 2437.23L1911.05 2008.41C1938.81 1992.39 1963.97 1990.85 1982.24 2001.41C2000.51 2011.97 2011.79 2034.39 2011.79 2066.55L2011.79 2315.72C2011.79 2379.8 1966.7 2458.11 1911.17 2490.03L1168.39 2918.13C1140.51 2934.27 1115.35 2935.69 1097.2 2925.25C1079.04 2914.81 1067.77 2892.15 1067.77 2860.11L1067.77 2610.94C1067.65 2547.1 1112.74 2469.02 1168.27 2437.23Z" fill="#000000" fill-rule="nonzero" opacity="0.1" stroke="none" vectornator:layerName="path"/>
<path d="M967.864 2683.55L967.864 2650.92L753.1 2526.93L753.1 2559.56L967.864 2683.55Z" fill="#7e57c2" fill-rule="nonzero" opacity="1" stroke="none" vectornator:layerName="polygon"/>
<path d="M967.864 2757.71L967.864 2725.08L753.1 2601.09L753.1 2633.72L967.864 2757.71Z" fill="#7e57c2" fill-rule="nonzero" opacity="1" stroke="none" vectornator:layerName="polygon"/>
<path d="M967.864 2576.76L753.1 2452.77L753.1 2485.4L967.864 2609.39L967.864 2576.76Z" fill="#7e57c2" fill-rule="nonzero" opacity="1" stroke="none" vectornator:layerName="polygon"/>
<path d="M2011.67 389.011C2011.67 356.974 2000.4 334.43 1982.12 323.87C1963.85 313.309 1685.49 152.532 1667.21 142.091C1648.94 131.649 1624.02 133.31 1596.02 149.329L853.719 578.028C798.07 609.946 753.1 688.139 753.1 752.331L753.1 2154.95C753.1 2186.98 764.372 2209.53 782.526 2220.09L1097.2 2401.63C1115.35 2412.19 1140.51 2410.65 1168.39 2394.63L1911.05 1965.81C1966.58 1933.66 2011.67 1855.7 2011.67 1791.51L2011.67 389.011Z" fill="#fafafa" fill-rule="nonzero" opacity="1" stroke="none" vectornator:layerName="path"/>
<path d="M1067.53 933.991L1067.53 2336.49C1067.53 2367.1 1077.62 2389.17 1094.71 2400.32C1061.72 2381.34 800.324 2230.29 782.526 2220.33C764.728 2210.36 753.1 2186.98 753.1 2154.83L753.1 752.331C754.284 718.206 763.993 684.92 781.339 655.509C894.061 720.65 1002.51 782.944 1095.89 837.169C1078.45 866.547 1068.7 899.847 1067.53 933.991Z" fill="#f0f0f0" fill-rule="nonzero" opacity="1" stroke="none" vectornator:layerName="path"/>
<path d="M1168.27 759.688L1911.05 330.989C1938.81 314.852 1963.97 313.428 1982.24 323.87C2000.51 334.311 2011.79 356.974 2011.79 389.011L2011.79 1791.63C2011.79 1855.82 1966.7 1934.01 1911.17 1965.93L1168.39 2394.75C1140.51 2410.77 1115.35 2412.31 1097.2 2401.75C1079.04 2391.19 1067.77 2368.64 1067.77 2336.61L1067.77 933.991C1067.65 869.799 1112.74 791.843 1168.27 759.688Z" fill="#e0e0e0" fill-rule="nonzero" opacity="1" stroke="none" vectornator:layerName="path"/>
<path d="M1168.27 759.688L1911.05 330.989C1938.81 314.852 1963.97 313.428 1982.24 323.87C2000.51 334.311 2011.79 356.974 2011.79 389.011L2011.79 1791.63C2011.79 1855.82 1966.7 1934.01 1911.17 1965.93L1168.39 2394.75C1140.51 2410.77 1115.35 2412.31 1097.2 2401.75C1079.04 2391.19 1067.77 2368.64 1067.77 2336.61L1067.77 933.991C1067.65 869.799 1112.74 791.843 1168.27 759.688Z" fill="#000000" fill-rule="nonzero" opacity="0.1" stroke="none" vectornator:layerName="path"/>
<path d="M831.768 1721.26L989.104 1812.15L989.104 1993.81L831.768 1902.92L831.768 1721.26Z" fill="#455a64" fill-rule="nonzero" opacity="1" stroke="none" vectornator:layerName="polygon"/>
<path d="M831.768 1945.17L989.104 2036.05L989.104 2075.92L831.768 1985.03L831.768 1945.17Z" fill="#455a64" fill-rule="nonzero" opacity="1" stroke="none" vectornator:layerName="polygon"/>
<path d="M831.768 2020.87L989.104 2111.64L989.104 2151.51L831.768 2060.73L831.768 2020.87Z" fill="#455a64" fill-rule="nonzero" opacity="1" stroke="none" vectornator:layerName="polygon"/>
<path d="M967.864 1048.61L967.864 1015.98L753.1 891.987L753.1 924.617L967.864 1048.61Z" fill="#7e57c2" fill-rule="nonzero" opacity="1" stroke="none" vectornator:layerName="polygon"/>
<path d="M967.864 1122.77L967.864 1090.14L753.1 966.147L753.1 998.777L967.864 1122.77Z" fill="#7e57c2" fill-rule="nonzero" opacity="1" stroke="none" vectornator:layerName="polygon"/>
<path d="M967.864 941.822L753.1 817.828L753.1 850.458L967.864 974.452L967.864 941.822Z" fill="#7e57c2" fill-rule="nonzero" opacity="1" stroke="none" vectornator:layerName="polygon"/>
<path d="M835.565 1225.64C822.789 1234.81 815.905 1250.11 817.529 1265.75C820.02 1309.14 842.962 1348.77 879.348 1372.54C892.042 1381.8 908.765 1383.44 923.013 1376.81L962.525 1354.03C975.321 1344.94 982.217 1329.65 980.56 1314.04C978.126 1270.63 955.17 1230.98 918.741 1207.25C906.047 1197.99 889.325 1196.36 875.077 1202.98L835.565 1225.64Z" fill="#263238" fill-rule="nonzero" opacity="1" stroke="none" vectornator:layerName="path"/>
<path d="M879.348 1372.89C891.49 1383.46 908.996 1385.16 922.943 1377.13C936.89 1369.1 944.208 1353.1 941.167 1337.3C938.733 1293.89 915.777 1254.24 879.348 1230.51C867.247 1219.78 849.643 1217.99 835.628 1226.06C821.614 1234.13 814.326 1250.25 817.529 1266.11C820.02 1309.5 842.962 1349.13 879.348 1372.89Z" fill="#455a64" fill-rule="nonzero" opacity="1" stroke="none" vectornator:layerName="path"/>
<path d="M835.565 1480.16C822.768 1489.25 815.873 1504.54 817.529 1520.14C819.982 1563.55 842.933 1603.19 879.348 1626.93C892.042 1636.19 908.765 1637.83 923.013 1631.21L962.525 1608.42C975.321 1599.33 982.217 1584.05 980.56 1568.44C978.107 1525.04 955.156 1485.39 918.741 1461.65C906.047 1452.39 889.325 1450.75 875.077 1457.38L835.565 1480.16Z" fill="#7e57c2" fill-rule="nonzero" opacity="1" stroke="none" vectornator:layerName="path"/>
<path d="M835.565 1480.16C822.768 1489.25 815.873 1504.54 817.529 1520.14C819.982 1563.55 842.933 1603.19 879.348 1626.93C892.042 1636.19 908.765 1637.83 923.013 1631.21L962.525 1608.42C975.321 1599.33 982.217 1584.05 980.56 1568.44C978.107 1525.04 955.156 1485.39 918.741 1461.65C906.047 1452.39 889.325 1450.75 875.077 1457.38L835.565 1480.16Z" fill="#ffffff" fill-rule="nonzero" opacity="0.3" stroke="none" vectornator:layerName="path"/>
<path d="M879.348 1627.29C891.49 1637.85 908.996 1639.55 922.943 1631.52C936.89 1623.49 944.208 1607.5 941.167 1591.69C938.733 1548.29 915.777 1508.63 879.348 1484.9C867.206 1474.34 849.7 1472.64 835.753 1480.67C821.806 1488.7 814.488 1504.7 817.529 1520.5C819.982 1563.9 842.933 1603.55 879.348 1627.29Z" fill="#7e57c2" fill-rule="nonzero" opacity="1" stroke="none" vectornator:layerName="path"/>
</g>
<g opacity="1" vectornator:layerName="freepik--Arm--inject-78">
<g opacity="1" vectornator:layerName="freepik--arm--inject-78">
<path d="M2407.03 2690.43C2403.97 2700.05 2402.81 2710.16 2403.58 2720.22C2404.89 2758.42 2411.53 2796.63 2408.45 2834.72C2405.25 2875.3 2386.14 2912.32 2386.38 2953.37C2386.38 2977.1 2410.11 3006.17 2431.35 2979.83C2435.7 2974.13 2439.18 2967.81 2441.67 2961.09C2447.84 2946.97 2453.54 2932.85 2459.95 2918.73C2461.01 2957.64 2440.01 2994.66 2450.69 3033.46C2455.67 3051.97 2476.32 3067.87 2493.88 3059.92C2504.59 3053.09 2512.31 3042.44 2515.48 3030.14L2531.85 2988.26C2539.81 2968.89 2546.66 2949.08 2552.38 2928.93C2571.07 2855.13 2558.17 2776.88 2516.78 2712.98C2506.71 2695.6 2491.95 2681.41 2474.18 2672.04C2452.35 2662.08 2417.59 2663.62 2406.91 2689.13L2407.03 2690.43Z" fill="#37474f" fill-rule="nonzero" opacity="1" stroke="none" vectornator:layerName="path"/>
<path d="M2585.13 2576.41C2579.43 2537.25 2569.82 2439.84 2560.8 2347.05C2488.54 2347.05 2415.21 2351.08 2343.19 2348C2347.94 2362.24 2344.97 2381.22 2346.04 2396.17C2347.58 2419.07 2348.88 2441.85 2349.24 2464.63C2350.77 2508.97 2346.54 2553.33 2336.66 2596.58C2330.02 2623.51 2320.41 2649.62 2313.53 2676.43C2300 2729.23 2297.51 2784.05 2286 2837.21C2283.67 2845.55 2282.55 2854.18 2282.68 2862.84C2285.64 2900.22 2326.22 2889.77 2344.02 2871.74C2367.75 2848.01 2370.48 2815.97 2383.18 2786.43C2389.35 2772.07 2402.16 2718.2 2424.11 2728.52C2448.91 2740.39 2462.2 2769.34 2473.59 2792.71C2486.93 2822.5 2496 2854.01 2500.52 2886.33C2509.9 2936.64 2482.96 2994.19 2475.01 3043.43C2470.86 3069.3 2473 3090.89 2494.59 3107.74C2500.86 3113.24 2509.56 3115.04 2517.49 3112.49C2524.53 3108.53 2530.01 3102.29 2533.04 3094.81C2552.41 3061.63 2567.85 3026.31 2579.07 2989.56C2599.6 2910.42 2595.33 2822.38 2594.26 2741.34C2594.78 2686.22 2591.73 2631.13 2585.13 2576.41Z" fill="#455a64" fill-rule="nonzero" opacity="1" stroke="none" vectornator:layerName="path"/>
</g>
<path d="M2015.23 849.746C2245.89 835.864 2357.66 939.331 2425.42 1164.54C2493.17 1389.74 2539.21 1605.1 2561.04 1720.55C2582.87 1836 2582.04 2323.91 2582.04 2323.91L2270.57 2364.49L2189.06 1762.56L2063.05 1349.99L2015.23 849.746Z" fill="#e6e6e6" fill-rule="nonzero" opacity="1" stroke="none" vectornator:layerName="path"/>
<path d="M2248.5 2201.81C2248.5 2201.81 2285.29 2256.16 2421.26 2243.58C2557.24 2231 2581.33 2170.13 2581.33 2170.13L2594.74 2491.81C2594.74 2491.81 2582.87 2561.1 2451.4 2571.19C2319.93 2581.27 2289.44 2515.3 2289.44 2515.3L2248.5 2201.81Z" fill="#f0f0f0" fill-rule="nonzero" opacity="1" stroke="none" vectornator:layerName="path"/>
<path d="M2592.48 2438.06L2591.53 2415.63C2577.13 2427.28 2561.15 2436.83 2544.07 2443.99C2521.12 2452.88 2497.24 2459.13 2472.88 2462.62C2422.19 2471.83 2370.14 2470.38 2320.05 2458.35C2306.89 2454.8 2294.16 2449.83 2282.08 2443.51L2280.78 2442.8L2283.62 2464.52C2291.32 2468.22 2299.25 2471.43 2307.36 2474.13C2334.08 2482.36 2361.86 2486.67 2389.82 2486.94C2444.41 2489.36 2498.93 2480.77 2550.12 2461.67C2565.15 2455.55 2579.37 2447.62 2592.48 2438.06Z" fill="#7e57c2" fill-rule="nonzero" opacity="1" stroke="none" vectornator:layerName="path"/>
<path d="M2262.27 2307.54C2273.25 2313.4 2284.72 2318.28 2296.56 2322.13C2323.3 2330.3 2351.06 2334.62 2379.02 2334.95C2433.62 2337.39 2488.15 2328.75 2539.33 2309.55C2556.06 2302.91 2571.76 2293.92 2585.96 2282.86L2585.01 2260.55C2569.45 2273.61 2551.96 2284.18 2533.15 2291.87C2510.23 2300.82 2486.33 2307.07 2461.96 2310.5C2411.29 2319.76 2359.24 2318.34 2309.14 2306.35C2295.98 2302.81 2283.24 2297.83 2271.17 2291.52C2267.25 2289.5 2263.45 2287.13 2259.3 2284.75L2262.27 2307.54Z" fill="#7e57c2" fill-rule="nonzero" opacity="1" stroke="none" vectornator:layerName="path"/>
<path d="M2384.24 2410.88C2438.84 2413.37 2493.37 2404.77 2544.55 2385.61C2560.5 2379.23 2575.54 2370.77 2589.28 2360.46L2588.33 2338.03C2573.25 2350.42 2556.42 2360.5 2538.38 2367.93C2515.45 2376.88 2491.56 2383.13 2467.18 2386.56C2416.5 2395.75 2364.46 2394.34 2314.36 2382.41C2301.21 2378.81 2288.49 2373.84 2276.39 2367.58C2274.13 2366.39 2272.12 2365.08 2269.98 2363.78L2272.95 2385.97C2282.34 2390.7 2292.1 2394.67 2302.13 2397.83C2328.72 2406.16 2356.38 2410.56 2384.24 2410.88Z" fill="#7e57c2" fill-rule="nonzero" opacity="1" stroke="none" vectornator:layerName="path"/>
</g>
<g opacity="1" vectornator:layerName="freepik--Bottom--inject-78">
<path d="M1216.21 2286.53C1160.92 2317.38 1160.44 2532.51 1156.05 2686.16C1144.18 3088.16 1152.49 3287.86 1148.1 3336.63C1143.71 3385.39 1120.57 3538.93 1111.32 3750.73C1099.45 4014.26 1092.93 4129 1092.93 4129C1092.93 4129 1138.13 4170.53 1232.58 4182.99C1298.55 4190.29 1365.07 4191.2 1431.21 4185.72C1431.21 4185.72 1563.87 3803.65 1598.63 3657.59C1665.2 3377.21 1724.17 3099.32 1724.17 3099.32L1792.87 3431.55C1774.5 3549.01 1775.38 3668.68 1795.48 3785.85C1833.33 3995.87 1852.91 4137.78 1852.91 4137.78C1852.91 4137.78 1978.56 4183.35 2065.54 4181.45C2177.67 4179.07 2207.92 4148.7 2207.92 4148.7C2207.92 4148.7 2259.42 3631.72 2272 3360.71C2283.86 3106.32 2348.65 2253.9 2273.89 2254.26L1216.21 2286.53Z" fill="#f0f0f0" fill-rule="nonzero" opacity="1" stroke="none" vectornator:layerName="path"/>
<path d="M1811.85 2691.62L1724.17 3099.32L1792.87 3431.55L1784.56 3119.85L1867.62 2758.19C2019.38 2710.72 2114.66 2625.41 2138.98 2546.62C1976.19 2693.04 1811.85 2691.62 1811.85 2691.62Z" fill="#e0e0e0" fill-rule="nonzero" opacity="1" stroke="none" vectornator:layerName="path"/>
<path d="M1749.92 2979.48L1744.81 3003.21C1736.27 3006.89 1727.61 3010.21 1718.95 3013.41C1691.86 3022.44 1664.08 3029.23 1635.89 3033.7C1531.12 3051.62 1420.53 3050.31 1318.61 3017.56C1257.4 2998.32 1200.59 2967.19 1151.42 2925.96C1151.42 2916.95 1151.42 2907.69 1151.42 2898.32C1172.28 2917.68 1195.06 2934.86 1219.41 2949.58C1302.2 2998.03 1396.39 3023.59 1492.32 3023.62C1544.05 3024.18 1595.72 3019.65 1646.57 3010.09C1670.69 3005.74 1694.48 2999.71 1717.76 2992.05C1728.7 2988.44 1739.43 2984.24 1749.92 2979.48Z" fill="#fafafa" fill-rule="nonzero" opacity="1" stroke="none" vectornator:layerName="path"/>
<path d="M1768.9 2891.44L1763.56 2915.88C1751.07 2922.05 1738.19 2927.4 1725 2931.9C1697.71 2940.94 1669.74 2947.77 1641.35 2952.3C1536.58 2970.22 1425.99 2968.92 1324.07 2936.17C1260.88 2916.39 1202.4 2883.88 1152.25 2840.65C1152.25 2831.63 1152.25 2822.38 1152.85 2813.12C1174.91 2834.14 1199.18 2852.72 1225.23 2868.53C1308 2917.01 1402.21 2942.53 1498.13 2942.46C1549.86 2943.06 1601.53 2938.57 1652.38 2929.05C1676.49 2924.64 1700.28 2918.62 1723.58 2911.01C1735.03 2907.12 1746.28 2902.64 1757.27 2897.61C1760.95 2895.47 1764.99 2893.57 1768.9 2891.44Z" fill="#fafafa" fill-rule="nonzero" opacity="1" stroke="none" vectornator:layerName="path"/>
<path d="M1788.72 2799.24L1783.38 2824.16C1780.29 2825.94 1777.21 2827.6 1773.88 2829.14C1761.27 2835.25 1748.31 2840.64 1735.08 2845.28C1707.77 2854.34 1679.75 2861.13 1651.31 2865.57C1546.54 2883.49 1435.96 2882.3 1334.03 2849.43C1267.39 2828.56 1206.03 2793.55 1154.15 2746.8C1154.15 2737.42 1154.15 2728.05 1154.98 2718.56C1179.14 2742.59 1206.02 2763.74 1235.07 2781.56C1317.88 2829.99 1412.06 2855.54 1507.98 2855.6C1559.71 2856.1 1611.37 2851.57 1662.23 2842.07C1686.35 2837.73 1710.14 2831.7 1733.42 2824.04C1744.9 2820.2 1756.15 2815.72 1767.12 2810.63C1773.13 2807.86 1779.07 2804.9 1784.92 2801.73L1788.72 2799.24Z" fill="#fafafa" fill-rule="nonzero" opacity="1" stroke="none" vectornator:layerName="path"/>
<path d="M2301.42 2805.05C2301.42 2814.55 2300.59 2824.16 2300.24 2833.77C2294.07 2838.63 2287.78 2843.38 2281.49 2848.13C2196.18 2911.72 2096.98 2960.73 1991.5 2977.82C1912 2991.59 1830.3 2984.76 1754.19 2958L1758.58 2937.71C1795.09 2951.01 1833.26 2959.23 1872.01 2962.15C1968.12 2967.85 2063.99 2947.7 2149.66 2903.78C2195.73 2880.79 2239.44 2853.37 2280.18 2821.9C2287.66 2816.92 2294.54 2810.51 2301.42 2805.05Z" fill="#fafafa" fill-rule="nonzero" opacity="1" stroke="none" vectornator:layerName="path"/>
<path d="M2307.47 2628.5C2307.47 2637.99 2307.47 2647.36 2306.64 2656.74C2298.34 2663.62 2290.03 2670.14 2281.49 2676.55C2196.18 2740.15 2096.98 2789.15 1991.5 2806.12C1924.21 2817.5 1855.28 2814.58 1789.19 2797.58L1789.19 2797.58L1793.58 2777.05C1819.39 2784.11 1845.81 2788.68 1872.49 2790.7C1968.41 2796.39 2064.11 2776.31 2149.66 2732.56C2195.73 2709.57 2239.44 2682.15 2280.18 2650.69C2289.68 2643.57 2298.57 2636.21 2307.47 2628.5Z" fill="#fafafa" fill-rule="nonzero" opacity="1" stroke="none" vectornator:layerName="path"/>
<path d="M2304.86 2716.3C2304.86 2725.67 2304.27 2735.29 2303.91 2744.78C2296.44 2750.71 2288.96 2756.64 2281.49 2762.1C2196.18 2825.82 2096.98 2874.7 1991.5 2891.79C1918.17 2904.35 1842.93 2899.63 1771.75 2878.03L1776.14 2857.62C1807.46 2867.39 1839.78 2873.64 1872.49 2876.25C1968.41 2881.93 2064.11 2861.86 2149.66 2818.11C2195.78 2795.21 2239.5 2767.78 2280.18 2736.23C2288.73 2729.83 2296.91 2723.18 2304.86 2716.3Z" fill="#fafafa" fill-rule="nonzero" opacity="1" stroke="none" vectornator:layerName="path"/>
<path d="M1238.28 3305.9C1194.49 3355.85 1175.04 3423.72 1174.2 3490.17C1173.49 3543.32 1185.36 3599.45 1221.67 3638.6C1248.01 3667.32 1291.08 3682.86 1328.46 3692.95C1369.87 3704.46 1413.66 3704.22 1454.94 3692.23C1476.13 3686.54 1495.74 3676.07 1512.25 3661.62C1527.01 3646.8 1538.84 3629.33 1547.14 3610.13C1574.62 3555.33 1586.68 3494.1 1582.02 3432.97C1576.84 3371.46 1547.17 3314.6 1499.67 3275.16C1419.23 3212.63 1303.66 3231.5 1238.28 3305.9Z" fill="#e0e0e0" fill-rule="nonzero" opacity="1" stroke="none" vectornator:layerName="path"/>
<path d="M1534.8 3371.04L1569.09 3377.92C1566.34 3369.85 1563.18 3361.92 1559.59 3354.19L1551.05 3352.53L1451.38 3332.59C1385.17 3319.3 1319.08 3305.54 1252.75 3293.2L1250.86 3293.2C1246.47 3297.35 1242.31 3301.74 1238.28 3306.25L1234.84 3310.64C1268.18 3317.88 1301.52 3324.52 1334.86 3331.29L1534.8 3371.04ZM1412.58 3592.33C1346.61 3577.97 1280.76 3563.02 1214.67 3549.61L1178.12 3542.26C1179.19 3549.26 1180.73 3556.14 1182.39 3563.02L1194.26 3565.87C1228.19 3573.7 1262.25 3581.17 1296.3 3588.77L1495.52 3632.31L1529.69 3639.79C1534.01 3633.49 1537.98 3626.96 1541.56 3620.21L1512.37 3614.04L1412.58 3592.33ZM1421.24 3539.88C1355.03 3526.71 1288.94 3512.83 1222.62 3500.49L1174.2 3491.71C1174.2 3498.12 1174.2 3504.52 1174.2 3511.05C1183.46 3513.07 1192.71 3515.2 1201.97 3517.1C1236.02 3524.46 1270.2 3531.34 1304.37 3538.22L1504.3 3578.44L1556.39 3588.17C1559.12 3581.41 1561.73 3574.53 1564.22 3567.65L1521.63 3559.34L1421.24 3539.88ZM1329.29 3382.55L1529.22 3422.65L1581.19 3433.09L1581.19 3433.09C1580.48 3425.5 1579.29 3418.02 1577.87 3410.55L1545.59 3404.26L1445.8 3384.33C1379.6 3371.04 1313.51 3357.27 1247.18 3344.93L1214.67 3339C1211.12 3344.72 1207.87 3350.62 1204.94 3356.68L1226.89 3361.54C1260.94 3368.78 1295.35 3375.66 1329.29 3382.55ZM1430.74 3487.08C1364.65 3473.79 1298.44 3460.03 1232.11 3447.69C1214.43 3444.37 1196.51 3441.04 1178.83 3437.96C1177.88 3444.01 1177.05 3449.82 1176.46 3456.47L1212.06 3464.3C1246.11 3471.66 1280.28 3478.54 1314.45 3485.42L1514.39 3525.52L1571.82 3537.39L1572.77 3537.39C1574.43 3530.27 1575.97 3523.27 1577.27 3516.03L1530.64 3507.13L1430.74 3487.08ZM1537.52 3455.64L1437.74 3435.7C1371.53 3422.41 1305.44 3408.65 1239.11 3396.31C1223.33 3393.34 1207.55 3390.38 1191.65 3387.65C1189.51 3393.58 1187.73 3399.51 1186.07 3405.68L1218.7 3412.92C1252.75 3420.28 1286.93 3427.04 1321.1 3434.04L1520.79 3474.15L1578.22 3486.01L1580.83 3486.61C1581.55 3479.25 1581.9 3471.89 1582.02 3464.54C1567.31 3461.33 1552.36 3458.6 1537.52 3455.64Z" fill="#ebebeb" fill-rule="nonzero" opacity="1" stroke="none" vectornator:layerName="path"/>
<path d="M2035.52 3335.2C2033.98 3354.19 2033.62 3373.17 2033.74 3392.04C2033.74 3442.35 2038.96 3496.81 2072.42 3534.42C2086.17 3549.84 2103.85 3561.23 2123.56 3567.41C2171.85 3582.48 2228.21 3555.54 2255.38 3513.42C2290.98 3457.89 2289.68 3376.97 2288.49 3313.61C2289.37 3280.2 2285.05 3246.85 2275.67 3214.77C2259.77 3168.49 2216.35 3125.42 2163.9 3136.46C2118.58 3145.95 2079.89 3189.38 2060.91 3229.72C2046.11 3263.05 2037.51 3298.79 2035.52 3335.2Z" fill="#e0e0e0" fill-rule="nonzero" opacity="1" stroke="none" vectornator:layerName="path"/>
<path d="M2140.29 3297.95C2187.75 3281.93 2236.28 3266.15 2284.1 3249.89C2283.03 3242.9 2281.6 3235.97 2279.83 3229.13L2242.21 3241.58L2048.69 3305.9L2038.37 3309.34C2037.18 3317.17 2036.35 3325 2035.76 3333.07L2043.82 3330.34L2140.29 3297.95Z" fill="#ebebeb" fill-rule="nonzero" opacity="1" stroke="none" vectornator:layerName="path"/>
<path d="M2053.67 3247.04C2050.59 3255.23 2047.98 3263.54 2045.72 3271.96L2121.78 3248.23C2171.26 3232.69 2220.74 3217.26 2270.1 3201.48C2267.06 3194.99 2263.57 3188.73 2259.66 3182.73L2224.65 3193.65L2053.67 3247.04Z" fill="#ebebeb" fill-rule="nonzero" opacity="1" stroke="none" vectornator:layerName="path"/>
<path d="M2273.78 3474.03C2276.53 3465.95 2278.79 3457.71 2280.54 3449.35L2125.93 3500.84L2070.28 3519.35L2063.05 3521.73C2066.02 3526.19 2069.31 3530.44 2072.89 3534.42C2074.56 3536.32 2076.45 3537.86 2078.23 3539.64C2092.47 3534.78 2106.71 3529.8 2120.95 3525.05L2217.53 3492.89L2273.78 3474.03Z" fill="#ebebeb" fill-rule="nonzero" opacity="1" stroke="none" vectornator:layerName="path"/>
<path d="M2158.21 3348.61C2201.63 3334.14 2245.06 3319.78 2288.73 3305.18C2288.73 3297.83 2288.73 3290.59 2287.78 3283.23L2260.49 3292.25L2066.61 3356.56L2033.98 3367.48C2033.98 3375.07 2033.98 3382.66 2033.98 3390.26L2061.98 3380.77L2158.21 3348.61Z" fill="#ebebeb" fill-rule="nonzero" opacity="1" stroke="none" vectornator:layerName="path"/>
<path d="M2099.71 3477.47L2196.29 3445.31L2286 3415.65C2286.83 3407.94 2287.42 3400.11 2287.9 3391.92L2104.69 3452.79L2049.04 3471.3L2042.04 3473.67C2043.88 3480.71 2046.1 3487.64 2048.69 3494.44C2065.77 3489.22 2082.74 3483.17 2099.71 3477.47Z" fill="#ebebeb" fill-rule="nonzero" opacity="1" stroke="none" vectornator:layerName="path"/>
<path d="M2177.67 3396.67L2288.96 3359.65C2288.96 3352.05 2288.96 3344.58 2288.96 3337.22L2279.71 3340.31L2086.18 3404.62L2034.57 3422.06C2034.57 3429.41 2035.76 3436.89 2036.59 3444.25L2081.2 3429.06L2177.67 3396.67Z" fill="#ebebeb" fill-rule="nonzero" opacity="1" stroke="none" vectornator:layerName="path"/>
<path d="M1837.25 4495.41C1844.96 4503.24 1857.18 4510.12 1866.91 4504.78C1871.18 4502.53 1874.15 4498.14 1878.78 4496.24C1886.98 4494.06 1895.65 4497.41 1900.25 4504.54C1905.12 4510.95 1907.73 4518.78 1913.19 4524.83C1920.46 4531.53 1929.19 4536.45 1938.7 4539.19C1942.38 4540.98 1946.48 4541.72 1950.56 4541.33C1959.82 4539.9 1964.21 4527.8 1973.58 4526.97C1987.46 4525.66 1985.45 4538.83 1987.34 4546.78C1989.15 4556.3 1994.94 4564.59 2003.24 4569.57C2015.08 4576.32 2029.61 4576.32 2041.45 4569.57C2045.52 4566.54 2049.99 4564.1 2054.74 4562.33C2063.01 4560.94 2071.24 4564.94 2075.27 4572.3C2078.77 4579.39 2079.82 4587.44 2078.23 4595.2C2077.58 4597.52 2077.58 4599.99 2078.23 4602.31C2079.44 4604.66 2081.35 4606.56 2083.69 4607.77C2091.94 4613.03 2100.59 4617.64 2109.56 4621.54C2114.22 4624.21 2119.84 4624.64 2124.86 4622.72C2127.23 4620.79 2129.38 4618.6 2131.27 4616.2C2137.16 4611.45 2145.35 4610.79 2151.92 4614.54C2157.99 4618.32 2162.27 4624.4 2163.78 4631.39C2165.68 4638.39 2165.09 4649.42 2171.26 4655.12C2177.23 4658.72 2183.66 4661.51 2190.36 4663.42C2196.8 4666.73 2203.89 4668.55 2211.13 4668.76C2221.45 4668.17 2225.6 4660.46 2234.26 4656.9C2243.3 4653.48 2253.45 4657.69 2257.4 4666.51C2259.54 4672.56 2257.4 4679.8 2262.03 4684.78C2264.54 4687.29 2267.64 4689.13 2271.05 4690.12C2277.71 4692.7 2284.53 4694.88 2291.46 4696.65C2301.99 4700.87 2313.93 4699.63 2323.37 4693.32C2325.27 4691.31 2326.7 4689.05 2328.59 4687.03C2333.95 4681.62 2341.64 4679.22 2349.12 4680.63C2356.49 4682.05 2362.57 4687.23 2365.14 4694.27C2369.06 4706.14 2375.82 4708.27 2388.87 4710.17C2400.7 4711.3 2412.59 4711.61 2424.47 4711.12C2439.3 4711.12 2437.04 4699.26 2446.42 4691.54C2454.95 4684.71 2466.96 4684.28 2475.96 4690.48C2478.46 4692.37 2480.47 4694.87 2483.08 4696.76C2493.29 4702.03 2505.21 4702.89 2516.07 4699.14C2521.21 4698.69 2526.04 4696.47 2529.71 4692.85C2531.29 4689.99 2532.41 4686.91 2533.04 4683.71C2536.69 4673.2 2545.79 4665.51 2556.77 4663.66C2560.21 4662.94 2563.78 4663.18 2567.09 4664.37C2569.74 4665.67 2572.28 4667.18 2574.68 4668.88C2582.03 4672.63 2590.54 4673.35 2598.41 4670.9C2606.16 4668.5 2613.54 4665.06 2620.37 4660.69C2625.36 4658.21 2629.8 4654.74 2633.42 4650.49C2637.27 4643.81 2638.85 4636.07 2637.93 4628.42C2637.93 4610.62 2637.1 4590.92 2624.64 4576.33C2610.25 4561.9 2593.05 4550.58 2574.09 4543.11C2453.89 4486.63 2319.93 4462.66 2191.43 4425.76C2097.22 4398.82 2002.29 4364.29 1903.93 4369.28C1872.96 4370.94 1827.64 4373.19 1817.43 4404.87C1806.84 4436.4 1814.45 4471.19 1837.25 4495.41Z" fill="#455a64" fill-rule="nonzero" opacity="1" stroke="none" vectornator:layerName="path"/>
<path d="M1781.12 3660.08C1754.66 3665.66 1768.43 3727.71 1781.12 3807.92C1793.82 3888.13 1813.04 4018.3 1826.21 4104.56C1839.38 4190.82 1832.97 4220.84 1821.94 4293.46C1810.9 4366.07 1813.16 4405.35 1821.94 4420.77C1830.72 4436.2 1859.43 4469.42 1931.46 4486.63C2003.48 4503.83 2018.67 4505.85 2089.15 4543.34C2135.31 4567.9 2181.11 4615.72 2328.95 4645.51C2449.03 4669.24 2605.53 4630.2 2630.93 4586.77C2640.89 4493.51 2604.82 4449.25 2524.14 4405.82C2421.03 4350.41 2292.29 4284.2 2257.16 4237.21C2222.04 4190.23 2223.59 4144.43 2235.57 3993.38C2248.38 3833.08 2257.64 3726.53 2262.03 3697.69C2266.42 3668.86 2250.88 3661.15 2250.88 3661.15L2248.5 3691.29C2248.5 3691.29 2165.44 3727.95 2023.06 3730.09C1940.08 3732.05 1857.7 3715.59 1781.83 3681.91L1781.12 3660.08Z" fill="#e0e0e0" fill-rule="nonzero" opacity="1" stroke="none" vectornator:layerName="path"/>
<path d="M1781.12 3660.08C1754.66 3665.66 1768.43 3727.71 1781.12 3807.92C1793.82 3888.13 1813.04 4018.3 1826.21 4104.56C1839.38 4190.82 1832.97 4220.84 1821.94 4293.46C1810.9 4366.07 1813.16 4405.35 1821.94 4420.77C1830.72 4436.2 1859.43 4469.42 1931.46 4486.63C2003.48 4503.83 2018.67 4505.85 2089.15 4543.34C2135.31 4567.9 2181.11 4615.72 2328.95 4645.51C2449.03 4669.24 2605.53 4630.2 2630.93 4586.77C2640.89 4493.51 2604.82 4449.25 2524.14 4405.82C2421.03 4350.41 2292.29 4284.2 2257.16 4237.21C2222.04 4190.23 2223.59 4144.43 2235.57 3993.38C2248.38 3833.08 2257.64 3726.53 2262.03 3697.69C2266.42 3668.86 2250.88 3661.15 2250.88 3661.15L2248.5 3691.29C2248.5 3691.29 2165.44 3727.95 2023.06 3730.09C1940.08 3732.05 1857.7 3715.59 1781.83 3681.91L1781.12 3660.08Z" fill="#000000" fill-rule="nonzero" opacity="0.05" stroke="none" vectornator:layerName="path"/>
<path d="M2442.74 4379.13C2452.23 4378.3 2462.08 4377.94 2472.17 4377.82L2454.25 4368.21C2295.25 4376.52 2213.74 4486.15 2188.58 4601.13L2198.43 4605.64C2214.57 4529.7 2256.1 4455.9 2328.95 4413.65C2423.87 4451.39 2466.47 4556.87 2468.01 4649.42L2478.69 4648C2476.68 4554.85 2433.96 4449.13 2340.22 4407.6C2366.57 4394.33 2394.9 4385.43 2424.11 4381.26C2528.53 4432.76 2586.67 4486.03 2594.02 4615.72C2597.7 4613.94 2601.14 4612.16 2604.35 4610.26C2596.28 4485.08 2541.22 4429.67 2442.74 4379.13Z" fill="#f0f0f0" fill-rule="nonzero" opacity="1" stroke="none" vectornator:layerName="path"/>
<path d="M2247.32 3855.86C2247.32 3848.27 2248.62 3840.91 2249.21 3833.79C2194.72 3854.78 2137.79 3868.81 2079.78 3875.56C2043.16 3879.83 2006.27 3881.25 1969.43 3879.83C1931.95 3878.74 1894.63 3874.41 1857.89 3866.89C1833.39 3861.78 1809.52 3854.02 1786.7 3843.76C1787.65 3849.33 1788.48 3855.03 1789.43 3860.96C1806.02 3868.94 1823.3 3875.41 1841.04 3880.3C1879.79 3890.85 1919.58 3897.14 1959.7 3899.05C2033.97 3903.1 2108.42 3895.61 2180.4 3876.86C2203.18 3870.93 2225.48 3863.81 2247.32 3855.86Z" fill="#7e57c2" fill-rule="nonzero" opacity="1" stroke="none" vectornator:layerName="path"/>
<path d="M1769.97 3735.9C1770.92 3742.31 1771.99 3749.07 1773.05 3756.07L1781.72 3761.77C1797.65 3771.42 1814.55 3779.38 1832.14 3785.5C1869.18 3798.2 1907.5 3806.79 1946.41 3811.13C2026.07 3820.82 2106.83 3816.28 2184.9 3797.72C2206.29 3792.73 2227.4 3786.63 2248.15 3779.45L2254.32 3777.19C2254.91 3769.48 2255.62 3762.48 2256.22 3755.83L2249.1 3758.56C2231.06 3765.13 2212.75 3770.86 2194.16 3775.77C2156.94 3785.48 2118.94 3791.95 2080.61 3795.11C2004.13 3802.05 1927.03 3795.1 1853.03 3774.58C1834.43 3769.34 1816.36 3762.39 1799.04 3753.82C1789.05 3748.86 1779.45 3743.15 1770.32 3736.73L1769.97 3735.9Z" fill="#7e57c2" fill-rule="nonzero" opacity="1" stroke="none" vectornator:layerName="path"/>
<path d="M2146.46 4181.45C2100.09 4190.42 2056.98 4211.69 2021.64 4243.03C2011.82 4250.13 2005.65 4261.2 2004.79 4273.29C2006.05 4281.07 2009.46 4288.34 2014.63 4294.29C2032.08 4317.7 2052.68 4338.59 2075.86 4356.34C2082.87 4362.16 2090.93 4366.59 2099.59 4369.4C2120.71 4375.21 2142.43 4363.46 2161.05 4352.19C2188.97 4333.52 2219.15 4318.49 2250.88 4307.46C2283.22 4296.34 2318.5 4297.31 2350.19 4310.19C2321.95 4297.02 2294.78 4259.52 2276.62 4236.15C2263.45 4218.94 2252.3 4190.46 2230.47 4180.97C2208.63 4171.48 2177.9 4176.23 2156.66 4179.67C2152.99 4179.79 2149.66 4180.38 2146.46 4181.45Z" fill="#7e57c2" fill-rule="nonzero" opacity="1" stroke="none" vectornator:layerName="path"/>
<path d="M2276.27 4235.79C2269.03 4226.3 2262.39 4213.6 2254.2 4202.33C2236.71 4195.91 2218.1 4193.13 2199.5 4194.14C2142.66 4196.87 2085.71 4213.37 2043.82 4249.67C2038.49 4253.38 2034.86 4259.06 2033.74 4265.45C2034.09 4270.84 2036.26 4275.95 2039.91 4279.93C2056.18 4302.27 2075.15 4322.52 2096.39 4340.21C2105.45 4348.69 2119 4350.23 2129.73 4344C2142.22 4338.36 2154.14 4331.52 2165.33 4323.6C2188.49 4309.1 2213.74 4298.26 2240.2 4291.44C2265.66 4286.09 2291.69 4284.02 2317.68 4285.27C2302.91 4269.61 2289.08 4253.09 2276.27 4235.79Z" fill="#455a64" fill-rule="nonzero" opacity="1" stroke="none" vectornator:layerName="path"/>
<path d="M963.118 4701.27C959.317 4728.45 961.422 4756.14 969.288 4782.43C970.702 4787.01 973.044 4791.26 976.17 4794.89C982.459 4801.54 988.866 4798.33 995.748 4801.3C1002.63 4804.26 1002.39 4811.74 1002.75 4820.4C1004.78 4846.2 1021.23 4868.62 1045.23 4878.31C1048.94 4880.04 1052.99 4880.93 1057.09 4880.92C1062.95 4879.39 1068.89 4878.2 1074.89 4877.36C1083.16 4878.89 1089.73 4885.18 1091.62 4893.37C1093 4901.28 1095.27 4909 1098.38 4916.39C1105.62 4929.21 1122.12 4933.84 1137.9 4935.97C1143.3 4937.23 1148.96 4936.86 1154.15 4934.9C1157.71 4933.24 1160.32 4930.28 1163.76 4928.26C1168.46 4925.91 1173.93 4925.69 1178.81 4927.64C1183.68 4929.59 1187.49 4933.53 1189.27 4938.46C1190.46 4943.21 1189.27 4948.55 1191.77 4952.82C1195.21 4959.23 1204.22 4960.41 1211.82 4960.77L1240.53 4962.19C1256.31 4962.91 1275.3 4962.19 1283.72 4949.62C1287.64 4943.68 1288.23 4936.21 1291.79 4929.92C1295.35 4923.63 1304.72 4919.12 1310.3 4923.87C1313.03 4926.24 1313.74 4929.92 1316.23 4932.53C1323.12 4939.77 1335.57 4933.12 1342.93 4926.36C1349.64 4920.55 1355.68 4914.03 1360.97 4906.9C1369.08 4892.74 1374.06 4877 1375.56 4860.74C1385.71 4805.56 1392.44 4749.81 1395.73 4693.8C1397 4665.64 1396.01 4637.43 1392.77 4609.43C1392.06 4592.02 1388.03 4574.91 1380.9 4559.01C1370.93 4540.61 1347.56 4536.46 1327.39 4534.56C1267.23 4529.1 1205.77 4523.77 1147.03 4536.82C1116.7 4544.12 1087.28 4554.83 1059.35 4568.74C1035.73 4579.06 1013.9 4593.08 994.68 4610.26C986.451 4617.83 979.623 4626.79 974.509 4636.72C968.143 4651.78 964.526 4667.85 963.83 4684.19C964.305 4690.12 963.711 4695.7 963.118 4701.27Z" fill="#455a64" fill-rule="nonzero" opacity="1" stroke="none" vectornator:layerName="path"/>
<path d="M1110.37 3772.44C1084.26 3772.44 1086.64 3793.92 1085.69 3879.23C1084.74 3964.55 1078.21 4185.48 1077.38 4227.37C1076.55 4269.25 1061.25 4346.02 1060.18 4371.41C1059.11 4396.81 1029.92 4484.37 1002.75 4540.85C975.577 4597.33 919.097 4790.62 1147.15 4892.66C1375.21 4994.71 1392.65 4706.49 1392.65 4615.49C1395.02 4506.85 1407.33 4398.66 1429.43 4292.27C1450.79 4189.04 1548.09 3933.58 1563.27 3879.23C1573.36 3842.1 1548.56 3836.4 1548.56 3836.4L1541.91 3857.28C1541.91 3857.28 1495.4 3904.74 1340.2 3884.69C1185 3864.64 1109.42 3793.57 1109.42 3793.57L1110.37 3772.44Z" fill="#e0e0e0" fill-rule="nonzero" opacity="1" stroke="none" vectornator:layerName="path"/>
<path d="M1110.37 3772.44C1084.26 3772.44 1086.64 3793.92 1085.69 3879.23C1084.74 3964.55 1078.21 4185.48 1077.38 4227.37C1076.55 4269.25 1061.25 4346.02 1060.18 4371.41C1059.11 4396.81 1029.92 4484.37 1002.75 4540.85C975.577 4597.33 919.097 4790.62 1147.15 4892.66C1375.21 4994.71 1392.65 4706.49 1392.65 4615.49C1395.02 4506.85 1407.33 4398.66 1429.43 4292.27C1450.79 4189.04 1548.09 3933.58 1563.27 3879.23C1573.36 3842.1 1548.56 3836.4 1548.56 3836.4L1541.91 3857.28C1541.91 3857.28 1495.4 3904.74 1340.2 3884.69C1185 3864.64 1109.42 3793.57 1109.42 3793.57L1110.37 3772.44Z" fill="#000000" fill-rule="nonzero" opacity="0.05" stroke="none" vectornator:layerName="path"/>
<path d="M1174.32 4276.37C1200.74 4273.78 1227.37 4274.57 1253.58 4278.74C1282.16 4284.16 1309.79 4293.76 1335.57 4307.22C1346.7 4311.9 1356.49 4319.28 1364.05 4328.7C1371.88 4341.27 1367.02 4357.17 1364.88 4370.58C1359.54 4403.33 1353.02 4436.08 1345.42 4468.24C1343.41 4476.54 1341.51 4478.2 1332.96 4474.88C1324.42 4471.56 1317.54 4469.07 1309.23 4466.46C1294.05 4461.35 1278.5 4457.08 1262.84 4453.17C1236.83 4446.68 1210.31 4442.43 1183.58 4440.47C1156.73 4438.28 1129.74 4438.28 1102.89 4440.47C1089.26 4441.66 1075.7 4443.68 1062.31 4446.52C1055.79 4447.95 1032.89 4458.39 1036.45 4446.52C1045.47 4417.04 1051.12 4386.63 1053.3 4355.87C1053.51 4345.95 1054.98 4336.1 1057.69 4326.56C1071.69 4288.24 1137.42 4278.86 1174.32 4276.37Z" fill="#7e57c2" fill-rule="nonzero" opacity="1" stroke="none" vectornator:layerName="path"/>
<path d="M1348.63 4355.16C1349.55 4348.37 1348.04 4341.47 1344.36 4335.7C1341.11 4332.06 1337.04 4329.25 1332.49 4327.51C1286.09 4304.7 1234.91 4293.31 1183.22 4294.29C1137.94 4295.27 1093.89 4309.18 1056.26 4334.39C1055.06 4341.62 1054.27 4348.91 1053.89 4356.23C1052.01 4382.05 1047.68 4407.64 1040.96 4432.64L1041.67 4432.64C1124.64 4416.29 1210.24 4418.97 1292.03 4440.47C1302.35 4443.2 1312.67 4446.28 1323.35 4448.06C1326.28 4448.93 1329.42 4448.63 1332.13 4447.23C1334.17 4445.56 1335.52 4443.19 1335.93 4440.59C1343.41 4412.69 1347.67 4384.03 1348.63 4355.16Z" fill="#455a64" fill-rule="nonzero" opacity="1" stroke="none" vectornator:layerName="path"/>
<path d="M1245.75 4554.97C1159.52 4534.79 1069.04 4543.55 988.273 4579.89C987.086 4583.92 985.9 4588.08 984.832 4592.47C1034.09 4569.53 1087.4 4556.58 1141.69 4554.38C1106.94 4649.1 1083.06 4747.46 1070.5 4847.57L1080.35 4854.93C1091.5 4758.46 1122.59 4628.54 1153.56 4554.14C1183.79 4553.73 1213.94 4557.24 1243.26 4564.58C1245.99 4565.29 1248.48 4566.24 1251.09 4567.07C1251.09 4597.21 1247.06 4793.82 1226.41 4914.38L1237.21 4914.38C1257.14 4796.55 1260.94 4608.84 1261.65 4570.28C1313.12 4586.4 1358.58 4617.56 1392.17 4659.74C1392.17 4654.29 1392.17 4649.06 1392.88 4643.96C1354.22 4599.8 1302.82 4568.72 1245.75 4554.97Z" fill="#f0f0f0" fill-rule="nonzero" opacity="1" stroke="none" vectornator:layerName="path"/>
<path d="M1085.69 3879.59C1085.69 3885.88 1085.69 3893.12 1085.69 3900.83C1101.72 3911.71 1118.81 3920.93 1136.71 3928.36C1171.65 3943.09 1207.72 3955 1244.57 3963.95C1320.63 3984.16 1400.04 3988.48 1477.84 3976.65C1497.6 3973.35 1517.11 3968.67 1536.22 3962.65C1538.83 3954.94 1541.44 3947.58 1543.81 3940.58C1541.68 3941.41 1539.54 3942.36 1537.29 3943.07C1520.88 3948.47 1504.16 3952.87 1487.22 3956.24C1452.04 3963.03 1416.23 3965.9 1380.43 3964.78C1305.74 3961.64 1232.07 3946.29 1162.34 3919.34C1135.11 3909.51 1109.33 3896.06 1085.69 3879.35L1085.69 3879.59Z" fill="#7e57c2" fill-rule="nonzero" opacity="1" stroke="none" vectornator:layerName="path"/>
<path d="M1417.92 4076.2C1445.87 4073.4 1473.62 4068.81 1500.98 4062.44L1508.81 4040.01C1482.71 4046.73 1456.25 4051.96 1429.55 4055.67C1395.06 4060.26 1360.24 4061.77 1325.49 4060.18C1261.15 4057.43 1197.96 4042.2 1139.44 4015.33C1124.36 4008.27 1109.7 4000.35 1095.54 3991.6C1091.5 3989.11 1087.47 3986.38 1083.67 3983.65C1083.67 3990.06 1083.67 3996.46 1083.67 4002.99C1095.81 4011.09 1108.36 4018.53 1121.28 4025.3C1149.76 4040.29 1179.75 4052.23 1210.75 4060.89C1278.24 4078.93 1348.51 4084.12 1417.92 4076.2Z" fill="#7e57c2" fill-rule="nonzero" opacity="1" stroke="none" vectornator:layerName="path"/>
</g>
<g opacity="1" vectornator:layerName="freepik--Top--inject-78">
<g opacity="1" vectornator:layerName="freepik--Chest--inject-78">
<path d="M1216.21 2218.66L1216.21 2286.53C1216.21 2286.53 1334.86 2423.7 1727.13 2434.97C2137.92 2446.84 2273.54 2254.62 2273.54 2254.62L2273.54 2196L1216.21 2218.66Z" fill="#455a64" fill-rule="nonzero" opacity="1" stroke="none" vectornator:layerName="path"/>
<path d="M1747.9 911.803C1540.37 971.13 1432.52 998.065 1285.15 1077.92C1149.76 1150.77 1141.81 1286.04 1183.58 1662.06C1190.22 1721.38 1189.16 1854.87 1174.92 1983.85C1163.05 2092.89 1181.68 2185.56 1216.8 2219.02C1267.94 2260.9 1465.98 2395.93 1854.21 2357.73C2158.92 2327.71 2271.88 2196.36 2271.88 2196.36C2327.29 2141.06 2322.07 1951.81 2319.34 1684.24C2316.02 1292.68 2343.07 987.504 2160.11 888.191C2037.42 821.151 1962.55 850.458 1747.9 911.803Z" fill="#f0f0f0" fill-rule="nonzero" opacity="1" stroke="none" vectornator:layerName="path"/>
<path d="M2319.58 1726.01C2319.58 1724.11 2319.58 1722.33 2319.58 1720.55C2009.18 1942.44 1467.04 1895.09 1186.9 1735.15L1186.9 1735.15C1186.9 1739.18 1186.9 1743.45 1186.9 1747.72L1186.9 1748.32C1333.91 1830.66 1613.23 1882.63 1809.24 1882.63C1817.07 1882.63 1824.91 1882.63 1832.97 1882.63C1841.91 2041.17 1842.86 2200.05 1835.82 2358.68L1846.98 2358.68C1854.05 2200.13 1853.14 2041.33 1844.25 1882.87C1985.78 1880.21 2124.73 1844.41 2249.93 1778.34C2253.37 1820.58 2268.32 2030.95 2244.23 2224.36C2249.21 2220.33 2253.37 2216.53 2256.93 2213.21C2280.06 2012.92 2262.98 1799.22 2260.72 1772.52C2280.9 1760.66 2300.71 1748.79 2320.05 1735.27L2319.58 1726.01Z" fill="#e0e0e0" fill-rule="nonzero" opacity="1" stroke="none" vectornator:layerName="path"/>
</g>
<g opacity="1" vectornator:layerName="freepik--Head--inject-78">
<path d="M1542.75 505.411C1542.75 505.411 1497.89 512.768 1473.21 572.451C1461.35 602.47 1454.7 655.509 1508.81 801.929C1529.35 858.918 1558.31 912.511 1594.72 960.926C1605.47 976.65 1621.88 987.617 1640.52 991.539L1627.58 876.681L1615.72 796.945C1615.72 796.945 1675.05 732.634 1675.05 674.494C1675.88 599.741 1643.36 560.229 1643.36 560.229L1542.75 505.411Z" fill="#263238" fill-rule="nonzero" opacity="1" stroke="none" vectornator:layerName="path"/>
<path d="M1527.44 510.632C1491.84 401.944 1727.37 265.136 1848.52 348.194C1894.2 292.07 1994.94 323.158 2001.7 383.79C2039.08 368.246 2090.22 424.845 2071.11 468.747C2099.24 460.322 2143.85 504.343 2114.19 541.838C2092.83 568.891 2098.17 592.503 2130.92 598.555C2126.29 637.474 2056.52 639.372 2045.37 610.42C2043.82 633.202 2027.45 622.286 2009.77 607.217C1890.52 599.979 1766.77 612.2 1646.09 611.488L1527.44 510.632Z" fill="#263238" fill-rule="nonzero" opacity="1" stroke="none" vectornator:layerName="path"/>
<path d="M1537.41 902.904C1587.72 921.177 1604.68 886.767 1604.68 886.767L1610.26 1107.82C1713.61 1292.68 1984.85 1260.77 1871.3 1106.63L1870.35 1040.19C1897.19 1039.91 1923.98 1037.89 1950.56 1034.14C2005.08 1024.73 2048.63 983.522 2061.03 929.601C2083.1 844.407 2080.01 708.192 2046.2 564.145C2039.67 536.261 2027.33 506.004 2001.58 493.664C1937.87 463.051 1879.96 509.208 1792.16 544.923C1755.85 559.755 1667.33 567.23 1643.84 556.788C1675.16 590.486 1658.55 679.121 1650.72 707.242C1639.45 747.704 1629.96 763.959 1621.65 765.976C1597.92 771.672 1589.02 739.872 1567.78 730.38C1546.54 720.888 1500.62 713.412 1476.3 770.367C1460.64 805.963 1479.62 882.021 1537.41 902.904Z" fill="#c8856a" fill-rule="nonzero" opacity="1" stroke="none" vectornator:layerName="path"/>
<path d="M1800.23 1032.83C1659.26 1006.85 1626.4 936.127 1626.4 936.127C1636.48 1013.02 1756.32 1078.51 1870.35 1072.46L1870.35 1040.19C1870.35 1040.19 1857.18 1043.39 1800.23 1032.83Z" fill="#af6152" fill-rule="nonzero" opacity="1" stroke="none" vectornator:layerName="path"/>
<path d="M1807.7 624.777L1751.22 653.848C1743.49 637.724 1749.75 618.369 1765.46 609.827C1773.01 605.969 1781.81 605.385 1789.8 608.213C1797.79 611.04 1804.26 617.031 1807.7 624.777Z" fill="#263238" fill-rule="nonzero" opacity="1" stroke="none" vectornator:layerName="path"/>
<path d="M2014.87 636.999L1955.54 612.319C1958.38 604.368 1964.35 597.932 1972.07 594.521C1979.79 591.11 1988.58 591.024 1996.36 594.283C2012.96 601.287 2021.11 620.102 2014.87 636.999Z" fill="#263238" fill-rule="nonzero" opacity="1" stroke="none" vectornator:layerName="path"/>
<path d="M1819.45 858.408L1909.27 872.647C1908.05 884.584 1901.96 895.489 1892.44 902.789C1882.92 910.088 1870.8 913.135 1858.96 911.21C1833.72 907.128 1816.24 883.779 1819.45 858.408Z" fill="#af6152" fill-rule="nonzero" opacity="1" stroke="none" vectornator:layerName="path"/>
<path d="M1876.76 910.498C1871.54 889.231 1852.26 874.437 1830.36 874.901C1827.33 874.997 1824.31 875.394 1821.35 876.088C1826.15 894.153 1841.11 907.717 1859.55 910.735C1865.25 911.791 1871.09 911.711 1876.76 910.498Z" fill="#ffa8a7" fill-rule="nonzero" opacity="1" stroke="none" vectornator:layerName="path"/>
<path d="M1777.8 698.699C1778.6 712.938 1790.78 723.841 1805.02 723.074C1819.26 722.307 1830.19 710.159 1829.46 695.917C1828.73 681.675 1816.61 670.712 1802.36 671.409C1788.05 672.175 1777.06 684.385 1777.8 698.699Z" fill="#263238" fill-rule="nonzero" opacity="1" stroke="none" vectornator:layerName="path"/>
<path d="M1960.53 689.088C1961.27 703.346 1973.42 714.311 1987.67 713.585C2001.93 712.86 2012.91 700.719 2012.19 686.459C2011.48 672.2 1999.35 661.215 1985.09 661.916C1978.01 661.592 1971.15 664.451 1966.4 669.709C1961.65 674.968 1959.49 682.076 1960.53 689.088Z" fill="#263238" fill-rule="nonzero" opacity="1" stroke="none" vectornator:layerName="path"/>
<path d="M1884.71 646.491L1895.51 815.93L1977.61 787.097C1959.83 732.736 1927.74 684.167 1884.71 646.491Z" fill="#af6152" fill-rule="nonzero" opacity="1" stroke="none" vectornator:layerName="path"/>
</g>
<path d="M2349 1457.97C2349.76 1447.27 2345.35 1436.86 2337.14 1429.97L2337.14 1429.97L2287.3 1394.37L2287.3 1394.37C2278.76 1388.2 2266.18 1389.03 2251.71 1398.05C2158.33 1455.95 2045.96 1490.48 1907.02 1512.31C1875.88 1517.61 1853.17 1544.69 1853.38 1576.27L1858.6 1726.96C1858.96 1743.07 1866.76 1758.1 1879.72 1767.66L1879.72 1767.66L1930.15 1803.25C1940.53 1810.45 1953.27 1813.38 1965.75 1811.44C2102.68 1791.51 2225.37 1748.08 2306.05 1701.21C2332.75 1685.67 2352.09 1645.21 2351.49 1614.24L2349 1457.97Z" fill="#7e57c2" fill-rule="nonzero" opacity="1" stroke="none" vectornator:layerName="path"/>
<path d="M1853.62 1576.51L1858.84 1727.2C1859.19 1743.3 1866.99 1758.34 1879.96 1767.9L1879.96 1767.9L1930.39 1803.49C1931.81 1804.44 1933.24 1805.15 1934.78 1805.98L1934.78 1594.78L1863.59 1542.21C1856.93 1552.4 1853.46 1564.34 1853.62 1576.51Z" fill="#000000" fill-rule="nonzero" opacity="0.2" stroke="none" vectornator:layerName="path"/>
<path d="M2301.78 1433.65C2208.52 1491.55 2096.03 1526.08 1957.09 1547.91C1925.95 1553.16 1903.25 1580.29 1903.57 1611.86L1908.68 1762.56C1908.75 1777.09 1915.15 1790.88 1926.19 1800.33C1937.24 1809.78 1951.85 1813.97 1966.22 1811.8C2103.15 1791.86 2225.84 1748.44 2306.52 1701.57C2333.22 1686.02 2352.56 1645.56 2351.97 1614.59L2349 1457.97C2348.41 1427 2327.65 1417.39 2301.78 1433.65Z" fill="#7e57c2" fill-rule="nonzero" opacity="1" stroke="none" vectornator:layerName="path"/>
<path d="M2301.78 1433.65C2208.52 1491.55 2096.03 1526.08 1957.09 1547.91C1925.95 1553.16 1903.25 1580.29 1903.57 1611.86L1908.68 1762.56C1908.75 1777.09 1915.15 1790.88 1926.19 1800.33C1937.24 1809.78 1951.85 1813.97 1966.22 1811.8C2103.15 1791.86 2225.84 1748.44 2306.52 1701.57C2333.22 1686.02 2352.56 1645.56 2351.97 1614.59L2349 1457.97C2348.41 1427 2327.65 1417.39 2301.78 1433.65Z" fill="#ffffff" fill-rule="nonzero" opacity="0.3" stroke="none" vectornator:layerName="path"/>
<path d="M1974.77 1777.62C1974.77 1772.88 1974.77 1768.13 1974.77 1763.39C1974.77 1758.64 1974.77 1755.56 1974.17 1751.52C1974.17 1733.64 1973.58 1715.73 1972.39 1697.77C1971.68 1680.33 1970.85 1662.89 1969.78 1645.44C1969.19 1635.83 1968.48 1626.1 1967.77 1616.49C1967.51 1606.25 1966.15 1596.07 1963.73 1586.12C1962.19 1581.49 1951.87 1580.3 1951.87 1586.12C1950.82 1603.97 1951.38 1621.88 1953.53 1639.63C1954.48 1656.6 1955.54 1673.56 1956.26 1690.53C1956.97 1707.5 1957.56 1723.52 1958.04 1740.01C1958.04 1748.32 1958.04 1756.62 1958.04 1764.81C1958.04 1770.74 1956.26 1780.35 1961 1784.86C1963.94 1787.73 1968.48 1788.17 1971.92 1785.93C1973.96 1784.8 1975.13 1782.56 1974.89 1780.24L1974.89 1777.51L1974.77 1777.62ZM2024.36 1766.59C2024.36 1761.84 2024.36 1757.1 2024.36 1752.35C2024.36 1747.61 2023.77 1744.52 2023.65 1740.49C2023.65 1722.61 2023.06 1704.69 2021.87 1686.74C2021.16 1669.29 2020.33 1651.85 2019.26 1634.41C2019.26 1624.8 2017.96 1615.07 2017.25 1605.46C2016.98 1595.22 2015.63 1585.03 2013.21 1575.08C2011.67 1570.45 2001.35 1569.27 2001.35 1575.08C2000.28 1592.94 2000.88 1610.85 2003.13 1628.59C2004.07 1645.56 2005.02 1662.53 2005.74 1679.5C2006.45 1696.47 2007.16 1712.48 2007.52 1728.98C2007.52 1737.28 2007.52 1745.59 2007.52 1753.78C2007.52 1759.71 2005.85 1769.32 2010.6 1773.83C2013.5 1776.67 2017.99 1777.12 2021.4 1774.9C2023.44 1773.77 2024.61 1771.52 2024.36 1769.2L2024.36 1766.47L2024.36 1766.59ZM2076.34 1756.27C2076.34 1755.67 2076.34 1755.08 2076.34 1754.49C2076.34 1749.74 2076.34 1744.99 2076.34 1740.25C2076.34 1735.5 2076.34 1732.42 2075.74 1728.38C2075.27 1710.43 2074.67 1692.51 2073.96 1674.63C2073.25 1657.19 2072.42 1639.75 2071.35 1622.31C2070.76 1612.7 2070.05 1602.97 2069.33 1593.35C2069.09 1583.11 2067.7 1572.92 2065.18 1562.98C2063.76 1558.35 2053.32 1557.16 2053.32 1562.98C2052.37 1580.87 2052.96 1598.82 2055.1 1616.61C2056.05 1633.58 2056.99 1650.43 2057.82 1667.51C2058.66 1684.6 2059.13 1700.5 2059.6 1716.99C2059.6 1725.3 2059.6 1733.6 2059.6 1741.79C2059.6 1747.61 2057.82 1757.34 2062.57 1761.73C2065.46 1764.67 2070.03 1765.17 2073.49 1762.91C2075.53 1761.78 2076.7 1759.54 2076.45 1757.22L2076.34 1756.27Z" fill="#7e57c2" fill-rule="nonzero" opacity="1" stroke="none" vectornator:layerName="path"/>
<g opacity="0.2" vectornator:layerName="g">
<path d="M2066.61 1747.37C2066.61 1742.62 2066.61 1737.88 2066.61 1733.13C2066.61 1728.38 2066.61 1725.3 2066.61 1721.26C2066.13 1703.39 2065.54 1685.47 2064.83 1667.51C2064.11 1650.07 2063.16 1632.63 2062.22 1615.19C2061.58 1605.54 2060.87 1595.93 2060.08 1586.35C2059.73 1577.23 2058.66 1568.14 2056.88 1559.18C2054.89 1559.37 2053.28 1560.89 2052.96 1562.86C2052.01 1580.76 2052.61 1598.7 2054.74 1616.49C2055.69 1633.46 2056.64 1650.31 2057.47 1667.39C2058.3 1684.48 2058.77 1700.38 2059.25 1716.87C2059.25 1725.18 2059.25 1733.49 2059.25 1741.67C2058.66 1746.76 2058.66 1751.89 2059.25 1756.98C2060.77 1756.99 2062.26 1756.53 2063.52 1755.67C2065.5 1754.48 2066.64 1752.28 2066.49 1749.98C2066.54 1749.66 2066.54 1749.34 2066.49 1749.03L2066.61 1747.37Z" fill="#000000" fill-rule="nonzero" opacity="1" stroke="none" vectornator:layerName="path"/>
<path d="M1965.51 1770.51C1965.51 1765.76 1965.51 1761.01 1965.51 1756.27C1965.51 1751.52 1965.51 1748.44 1965.51 1744.4C1965.04 1726.52 1964.44 1708.61 1963.73 1690.65C1963.02 1673.21 1962.19 1655.77 1961.12 1638.32C1960.53 1628.71 1959.82 1619.1 1959.1 1609.49C1958.77 1600.36 1957.66 1591.27 1955.78 1582.32C1953.78 1582.53 1952.2 1584.11 1951.99 1586.12C1950.94 1603.97 1951.5 1621.88 1953.65 1639.63C1954.6 1656.6 1955.66 1673.56 1956.38 1690.53C1957.09 1707.5 1957.68 1723.52 1958.16 1740.01C1958.16 1748.32 1958.16 1756.62 1958.16 1764.81C1957.57 1769.9 1957.57 1775.03 1958.16 1780.12C1959.68 1780.13 1961.17 1779.67 1962.43 1778.81C1964.47 1777.68 1965.64 1775.44 1965.39 1773.12L1965.39 1772.76C1965.53 1772.02 1965.57 1771.26 1965.51 1770.51Z" fill="#000000" fill-rule="nonzero" opacity="1" stroke="none" vectornator:layerName="path"/>
<path d="M2015.23 1759.47C2015.23 1754.72 2015.23 1749.98 2015.23 1745.23C2015.23 1740.49 2015.23 1737.4 2014.63 1733.37C2014.16 1715.49 2013.57 1697.57 2012.85 1679.62C2012.14 1662.17 2011.31 1644.73 2010.24 1627.29C2009.65 1617.68 2008.94 1608.07 2008.23 1598.46C2007.9 1589.32 2006.78 1580.23 2004.9 1571.28C2002.9 1571.5 2001.32 1573.08 2001.11 1575.08C2000.04 1592.94 2000.64 1610.85 2002.89 1628.59C2003.84 1645.56 2004.79 1662.53 2005.5 1679.5C2006.21 1696.47 2006.92 1712.48 2007.28 1728.98C2007.28 1737.28 2007.28 1745.59 2007.28 1753.78C2006.69 1758.86 2006.69 1764 2007.28 1769.08C2008.8 1769.11 2010.3 1768.65 2011.55 1767.78C2013.59 1766.65 2014.76 1764.4 2014.52 1762.08L2014.52 1759.35L2015.23 1759.47Z" fill="#000000" fill-rule="nonzero" opacity="1" stroke="none" vectornator:layerName="path"/>
</g>
<path d="M2191.19 1543.4C2197.43 1547.71 2200.8 1555.09 2199.97 1562.62C2198.82 1583.46 2187.8 1602.5 2170.31 1613.88C2164.23 1618.3 2156.24 1619.08 2149.43 1615.9L2130.44 1604.98C2124.31 1600.65 2121 1593.34 2121.78 1585.88C2122.92 1565.04 2133.94 1545.99 2151.44 1534.62C2157.5 1530.16 2165.5 1529.34 2172.33 1532.48L2191.19 1543.4Z" fill="#263238" fill-rule="nonzero" opacity="1" stroke="none" vectornator:layerName="path"/>
<path d="M2170.31 1613.88C2164.47 1618.89 2156.1 1619.67 2149.44 1615.83C2142.77 1611.99 2139.25 1604.36 2140.65 1596.8C2141.8 1575.93 2152.82 1556.85 2170.31 1545.42C2176.45 1541.05 2184.45 1540.28 2191.31 1543.4C2197.46 1547.77 2200.77 1555.12 2199.97 1562.62C2198.82 1583.46 2187.8 1602.5 2170.31 1613.88Z" fill="#455a64" fill-rule="nonzero" opacity="1" stroke="none" vectornator:layerName="path"/>
<path d="M2311.75 1498.55C2317.87 1502.88 2321.18 1510.19 2320.41 1517.65C2319.28 1538.5 2308.31 1557.57 2290.86 1569.03C2284.72 1573.4 2276.72 1574.17 2269.86 1571.05L2250.99 1560.13C2244.87 1555.8 2241.56 1548.49 2242.33 1541.03C2243.46 1520.18 2254.43 1501.11 2271.88 1489.65C2278.02 1485.28 2286.02 1484.51 2292.88 1487.63L2311.75 1498.55Z" fill="#e0e0e0" fill-rule="nonzero" opacity="1" stroke="none" vectornator:layerName="path"/>
<path d="M2290.86 1569.03C2284.72 1573.4 2276.72 1574.17 2269.86 1571.05C2263.73 1566.71 2260.42 1559.41 2261.2 1551.94C2262.32 1531.07 2273.34 1511.98 2290.86 1500.57C2296.68 1495.5 2305.07 1494.69 2311.74 1498.55C2318.42 1502.41 2321.9 1510.09 2320.41 1517.65C2319.28 1538.5 2308.31 1557.57 2290.86 1569.03Z" fill="#f5f5f5" fill-rule="nonzero" opacity="1" stroke="none" vectornator:layerName="path"/>
<path d="M2191.19 1661.94C2197.43 1666.25 2200.8 1673.63 2199.97 1681.16C2198.82 1702 2187.8 1721.03 2170.31 1732.42C2164.23 1736.84 2156.24 1737.61 2149.43 1734.43L2130.44 1723.64C2124.31 1719.25 2121.01 1711.91 2121.78 1704.42C2122.92 1683.57 2133.94 1664.53 2151.44 1653.16C2157.5 1648.69 2165.5 1647.88 2172.33 1651.02L2191.19 1661.94Z" fill="#263238" fill-rule="nonzero" opacity="1" stroke="none" vectornator:layerName="path"/>
<path d="M2170.31 1732.42C2164.47 1737.42 2156.1 1738.2 2149.44 1734.36C2142.77 1730.52 2139.25 1722.9 2140.65 1715.33C2141.78 1694.49 2152.81 1675.44 2170.31 1664.07C2176.11 1658.9 2184.57 1658.03 2191.31 1661.91C2198.04 1665.79 2201.53 1673.55 2199.97 1681.16C2198.82 1702 2187.8 1721.03 2170.31 1732.42Z" fill="#455a64" fill-rule="nonzero" opacity="1" stroke="none" vectornator:layerName="path"/>
<path d="M2311.75 1617.09C2317.87 1621.42 2321.18 1628.72 2320.41 1636.19C2319.28 1657.03 2308.31 1676.1 2290.86 1687.57C2284.72 1691.94 2276.72 1692.71 2269.86 1689.58L2250.99 1678.67C2244.87 1674.33 2241.56 1667.03 2242.33 1659.56C2243.5 1638.73 2254.46 1619.68 2271.88 1608.19C2278.02 1603.81 2286.02 1603.05 2292.88 1606.17L2311.75 1617.09Z" fill="#263238" fill-rule="nonzero" opacity="1" stroke="none" vectornator:layerName="path"/>
<path d="M2290.86 1687.57C2284.72 1691.94 2276.72 1692.71 2269.86 1689.58C2263.73 1685.25 2260.42 1677.95 2261.2 1670.48C2262.32 1649.6 2273.34 1630.51 2290.86 1619.1C2296.68 1614.04 2305.07 1613.23 2311.74 1617.09C2318.42 1620.95 2321.9 1628.62 2320.41 1636.19C2319.28 1657.03 2308.31 1676.1 2290.86 1687.57Z" fill="#455a64" fill-rule="nonzero" opacity="1" stroke="none" vectornator:layerName="path"/>
<path d="M1870.35 1601.54C1818.26 1603.44 1758.1 1613.41 1758.1 1736.45C1758.1 1875.75 1573.6 1912.42 1406.53 1869.82C1239.46 1827.22 1186.9 1757.45 1186.9 1757.45C1186.9 1731.82 1186.9 1707.5 1185 1685.19C1185 1685.19 1144.78 1693.02 1139.79 1769.56C1134.81 1846.09 1250.26 1910.99 1394.07 1948.37C1537.88 1985.74 1716.93 1953.11 1774.95 1885.48C1820.52 1832.32 1828.35 1766.83 1830.01 1733.13C1832.03 1694.92 1830.01 1660.63 1870.35 1664.19C1890.28 1657.9 1890.88 1609.02 1870.35 1601.54Z" fill="#455a64" fill-rule="nonzero" opacity="1" stroke="none" vectornator:layerName="path"/>
<path d="M1534.32 2055.87C1523.55 2063.54 1517.75 2076.42 1519.13 2089.57C1521.14 2126.08 1540.44 2159.45 1571.1 2179.39C1581.77 2187.14 1595.78 2188.54 1607.77 2183.07L1625.69 2172.63C1636.47 2165.03 1642.29 2152.17 1640.87 2139.05C1638.87 2102.5 1619.57 2069.09 1588.9 2049.11C1578.22 2041.4 1564.21 2040.04 1552.24 2045.55L1534.32 2055.87Z" fill="#7e57c2" fill-rule="nonzero" opacity="1" stroke="none" vectornator:layerName="path"/>
<path d="M1534.32 2055.87C1523.55 2063.54 1517.75 2076.42 1519.13 2089.57C1521.14 2126.08 1540.44 2159.45 1571.1 2179.39C1581.77 2187.14 1595.78 2188.54 1607.77 2183.07L1625.69 2172.63C1636.47 2165.03 1642.29 2152.17 1640.87 2139.05C1638.87 2102.5 1619.57 2069.09 1588.9 2049.11C1578.22 2041.4 1564.21 2040.04 1552.24 2045.55L1534.32 2055.87Z" fill="#ffffff" fill-rule="nonzero" opacity="0.3" stroke="none" vectornator:layerName="path"/>
<path d="M1571.1 2179.39C1581.26 2188.38 1596.04 2189.87 1607.79 2183.1C1619.54 2176.32 1625.65 2162.79 1622.96 2149.49C1620.98 2112.96 1601.72 2079.56 1571.1 2059.55C1560.9 2050.58 1546.11 2049.12 1534.35 2055.92C1522.59 2062.71 1516.47 2076.25 1519.13 2089.57C1521.14 2126.08 1540.44 2159.45 1571.1 2179.39Z" fill="#7e57c2" fill-rule="nonzero" opacity="1" stroke="none" vectornator:layerName="path"/>
<path d="M1582.14 2111.52C1578.34 2103.81 1568.49 2088.97 1556.87 2086.25C1530.52 2090.4 1461.94 2094.55 1364.29 2071.65C1227.24 2039.61 1177.05 1957.39 1177.05 1957.39C1179.31 1932.83 1181.21 1912.18 1182.51 1888.92C1182.51 1888.92 1142.29 1896.75 1137.42 1973.29C1132.56 2049.82 1209.33 2104.64 1351 2148.06C1399.53 2162.9 1510.35 2173.46 1584.16 2164.91C1589.15 2158.51 1591.52 2150.45 1590.8 2142.37C1590.34 2131.55 1587.38 2120.99 1582.14 2111.52Z" fill="#455a64" fill-rule="nonzero" opacity="1" stroke="none" vectornator:layerName="path"/>
<path d="M1276.37 1082.19C1052.23 1142.82 1005.72 1200.01 924.318 1317.25C857.516 1413.59 696.027 1658.5 608.934 1823.78C536.674 1961.06 534.538 2019.92 568.117 2077.35C641.327 2202.88 920.64 2447.79 920.64 2447.79C987.625 2449.36 1053.14 2428.01 1106.33 2387.27C1199.83 2318.21 1170.29 2258.53 1170.29 2258.53L987.68 2004.14C987.68 2004.14 1211.46 1711.89 1260.59 1652.44C1309.71 1593 1423.74 1286.28 1276.37 1082.19Z" fill="#e6e6e6" fill-rule="nonzero" opacity="1" stroke="none" vectornator:layerName="path"/>
<path d="M1161.98 2256.04C1175.99 2270.35 1192.47 2282.01 1210.63 2290.45C1197.26 2303.14 1188.28 2319.77 1185 2337.91C1185 2337.91 1212.29 2448.14 1378.41 2541.4C1398.7 2553.27 1422.07 2559.91 1437.74 2577C1442.14 2581.37 1445.04 2587.02 1446.04 2593.14C1446.27 2603.1 1441.09 2612.4 1432.52 2617.46C1424.6 2622.97 1415.22 2625.98 1405.58 2626.12C1396.21 2626.12 1384.22 2624.82 1379.83 2633.12C1378.67 2635.81 1377.87 2638.65 1377.46 2641.55C1373.44 2653.21 1364.3 2662.39 1352.66 2666.47C1336.1 2673.74 1317.69 2675.68 1299.98 2672.04C1295.91 2670.81 1291.62 2670.44 1287.4 2670.97C1284.68 2671.9 1282.08 2673.18 1279.69 2674.77C1259.44 2685.79 1235.97 2689.36 1213.36 2684.86C1186.4 2679.66 1160.18 2671.17 1135.29 2659.58C1120.04 2652.87 1105.66 2644.34 1092.45 2634.19C1055.6 2603.15 1025 2565.38 1002.27 2522.89C998.912 2514.84 994.568 2507.22 989.341 2500.23L852.058 2376.36C858.743 2313.46 887.797 2255.06 933.929 2211.78C1011.17 2141.42 1071.57 2138.1 1071.57 2138.1C1071.57 2138.1 1136.24 2224.36 1161.98 2256.04Z" fill="#455a64" fill-rule="nonzero" opacity="1" stroke="none" vectornator:layerName="path"/>
<path d="M987.68 2004.14C921.233 1915.62 819.902 1885.48 716.198 1893.31C807.562 1852.02 935.59 1870.89 1017.11 1965.69L987.68 2004.14Z" fill="#000000" fill-rule="nonzero" opacity="0.2" stroke="none" vectornator:layerName="path"/>
<path d="M1196.99 2282.97L1030.28 2058.72C1030.28 2058.72 967.152 2025.97 859.058 2133.47C750.964 2240.97 781.933 2336.84 781.933 2336.84L993.612 2512.45C1008.09 2374.34 1067.42 2294.84 1196.99 2282.97Z" fill="#f0f0f0" fill-rule="nonzero" opacity="1" stroke="none" vectornator:layerName="path"/>
<path d="M1157.12 2229.34L1145.25 2213.32C1108.57 2220.93 1073.92 2236.22 1043.57 2258.18C991.951 2296.15 965.135 2354.88 951.371 2416.1C947.421 2434.17 944.765 2452.48 943.422 2470.92L961.457 2485.87C961.457 2483.5 961.457 2481.13 961.457 2478.75C962.348 2462.1 964.369 2445.53 967.508 2429.16C973.354 2397.16 983.826 2366.18 998.596 2337.2C1024.66 2290.58 1067.45 2255.6 1118.32 2239.31C1130.96 2234.94 1143.94 2231.6 1157.12 2229.34Z" fill="#7e57c2" fill-rule="nonzero" opacity="1" stroke="none" vectornator:layerName="path"/>
<path d="M906.639 2370.54C912.481 2338.53 922.995 2307.54 937.845 2278.58C964.009 2231.86 1006.99 2196.86 1058.04 2180.69C1075.63 2174.76 1093.75 2170.55 1112.15 2168.12L1100.28 2152.1C1057.95 2158.09 1017.73 2174.39 983.171 2199.56C931.437 2237.53 904.621 2296.26 890.976 2357.49C886.636 2376.82 883.819 2396.46 882.552 2416.22L882.552 2419.66L900.943 2434.97C900.943 2430.11 900.943 2425.12 900.943 2420.14C901.774 2403.5 903.676 2386.93 906.639 2370.54Z" fill="#7e57c2" fill-rule="nonzero" opacity="1" stroke="none" vectornator:layerName="path"/>
<path d="M841.497 2316.79C847.344 2284.83 857.817 2253.89 872.585 2224.95C898.612 2178.28 941.41 2143.24 992.307 2126.94C1017.32 2118.9 1043.15 2113.64 1069.31 2111.28L1058.04 2096.21C1007.27 2098.6 958.325 2115.9 917.318 2145.93C865.584 2183.9 838.887 2242.51 825.123 2303.74C820.789 2323.26 818.012 2343.1 816.817 2363.07C816.817 2364.02 816.817 2365.08 816.817 2366.15L835.327 2381.34C835.327 2376.59 835.327 2371.73 835.327 2366.98C836.227 2350.13 838.289 2333.36 841.497 2316.79Z" fill="#7e57c2" fill-rule="nonzero" opacity="1" stroke="none" vectornator:layerName="path"/>
<path d="M932.861 1304.79C990.475 1355.45 1054.6 1398.19 1123.54 1431.87L1054.96 1529.52C1054.96 1529.52 943.777 1487.63 866.652 1402.44L932.861 1304.79Z" fill="#000000" fill-rule="nonzero" opacity="0.2" stroke="none" vectornator:layerName="path"/>
<path d="M798.426 1483.24L796.646 1485.14C776.865 1507.24 764.428 1534.94 761.05 1564.4C757.585 1581.12 763.66 1598.39 776.831 1609.25C802.579 1627.53 841.379 1613.29 862.974 1594.66C887.236 1571.92 902.274 1541.04 905.215 1507.92C906.902 1496.21 905.469 1484.26 901.062 1473.28C891.925 1453.22 867.483 1447.41 847.43 1451.8C828.205 1456.89 811.063 1467.89 798.426 1483.24Z" fill="#7e57c2" fill-rule="nonzero" opacity="1" stroke="none" vectornator:layerName="path"/>
<g opacity="1" vectornator:layerName="freepik--Helmet--inject-78">
<path d="M2158.33 925.211C2027.81 658.831 1397.39 663.459 1284.08 939.212C1276.33 958.125 1271.64 978.152 1270.2 998.539C1269.01 1016.52 1269.01 1034.55 1270.2 1052.53C1271.43 1074.27 1276.2 1095.68 1284.32 1115.89C1399.77 1395.91 2049.16 1396.03 2164.73 1115.89C2172.85 1095.68 2177.62 1074.27 2178.85 1052.53C2179.69 1037.59 2179.69 1022.61 2178.85 1007.68C2177.72 979.073 2170.73 951.007 2158.33 925.211Z" fill="#455a64" fill-rule="nonzero" opacity="1" stroke="none" vectornator:layerName="path"/>
<path d="M1518.42 1297.07C1698.78 1344.54 1821.82 1338.84 1913.07 1338.25C2075.5 1337.18 2105.76 1325.55 2134.36 1267.05C2165.8 1202.98 2168.29 1133.81 2177.19 1067C2119.53 1188.27 1876.76 1371.95 1518.42 1297.07Z" fill="#455a64" fill-rule="nonzero" opacity="1" stroke="none" vectornator:layerName="path"/>
<path d="M1496.23 1224.22C1496.67 1237.69 1494.45 1251.12 1489.71 1263.73C1486.69 1270.86 1485.16 1278.53 1485.2 1286.28L1490.54 1288.17C1489.91 1280.47 1491.17 1272.73 1494.22 1265.63C1499.05 1252.42 1501.34 1238.41 1500.98 1224.34C1498.83 1201.5 1509.7 1179.39 1529.1 1167.15L1526.13 1162.88C1505.4 1176.05 1493.83 1199.77 1496.23 1224.22Z" fill="#37474f" fill-rule="nonzero" opacity="1" stroke="none" vectornator:layerName="path"/>
<path d="M1724.29 1244.39C1612.4 1244.39 1500.39 1219.83 1415.19 1170.59L1415.19 1170.59C1332.13 1123.13 1286.33 1058.7 1286.33 990.589C1286.33 922.482 1332.02 859.12 1415.19 810.59C1585.58 712.226 1862.99 712.226 2033.5 810.59C2116.56 858.052 2162.24 922.482 2162.24 990.589C2162.24 1058.7 2116.56 1122.65 2033.5 1170.59C1947.95 1219.83 1836.3 1244.39 1724.29 1244.39ZM1724.29 742.008C1613.35 742.008 1502.28 766.332 1417.8 815.099C1336.41 862.561 1291.55 924.499 1291.55 990.589C1291.55 1056.68 1336.41 1119.09 1417.8 1166.08C1586.77 1263.61 1861.81 1263.61 2030.77 1166.08C2112.17 1118.62 2157.02 1056.8 2157.02 990.589C2157.02 924.38 2112.17 862.205 2031.01 815.218C1946.29 766.332 1835.35 742.008 1724.29 742.008Z" fill="#37474f" fill-rule="nonzero" opacity="1" stroke="none" vectornator:layerName="path"/>
<path d="M2143.61 908.955L2143.61 967.57C2143.61 1029.51 2102.56 1091.45 2020.69 1138.67C1857.06 1233.59 1591.51 1233.59 1427.41 1138.67C1345.54 1091.21 1304.61 1029.51 1304.61 967.57L1304.61 908.955C1304.61 970.893 1345.54 1032.83 1427.41 1080.17C1591.04 1175.1 1856.59 1175.1 2020.69 1080.17C2102.2 1032.83 2143.61 970.893 2143.61 908.955Z" fill="#f0f0f0" fill-rule="nonzero" opacity="1" stroke="none" vectornator:layerName="path"/>
<path d="M1853.03 1198C1874.65 1194.06 1896.04 1188.95 1917.1 1182.69L1917.1 1124.08C1896.04 1130.33 1874.65 1135.44 1853.03 1139.38L1853.03 1198Z" fill="#fafafa" fill-rule="nonzero" opacity="1" stroke="none" vectornator:layerName="path"/>
<path d="M2125.1 980.148C2100.3 1022.57 2064.13 1057.21 2020.69 1080.17L2008.82 1086.7L2008.82 1145.31C2012.85 1143.18 2016.89 1140.92 2020.69 1138.67C2064.13 1115.71 2100.3 1081.07 2125.1 1038.64L2125.1 980.148Z" fill="#e0e0e0" fill-rule="nonzero" opacity="1" stroke="none" vectornator:layerName="path"/>
<path d="M1731.88 1150.89C1622.01 1152.08 1511.66 1128.47 1427.89 1079.7C1346.02 1032.24 1305.08 970.418 1305.08 908.48L1305.08 967.096C1305.08 1029.03 1346.02 1090.97 1427.89 1138.2C1511.66 1186.61 1622.01 1210.22 1731.88 1209.39L1731.88 1150.89Z" fill="#e0e0e0" fill-rule="nonzero" opacity="1" stroke="none" vectornator:layerName="path"/>
<path d="M1435.48 1142.94C1492.23 1172.93 1553.79 1192.77 1617.38 1201.56L1617.38 1142.94C1553.81 1134.23 1492.25 1114.47 1435.48 1084.56L1435.48 1142.94Z" fill="#f5f5f5" fill-rule="nonzero" opacity="1" stroke="none" vectornator:layerName="path"/>
<path d="M2151.8 887.241C2151.8 823.998 2110.03 760.874 2026.62 712.7C1859.67 616.234 1589.02 616.234 1422.07 712.7C1339.02 760.874 1296.77 823.998 1296.77 887.241L1296.77 909.904C1296.77 973.147 1338.54 1036.27 1422.07 1084.45C1589.02 1180.91 1859.67 1180.91 2026.62 1084.45C2109.68 1036.27 2151.8 973.147 2151.8 909.904L2151.8 887.241Z" fill="#37474f" fill-rule="nonzero" opacity="1" stroke="none" vectornator:layerName="path"/>
<path d="M1422.07 1061.66C1589.02 1158.13 1859.67 1158.13 2026.62 1061.66C2109.68 1013.37 2151.8 950.247 2151.8 887.123C2151.8 823.998 2110.03 760.756 2026.62 712.582C1859.67 616.116 1589.02 616.116 1422.07 712.582C1339.02 760.756 1296.77 823.88 1296.77 887.123C1296.77 950.366 1338.54 1013.37 1422.07 1061.66Z" fill="#455a64" fill-rule="nonzero" opacity="1" stroke="none" vectornator:layerName="path"/>
<path d="M1576.21 1150.18C1542.51 1144.3 1509.77 1133.84 1478.91 1119.09C1476.36 1117.7 1473.27 1117.7 1470.72 1119.09L1461.23 1124.67C1458.8 1126.34 1457.48 1129.21 1457.79 1132.14L1457.79 1132.14C1458.25 1140.14 1462.71 1147.37 1469.65 1151.37C1500.5 1166.19 1533.24 1176.69 1566.95 1182.57C1569.5 1183.07 1572.15 1182.65 1574.43 1181.39L1584.04 1175.81C1587.52 1173.83 1589.62 1170.08 1589.5 1166.08L1589.5 1166.08C1589.46 1158.28 1583.88 1151.6 1576.21 1150.18Z" fill="#37474f" fill-rule="nonzero" opacity="1" stroke="none" vectornator:layerName="path"/>
<path d="M1469.42 1151.25C1500.26 1166.07 1533 1176.57 1566.71 1182.45C1569.98 1183.16 1573.4 1182.3 1575.95 1180.14C1578.5 1177.98 1579.91 1174.76 1579.77 1171.42L1579.77 1171.42C1579.52 1163.9 1574.1 1157.55 1566.71 1156.11C1533.01 1150.27 1500.27 1139.81 1469.42 1125.02C1462.89 1121.82 1457.55 1125.02 1457.55 1132.14L1457.55 1132.14C1458.05 1140.1 1462.5 1147.28 1469.42 1151.25Z" fill="#455a64" fill-rule="nonzero" opacity="1" stroke="none" vectornator:layerName="path"/>
<path d="M2117.86 822.337L2117.86 822.337C2117.86 880.478 2079.42 938.619 2002.65 982.996C1848.4 1071.63 1599.23 1071.63 1446.04 982.996C1369.15 938.619 1330.95 880.478 1330.95 822.337C1330.95 764.197 1369.39 706.056 1446.28 661.679C1600.53 572.925 1849.11 572.925 2002.89 661.679C2079.42 706.056 2117.86 764.197 2117.86 822.337Z" fill="#263238" fill-rule="nonzero" opacity="1" stroke="none" vectornator:layerName="path"/>
<path d="M2117.86 822.337L2117.86 822.337C2117.86 880.478 2079.42 938.619 2002.65 982.996C1848.4 1071.63 1599.23 1071.63 1446.04 982.996C1369.15 938.619 1330.95 880.478 1330.95 822.337C1330.95 764.197 1369.39 706.056 1446.28 661.679C1600.53 572.925 1849.11 572.925 2002.89 661.679C2079.42 706.056 2117.86 764.197 2117.86 822.337Z" fill="#455a64" fill-rule="nonzero" opacity="1" stroke="none" vectornator:layerName="path"/>
<path d="M2131.75 846.068L2132.58 844.882C2128.9 851.408 2125.1 857.934 2120.71 864.341C2124.86 858.408 2128.31 852.238 2131.75 846.068Z" fill="#455a64" fill-rule="nonzero" opacity="1" stroke="none" vectornator:layerName="path"/>
<path d="M2193.33 614.455C2193.42 694.843 2172.74 773.892 2133.29 843.932C2132.71 844.801 2132.19 845.713 2131.75 846.661C2122.97 859.832 2088.08 902.31 1990.67 935.89C1873.91 976.114 1728.08 958.553 1728.08 958.553L1657.48 848.797L1485.2 776.655C1490.12 763.004 1492.49 748.566 1492.2 734.058C1491.25 695.823 1480.68 658.444 1461.47 625.371C1485.2 585.028 1520.08 449.406 1773.41 326.599C1895.86 267.271 2053.43 296.935 2094.96 326.599L2094.96 326.599C2158.93 408.897 2193.56 510.218 2193.33 614.455Z" fill="#455a64" fill-rule="nonzero" opacity="1" stroke="none" vectornator:layerName="path"/>
<path d="M2093.54 325.175L2094.49 326.599L2094.49 326.599L2093.54 325.175Z" fill="#f0f0f0" fill-rule="nonzero" opacity="1" stroke="none" vectornator:layerName="path"/>
<path d="M2133.29 843.932C2127.12 853.899 2094.13 900.175 1990.9 935.89C1874.15 976.114 1728.44 958.434 1728.44 958.434L1657.25 848.797L1485.2 776.774C1490.11 763.079 1492.48 748.604 1492.2 734.058C1491.25 695.823 1480.68 658.444 1461.47 625.371C1485.2 585.028 1519.96 449.287 1773.41 326.717C1896.1 267.39 2053.67 296.935 2095.08 326.717C1941.47 129.909 1660.62 87.9167 1456.16 231.188C1251.71 374.459 1195.31 652.778 1327.86 864.341C1330.02 867.66 1331.18 871.534 1331.18 875.495L1331.18 875.495C1331.18 933.635 1369.63 991.776 1446.52 1036.15C1600.77 1124.91 1849.35 1124.91 2003.13 1036.15C2079.89 991.776 2118.34 933.635 2118.34 875.495L2118.34 875.495C2118.38 871.518 2119.48 867.625 2121.54 864.222C2125.93 857.578 2129.37 850.814 2133.29 843.932Z" fill="#f0f0f0" fill-rule="nonzero" opacity="1" stroke="none" vectornator:layerName="path"/>
<path d="M1724.52 157.279C1847.88 157.041 1966.04 206.934 2051.89 295.511C2014.15 285.263 1975.19 280.193 1936.09 280.442C1878.1 279.71 1820.67 291.868 1767.95 316.038C1543.46 424.607 1487.45 543.143 1460.52 600.097C1456.84 607.929 1453.64 614.573 1450.91 619.438L1447.47 625.371L1450.91 631.303C1469.18 662.544 1479.3 697.88 1480.33 734.058C1480.37 747.193 1478 760.224 1473.33 772.502L1469.18 783.181L1479.86 787.69L1649.06 858.883L1717.76 965.672L1720.73 970.418L1726.3 971.13C1752.6 973.85 1779.01 975.157 1805.45 975.046C1869.33 976.027 1932.96 966.897 1993.99 947.992C2033.74 935.23 2071.1 915.986 2104.57 891.038C2098.4 941.822 2060.55 989.522 1996.24 1026.78C1923.63 1068.66 1826.92 1091.68 1723.34 1091.68C1619.75 1091.68 1523.52 1068.66 1450.43 1026.78C1379.83 985.962 1341.03 932.567 1341.03 876.325C1341.01 870.109 1339.24 864.025 1335.93 858.764C1247.62 717.936 1242.7 540.271 1323.1 394.776C1403.49 249.281 1556.52 158.886 1722.74 158.702L1722.74 158.702M1722.74 146.837C1552 146.928 1394.79 239.771 1312.27 389.247C1229.75 538.723 1234.95 721.23 1325.85 865.765C1328.01 869.084 1329.16 872.958 1329.17 876.918C1329.17 935.059 1367.61 993.2 1444.5 1037.58C1521.39 1081.95 1622.48 1104.14 1722.74 1104.14C1823.01 1104.14 1924.46 1081.95 2001.11 1037.58C2077.76 993.2 2116.32 935.059 2116.32 876.918L2116.32 876.918C2116.36 872.942 2117.47 869.049 2119.53 865.646C2123.8 859.002 2127.83 852.238 2131.39 845.356C2125.22 855.323 2092.23 901.599 1989.01 937.314C1929.57 955.326 1867.65 963.777 1805.57 962.35C1779.61 962.479 1753.66 961.172 1727.85 958.434L1656.65 848.797L1485.2 776.774C1490.11 763.079 1492.48 748.604 1492.2 734.058C1491.25 695.823 1480.68 658.444 1461.47 625.371C1485.2 585.028 1519.96 449.287 1773.41 326.717C1824.4 303.275 1879.97 291.518 1936.09 292.307C2008.35 292.307 2071 309.512 2094.85 326.717C2006.13 212.338 1869.51 145.408 1724.76 145.413L1722.74 146.837Z" fill="#e0e0e0" fill-rule="nonzero" opacity="1" stroke="none" vectornator:layerName="path"/>
<path d="M1314.22 848.797L1290.49 799.793C1290.49 799.793 1327.86 836.694 1343.64 848.916C1361.95 864.122 1377.62 882.243 1390.04 902.548C1401.9 922.956 1415.9 946.094 1415.9 946.094C1378.76 917.238 1344.68 884.634 1314.22 848.797Z" fill="#455a64" fill-rule="nonzero" opacity="1" stroke="none" vectornator:layerName="path"/>
<path d="M1253.58 746.873C1259.52 772.858 1259.52 776.062 1282.06 798.25C1297.96 814.15 1308.88 822.931 1337.35 848.797C1353.32 862.306 1367.48 877.82 1379.48 894.954C1387.66 906.819 1404.16 929.126 1407.36 934.466C1373.05 909.669 1341.79 880.915 1314.22 848.797L1309.47 839.186C1303.66 842.983 1305.08 853.187 1327.39 873.477C1342.64 893.522 1360.34 911.579 1380.07 927.228C1412.34 955.112 1431.45 971.011 1438.21 964.248C1444.97 957.485 1438.21 943.958 1409.26 902.548C1380.31 861.137 1369.75 843.22 1369.75 843.22L1253.58 746.873Z" fill="#37474f" fill-rule="nonzero" opacity="1" stroke="none" vectornator:layerName="path"/>
<path d="M1229.73 560.467C1217.87 607.929 1230.68 715.904 1241.6 737.025C1241.6 737.025 1265.33 775.469 1337.83 838.356C1354.6 851.818 1369.42 867.553 1381.85 885.106C1393.12 901.717 1405.58 920.702 1416.14 933.873C1433.11 955.468 1428.01 959.146 1409.5 946.687C1379.55 925.52 1352.15 900.953 1327.86 873.477L1332.96 897.208C1332.96 897.208 1393.95 972.791 1458.98 1004.95C1524 1037.1 1517.59 995.336 1489.59 959.502C1472.5 937.551 1440.11 897.564 1417.45 869.799C1400.95 849.646 1382.2 831.452 1361.56 815.574L1357.05 812.133C1312.04 777.56 1283.04 726.154 1276.72 669.748L1269.6 607.335L1229.73 560.467Z" fill="#f0f0f0" fill-rule="nonzero" opacity="1" stroke="none" vectornator:layerName="path"/>
<path d="M2103.86 875.85C2086.42 912.633 2052.72 947.043 2002.65 976.351C1868.45 1053.71 1661.64 1063.68 1509.05 1005.9C1487.29 997.755 1466.22 987.875 1446.04 976.351C1419.19 961.321 1394.92 942.094 1374.14 919.397C1357.42 905.331 1341.83 889.978 1327.51 873.477L1328.22 877.274C1329.17 881.19 1330.12 885.461 1330.95 889.14L1332.25 895.547C1332.25 896.496 1332.25 897.446 1332.25 898.513C1336.52 920.861 1345.63 942.002 1358.95 960.451C1381.98 991.507 1411.5 1017.18 1445.45 1035.68C1599.7 1124.43 1848.28 1124.43 2002.06 1035.68C2078.83 991.301 2117.27 933.161 2117.27 875.02C2117.22 871.051 2118.38 867.162 2120.59 863.866C2124.51 857.459 2128.42 850.933 2132.46 844.407C2124.5 856.216 2114.87 866.807 2103.86 875.85Z" fill="#e0e0e0" fill-rule="nonzero" opacity="1" stroke="none" vectornator:layerName="path"/>
<path d="M1295.35 647.796C1265.81 631.659 1239.23 607.098 1230.8 584.198C1226.65 573.028 1227.83 560.574 1234 550.38C1240.17 540.187 1250.66 533.37 1262.48 531.871C1262.48 531.871 1257.97 557.144 1256.79 575.536C1271.78 592.833 1288.7 608.359 1307.22 621.811C1301.39 629.49 1297.34 638.365 1295.35 647.796Z" fill="#fafafa" fill-rule="nonzero" opacity="1" stroke="none" vectornator:layerName="path"/>
<path d="M2094.61 326.717C2141 397.91 2063.28 517.751 1986.63 560.348C2023.53 581.231 2042.16 648.39 2023.53 690.037L2082.86 725.634L2133.17 844.288L2133.17 844.288C2225.38 679.773 2210.14 476.043 2094.49 327.073L2094.61 326.717Z" fill="#37474f" fill-rule="nonzero" opacity="1" stroke="none" vectornator:layerName="path"/>
<path d="M1420.65 819.846C1411.28 819.602 1402.14 816.858 1394.19 811.896C1353.49 788.165 1320.51 718.633 1320.51 656.34C1320.51 620.743 1331.42 592.978 1350.64 581.943C1365.15 574.265 1382.72 575.318 1396.21 584.672C1436.91 608.403 1469.89 677.935 1469.89 740.228C1469.89 776.537 1458.86 803.709 1439.75 814.743C1433.96 818.123 1427.36 819.885 1420.65 819.846ZM1369.75 580.994C1363.79 580.983 1357.94 582.538 1352.78 585.503C1335.22 595.707 1324.78 622.167 1324.78 656.696C1324.78 717.684 1356.81 785.792 1395.97 808.573C1408.2 817.393 1424.35 818.586 1437.74 811.658C1455.3 801.454 1465.74 774.994 1465.74 740.466C1465.74 679.477 1433.7 611.37 1394.55 588.588C1387.09 583.912 1378.54 581.292 1369.75 580.994Z" fill="#e0e0e0" fill-rule="nonzero" opacity="1" stroke="none" vectornator:layerName="path"/>
<path d="M1971.68 216.013C1885.18 194.536 1727.97 191.332 1547.14 354.72L1477.49 359.11C1477.49 359.11 1379.95 472.662 1361.09 579.926C1386 572.688 1433.11 600.453 1458.38 679.952C1483.66 759.45 1451.03 802.047 1451.03 802.047L1640.16 877.393L1710.17 992.369C1710.17 992.369 1866.79 1018.12 1992.56 969.944C2057.59 945.026 2095.08 916.668 2116.32 895.073C2117.31 888.592 2117.82 882.049 2117.86 875.495L2117.86 875.495C2117.86 875.495 2117.86 874.545 2117.86 874.189C2080.69 907.931 2037.33 934.161 1990.19 951.433C1887.08 990.233 1719.9 974.452 1719.9 974.452L1649.89 858.527L1471.91 788.521C1479.78 761.29 1481.8 732.7 1477.84 704.632C1472.31 674.166 1460.82 645.093 1444.03 619.082C1444.03 619.082 1499.91 430.184 1750.51 317.462C1899.07 250.541 2007.99 271.068 2077.28 305.597C2046.74 270.643 2011.15 240.449 1971.68 216.013Z" fill="#e0e0e0" fill-rule="nonzero" opacity="1" stroke="none" vectornator:layerName="path"/>
<path d="M1432.28 610.895C1489.11 484.053 1585.7 385.451 1731.76 314.852C1853.98 255.525 1962.78 249.829 2062.22 289.341C2039.31 265.561 2013.98 244.245 1986.63 225.742C1899.51 206.884 1808.7 215.166 1726.42 249.473C1593.89 307.021 1551.29 366.823 1551.29 366.823L1477.49 370.145C1477.49 370.145 1386.95 488.799 1371.88 571.858C1380.04 572.753 1388.03 574.79 1395.61 577.909L1399.17 570.078C1406.38 572.847 1413.05 576.864 1418.87 581.943L1414.36 591.792C1420.92 597.584 1426.92 603.98 1432.28 610.895Z" fill="#000000" fill-rule="nonzero" opacity="0.2" stroke="none" vectornator:layerName="path"/>
<path d="M1323.59 609.946C1309 615.522 1297.96 630.71 1294.16 654.204C1288.57 706.643 1308.31 758.607 1347.32 794.098C1365.83 809.167 1384.1 813.32 1398.7 807.743L1420.18 799.556C1434.77 794.098 1445.69 778.791 1449.6 755.297C1455.08 702.874 1435.35 650.961 1396.44 615.404C1377.93 600.335 1359.66 596.182 1345.07 601.759L1323.59 609.946Z" fill="#7e57c2" fill-rule="nonzero" opacity="1" stroke="none" vectornator:layerName="path"/>
<path d="M1323.59 609.946C1309 615.522 1297.96 630.71 1294.16 654.204C1288.57 706.643 1308.31 758.607 1347.32 794.098C1365.83 809.167 1384.1 813.32 1398.7 807.743L1420.18 799.556C1434.77 794.098 1445.69 778.791 1449.6 755.297C1455.08 702.874 1435.35 650.961 1396.44 615.404C1377.93 600.335 1359.66 596.182 1345.07 601.759L1323.59 609.946Z" fill="#000000" fill-rule="nonzero" opacity="0.2" stroke="none" vectornator:layerName="path"/>
<path d="M1347.32 793.979C1365.83 809.048 1384.1 813.201 1398.7 807.624C1413.29 802.047 1424.21 786.86 1428.13 763.366C1433.6 710.942 1413.88 659.029 1374.97 623.472C1356.46 608.403 1338.19 604.25 1323.59 609.827C1309 615.404 1297.96 630.592 1294.16 654.085C1288.57 706.524 1308.31 758.488 1347.32 793.979Z" fill="#7e57c2" fill-rule="nonzero" opacity="1" stroke="none" vectornator:layerName="path"/>
<path d="M1347.32 793.979C1365.83 809.048 1384.1 813.201 1398.7 807.624C1413.29 802.047 1424.21 786.86 1428.13 763.366C1433.6 710.942 1413.88 659.029 1374.97 623.472C1356.46 608.403 1338.19 604.25 1323.59 609.827C1309 615.404 1297.96 630.592 1294.16 654.085C1288.57 706.524 1308.31 758.488 1347.32 793.979Z" fill="#7e57c2" fill-rule="nonzero" opacity="1" stroke="none" vectornator:layerName="path"/>
<path d="M1374.97 623.472C1370.29 619.501 1365.15 616.114 1359.66 613.387L1356.7 612.081L1353.73 610.776C1347.95 608.515 1341.78 607.387 1335.57 607.454L1335.57 607.454L1341.15 636.999L1343.41 648.864C1341.86 648.98 1340.33 649.34 1338.9 649.932C1328.76 654.923 1322.09 664.989 1321.45 676.274C1318.18 707.402 1329.9 738.234 1353.02 759.332C1360.99 767.316 1372.64 770.398 1383.51 767.4C1386.8 766.14 1389.73 764.104 1392.05 761.468L1392.05 761.468L1399.77 769.892L1418.4 790.657C1421.57 785.51 1424.04 779.964 1425.75 774.164C1425.75 773.096 1426.35 772.028 1426.58 770.96C1426.82 769.892 1426.58 768.705 1427.29 767.519C1428.01 766.332 1427.29 764.553 1428.13 763.129C1433.66 710.767 1413.92 658.9 1374.97 623.472ZM1401.31 738.33L1388.14 723.498C1385.53 720.413 1384.82 725.159 1384.34 727.651C1384.65 734.452 1380.56 740.685 1374.2 743.111C1367.84 745.537 1360.64 743.61 1356.34 738.33C1342.8 726.016 1335.93 708 1337.83 689.8C1338.3 683.23 1342.17 677.383 1348.03 674.375C1350.14 673.91 1352.29 673.672 1354.44 673.663C1358.83 674.337 1362.94 676.228 1366.31 679.121C1368.56 681.02 1372.24 682.562 1369.87 669.866C1367.49 657.17 1365.24 643.881 1365.24 643.881C1367.34 645.185 1369.36 646.611 1371.29 648.152C1398.82 673.212 1412.86 709.83 1409.14 746.873L1401.31 738.33Z" fill="#ffffff" fill-rule="nonzero" opacity="0.3" stroke="none" vectornator:layerName="path"/>
<path d="M1349.58 631.541C1350.72 632.699 1352.4 633.153 1353.97 632.727C1355.44 631.941 1356.42 630.471 1356.58 628.812C1356.93 624.357 1355.23 619.984 1351.95 616.946C1350.83 615.665 1349.04 615.195 1347.44 615.76C1345.97 616.464 1345.01 617.926 1344.95 619.557C1344.54 624.055 1346.25 628.487 1349.58 631.541Z" fill="#ffffff" fill-rule="nonzero" opacity="0.3" stroke="none" vectornator:layerName="path"/>
<path d="M1390.27 662.984C1391.45 664.163 1393.18 664.617 1394.78 664.171C1396.27 663.488 1397.24 662.013 1397.28 660.374C1397.72 655.905 1396 651.492 1392.65 648.508C1391.52 647.327 1389.83 646.87 1388.26 647.322C1386.72 648.033 1385.71 649.546 1385.65 651.237C1385.33 655.652 1387.03 659.973 1390.27 662.984Z" fill="#ffffff" fill-rule="nonzero" opacity="0.3" stroke="none" vectornator:layerName="path"/>
<path d="M1416.14 722.193C1417.19 723.543 1419 724.055 1420.6 723.457C1422.2 722.86 1423.23 721.291 1423.14 719.582C1423.53 715.122 1421.82 710.734 1418.51 707.717C1417.37 706.558 1415.69 706.105 1414.12 706.53C1412.59 707.242 1411.58 708.754 1411.51 710.446C1411.2 714.861 1412.9 719.182 1416.14 722.193Z" fill="#ffffff" fill-rule="nonzero" opacity="0.3" stroke="none" vectornator:layerName="path"/>
<path d="M1414.01 774.045C1415.18 775.224 1416.91 775.677 1418.51 775.231C1420.01 774.54 1421.02 773.083 1421.12 771.434C1421.46 766.982 1419.76 762.617 1416.5 759.569C1415.32 758.39 1413.6 757.937 1411.99 758.382C1410.45 759.094 1409.44 760.606 1409.38 762.298C1409.06 766.713 1410.76 771.034 1414.01 774.045Z" fill="#ffffff" fill-rule="nonzero" opacity="0.3" stroke="none" vectornator:layerName="path"/>
<path d="M1477.72 863.51C1458.03 861.612 1430.26 904.684 1460.04 937.076L1477.72 863.51Z" fill="#e0e0e0" fill-rule="nonzero" opacity="1" stroke="none" vectornator:layerName="path"/>
<path d="M1462.06 942.178L1458.26 939.568C1434.53 922.244 1392.88 866.121 1397.99 846.899C1398.81 842.566 1401.62 838.873 1405.58 836.932C1416.5 831.948 1437.14 840.254 1479.15 860.663L1481.28 861.731L1462.06 942.178ZM1412.94 841.678C1411.31 841.602 1409.69 841.885 1408.19 842.509C1405.86 843.643 1404.26 845.872 1403.92 848.441C1400.24 862.205 1432.63 911.21 1458.26 931.499L1474.16 864.934C1447.7 852.238 1424.68 841.678 1412.94 841.678Z" fill="#e0e0e0" fill-rule="nonzero" opacity="1" stroke="none" vectornator:layerName="path"/>
<path d="M1421.48 854.255C1421.17 857.032 1418.68 859.041 1415.9 858.764C1414.59 858.646 1413.38 857.997 1412.55 856.968C1411.72 855.939 1411.35 854.617 1411.51 853.306C1411.63 851.982 1412.28 850.761 1413.3 849.914C1414.33 849.067 1415.65 848.665 1416.97 848.797C1418.3 848.917 1419.52 849.561 1420.36 850.586C1421.21 851.612 1421.61 852.932 1421.48 854.255Z" fill="#e0e0e0" fill-rule="nonzero" opacity="1" stroke="none" vectornator:layerName="path"/>
<path d="M1568.26 912.159C1540.99 903.07 1514.49 891.842 1489 878.58C1485.04 875.981 1480.03 875.578 1475.71 877.512L1460.04 886.055C1456.08 888.674 1453.79 893.177 1453.99 897.92L1453.99 898.632C1454.3 911.612 1461.13 923.564 1472.15 930.432C1502.91 946.372 1535.09 959.44 1568.26 969.469L1568.26 912.159Z" fill="#37474f" fill-rule="nonzero" opacity="1" stroke="none" vectornator:layerName="path"/>
<path d="M1568.26 925.804C1535.5 915.842 1503.72 902.894 1473.33 887.123C1462.89 881.665 1454.35 886.292 1453.99 898.158L1453.99 898.869C1454.3 911.85 1461.13 923.801 1472.15 930.669C1502.91 946.609 1535.09 959.677 1568.26 969.706L1568.26 925.804Z" fill="#455a64" fill-rule="nonzero" opacity="1" stroke="none" vectornator:layerName="path"/>
<path d="M1462.42 902.31C1462.45 909.948 1466.16 917.102 1472.38 921.532C1477.96 924.617 1482.35 921.532 1482.35 913.939C1482.28 906.343 1478.57 899.241 1472.38 894.835C1466.81 891.632 1462.42 894.717 1462.42 902.31Z" fill="#37474f" fill-rule="nonzero" opacity="1" stroke="none" vectornator:layerName="path"/>
<path d="M1563.15 916.786L1557.7 976.47L1610.97 967.808L1616.31 909.43L1563.15 916.786Z" fill="#f0f0f0" fill-rule="nonzero" opacity="1" stroke="none" vectornator:layerName="polygon"/>
<path d="M1555.2 979.08L1561.14 914.769L1618.8 906.819L1613.11 969.706L1555.2 979.08ZM1565.29 918.685L1560.19 973.74L1608.95 965.909L1613.82 912.04L1565.29 918.685Z" fill="#e0e0e0" fill-rule="nonzero" opacity="1" stroke="none" vectornator:layerName="path"/>
<path d="M1618.8 906.819L1581.19 895.547L1561.14 914.769L1618.8 906.819Z" fill="#e0e0e0" fill-rule="nonzero" opacity="1" stroke="none" vectornator:layerName="polygon"/>
<path d="M1555.92 971.249L1537.52 965.197L1539.3 955.349L1556.87 960.926L1555.92 971.249Z" fill="#7e57c2" fill-rule="nonzero" opacity="1" stroke="none" vectornator:layerName="polygon"/>
<path d="M1559.59 931.025L1541.2 924.855L1542.98 915.006L1560.54 920.702L1559.59 931.025Z" fill="#7e57c2" fill-rule="nonzero" opacity="1" stroke="none" vectornator:layerName="polygon"/>
<path d="M1502.17 880.122L1502.17 880.122C1498.61 878.935 1482.23 870.986 1477.6 868.257C1476.66 867.84 1475.58 867.84 1474.64 868.257C1472.18 868.929 1470.2 870.738 1469.3 873.121C1468.36 875.205 1468.12 877.532 1468.59 879.766C1468.79 880.914 1469.54 881.889 1470.6 882.376C1478.91 886.898 1487.52 890.861 1496.35 894.242L1497.06 894.242C1499.38 895.126 1502 894.78 1504.01 893.32C1506.02 891.86 1507.15 889.485 1507.03 887.004C1506.92 883.948 1505.01 881.249 1502.17 880.122Z" fill="#7e57c2" fill-rule="nonzero" opacity="1" stroke="none" vectornator:layerName="path"/>
<path d="M1502.17 880.122L1502.17 880.122C1498.61 878.935 1482.23 870.986 1477.6 868.257C1476.66 867.84 1475.58 867.84 1474.64 868.257C1472.18 868.929 1470.2 870.738 1469.3 873.121C1468.36 875.205 1468.12 877.532 1468.59 879.766C1468.79 880.914 1469.54 881.889 1470.6 882.376C1478.91 886.898 1487.52 890.861 1496.35 894.242L1497.06 894.242C1499.38 895.126 1502 894.78 1504.01 893.32C1506.02 891.86 1507.15 889.485 1507.03 887.004C1506.92 883.948 1505.01 881.249 1502.17 880.122Z" fill="#ffffff" fill-rule="nonzero" opacity="0.3" stroke="none" vectornator:layerName="path"/>
<path d="M1497.06 894.717L1497.06 894.717C1499.11 895.492 1501.39 895.317 1503.3 894.239C1505.2 893.161 1506.52 891.293 1506.91 889.14C1505.49 892.343 1501.69 892.818 1496.94 891.157C1489.68 888.433 1482.65 885.099 1475.94 881.19C1473.63 880.367 1471.87 878.464 1471.23 876.096C1470.59 873.729 1471.16 871.198 1472.74 869.324C1471.19 870.264 1469.98 871.679 1469.3 873.359C1468.36 875.443 1468.12 877.769 1468.59 880.003C1468.79 881.151 1469.54 882.127 1470.6 882.614C1478.91 887.135 1487.52 891.099 1496.35 894.479L1497.06 894.717Z" fill="#7e57c2" fill-rule="nonzero" opacity="1" stroke="none" vectornator:layerName="path"/>
<path d="M1474.16 598.08C1474.16 599.504 1472.86 600.928 1472.26 602.233C1467.87 611.607 1464.31 619.201 1460.99 625.015C1480.3 658.06 1490.95 695.444 1491.96 733.702C1492.23 748.247 1489.86 762.721 1484.96 776.418L1505.49 784.961L1509.52 786.622C1518.17 769.433 1522.25 750.313 1521.39 731.092C1520.93 682.728 1504.3 635.908 1474.16 598.08Z" fill="#263238" fill-rule="nonzero" opacity="1" stroke="none" vectornator:layerName="path"/>
<path d="M2193.21 614.455C2193.21 647.35 2189.79 680.156 2183.01 712.345C2176.33 743.604 2166.46 774.099 2153.58 803.353C2213.1 648.966 2190.79 474.979 2094.25 340.6C2015.82 293.138 1846.38 302.274 1745.29 340.6C1754.07 335.972 1763.09 331.463 1772.46 326.955C1895.15 267.627 2052.72 297.172 2094.13 326.955C2158.32 409.042 2193.2 510.249 2193.21 614.455Z" fill="#fafafa" fill-rule="nonzero" opacity="0.3" stroke="none" vectornator:layerName="path"/>
<path d="M2131.15 487.257C2122.49 447.508 2107.42 400.995 2076.22 373.467C2042.52 344.041 1982.72 318.886 1937.98 334.904C1931.23 337.003 1925.3 341.15 1921.02 346.77C1915.83 356.486 1915.22 368.004 1919.36 378.213C1921.72 386.369 1924.78 394.308 1928.49 401.944C1940.96 424.617 1955.41 446.139 1971.68 466.255C2024.48 538.397 2068.98 619.794 2079.42 708.666C2082.15 732.397 2082.51 757.077 2087.37 780.69C2088.15 787.332 2091.21 793.498 2096.03 798.132C2115.25 812.726 2131.63 770.011 2134.24 758.382C2159.39 656.221 2149.66 577.078 2131.15 487.257ZM2082.62 821.863C2081.71 822.201 2080.83 822.639 2080.01 823.168C2075.69 826.071 2072.84 830.7 2072.18 835.864C2071.94 837.158 2071.94 838.485 2072.18 839.779C2072.67 841.027 2073.35 842.189 2074.2 843.22C2076.71 846.198 2080.06 848.348 2083.81 849.391C2088.03 849.888 2092.26 848.653 2095.55 845.969C2098.84 843.285 2100.9 839.381 2101.25 835.152C2101.81 830.421 2099.75 825.761 2095.87 822.995C2091.99 820.228 2086.92 819.794 2082.62 821.863Z" fill="#fafafa" fill-rule="nonzero" opacity="0.2" stroke="none" vectornator:layerName="path"/>
<path d="M1626.75 468.865C1598.28 457.831 1553.19 507.191 1537.41 539.228C1526.43 563.838 1521.74 590.788 1523.76 617.658C1524.19 627.52 1526.32 637.234 1530.05 646.373C1537.05 663.34 1554.49 679.359 1573.83 669.036C1582.15 663.879 1588.98 656.639 1593.65 648.034C1611.45 620.15 1681.45 490.105 1626.75 468.865ZM1680.62 423.895C1673.56 421.538 1665.81 422.388 1659.43 426.22C1653.04 430.053 1648.64 436.485 1647.4 443.829C1647.02 451.373 1650.98 458.472 1657.6 462.102C1667.04 465.564 1677.62 463.457 1685.01 456.644C1694.39 446.321 1695.93 429.235 1680.62 423.895Z" fill="#fafafa" fill-rule="nonzero" opacity="0.2" stroke="none" vectornator:layerName="path"/>
</g>
</g>
</g>
</g>
</svg>
