<?xml version="1.0" encoding="UTF-8" standalone="no"?>
<!DOCTYPE svg PUBLIC "-//W3C//DTD SVG 1.1//EN" "http://www.w3.org/Graphics/SVG/1.1/DTD/svg11.dtd">
<!-- Created with Vectornator (http://vectornator.io/) -->
<svg height="100%" stroke-miterlimit="10" style="fill-rule:nonzero;clip-rule:evenodd;stroke-linecap:round;stroke-linejoin:round;" version="1.1" viewBox="0 0 623.65 623.63" width="100%" xml:space="preserve" xmlns="http://www.w3.org/2000/svg" xmlns:vectornator="http://vectornator.io" xmlns:xlink="http://www.w3.org/1999/xlink">
<defs/>
<g id="Untitled" vectornator:layerName="Untitled">
<path d="M273.97 426.13L349.74 444.28L340.95 338.1L274.03 343.64L273.97 426.13Z" fill="#f3a3a6" fill-rule="nonzero" opacity="1" stroke="none" vectornator:layerName="polygon"/>
<path d="M254.41 294.74C254.41 254.003 287.433 220.98 328.17 220.98C368.907 220.98 401.93 254.003 401.93 294.74C401.93 335.477 368.907 368.5 328.17 368.5C287.433 368.5 254.41 335.477 254.41 294.74Z" fill="#f3a3a6" fill-rule="nonzero" opacity="1" stroke="none" vectornator:layerName="circle"/>
<path d="M406.02 608.08C405.43 608.28 404.85 608.46 404.26 608.64C404.09 608.69 403.92 608.75 403.75 608.8C397.5 610.74 391.16 612.47 384.75 614.01C361.36 619.65 336.93 622.63 311.82 622.63C304.76 622.63 297.76 622.4 290.83 621.93C283.74 621.46 276.72 620.75 269.78 619.8C266.96 619.42 264.16 619.01 261.37 618.55C253.42 617.26 245.56 615.65 237.82 613.76C235.21 613.13 232.61 612.46 230.02 611.74C229.13 611.51 228.24 611.26 227.36 611.01C223.71 609.98 220.08 608.89 216.48 607.72C216.24 607.65 215.99 607.57 215.75 607.49C212.53 606.45 209.33 605.35 206.15 604.2C203.29 603.17 200.45 602.09 197.62 600.97C191.33 598.49 185.15 595.81 179.07 592.93L181.41 582.33L189.52 545.61L207.13 465.83L224.93 385.21L271.7 386.51L271.72 386.51L274 386.58L345.13 388.56L376.25 389.43L406.02 608.08L406.02 608.08C406.02 608.08 406.02 608.08 406.02 608.08Z" fill="#dadbdc" fill-rule="nonzero" opacity="1" stroke="none" vectornator:layerName="path"/>
<path d="M475.68 575.97C466.26 581.84 456.49 587.21 446.43 592.05C443.94 593.25 441.42 594.41 438.89 595.55C438.44 595.75 438 595.95 437.55 596.14C435.37 597.11 433.18 598.05 430.97 598.96L430.97 598.96L429.98 599.38C429.4 599.62 428.82 599.86 428.23 600.09C420.96 603.03 413.56 605.71 406.03 608.08C405.44 608.28 404.86 608.46 404.27 608.64L339.03 441.71L334.62 430.44L322.32 398.95L318.24 388.52L345.17 388.94L376.26 389.43C404.48 393.04 427.88 413.01 435.89 440.3L475.69 575.97L475.68 575.97C475.68 575.97 475.68 575.97 475.68 575.97Z" fill="#dadbdc" fill-rule="nonzero" opacity="1" stroke="none" vectornator:layerName="path"/>
<path d="M276.43 328.44C279.05 328 281.67 327.55 284.29 327.11C284.91 313.1 286.26 297.47 296.75 288.16C302.53 283.03 310.89 280.04 313.76 272.86C316.14 266.91 313.92 259.6 317.24 254.12C320.73 248.35 328.53 247.32 335.27 246.9C345.82 246.25 356.56 245.61 366.83 248.11C377.1 250.62 387.01 256.8 391.39 266.42C392.74 269.38 393.52 272.57 394.3 275.73C396.93 286.42 400.96 306.76 400.96 306.76C400.96 306.76 401.74 302.55 403.96 294.36C408.49 287.88 414.02 281.9 416.68 274.46C419.88 265.5 418.47 255.49 415.33 246.52C408.2 226.11 391.66 208.86 371.06 202.3C350.45 195.75 330.96 192.04 315.56 207.22C312.67 210.07 310.07 213.25 306.77 215.61C300.67 219.98 292.88 221.08 286 224.1C270.69 230.82 256.85 246.98 253.4 263.34C249.95 279.7 251.75 296.65 253.57 313.28C255.14 327.62 261.95 343.61 273.89 351.71C274.38 344.37 274.87 337.04 275.36 329.7L276.42 328.45L276.43 328.45C276.43 328.45 276.43 328.44 276.43 328.44Z" fill="#2f2e43" fill-rule="nonzero" opacity="1" stroke="none" vectornator:layerName="path"/>
<path d="M317.26 397.4L316.54 398.58L296.4 431.5L266.54 480.34L260.49 490.23L238.43 526.31C238.43 526.31 231.27 536.38 219.19 549.29L219.15 549.33C214.76 554.01 209.73 559.06 204.16 564.13C204.12 564.18 204.08 564.22 204.03 564.25C197.23 570.45 189.63 576.68 181.41 582.33C178.03 584.66 174.55 586.88 170.99 588.96C170.26 588.6 169.54 588.22 168.82 587.85C134.6 570.08 104.1 546.14 78.8 517.5C105.21 475.32 157.47 428.02 191.14 399.85C210.19 383.9 235.64 377.89 259.8 383.67L271.7 386.51L274 387.06L317.26 397.4C317.26 397.4 317.26 397.4 317.26 397.4Z" fill="#dadbdc" fill-rule="nonzero" opacity="1" stroke="none" vectornator:layerName="path"/>
<path d="M411.22 387.25C398.25 382.58 363.92 382.56 348.52 387.76C345.53 388.77 343.72 391.81 344.24 394.92L344.85 398.61C343.51 398.41 342.2 398.03 340.96 397.46C337.29 395.78 330.06 393.5 322.76 397.14C317.66 399.68 314.07 404.47 312.81 410.04C309.8 423.36 317.39 430.73 317.39 430.73L327.5 440.22C335.97 448.16 345.21 455.24 355.08 461.34L355.28 461.46L351.68 439.8C349.65 443.37 345.06 444.54 341.57 442.38C332.75 436.92 318.34 425.98 320.09 413.56C321.31 404.9 326.12 403.06 330.74 403.45C335.91 403.89 340.42 407.14 342.63 411.83C343.16 412.95 344.03 413.87 345.11 414.47L347.71 415.89L355.33 461.8C355.67 463.86 356.99 465.64 358.86 466.56C376.78 475.35 396.12 470.79 402.81 468.74C404.34 468.27 405.65 467.26 406.47 465.88L407.91 463.49C408.41 462.67 408.71 461.74 408.81 460.79L415.46 393.97C415.75 391.02 414 388.26 411.21 387.25C411.21 387.25 411.22 387.25 411.22 387.25Z" fill="#6c63ff" fill-rule="nonzero" opacity="1" stroke="none" vectornator:layerName="path"/>
<path d="M350.04 390.8C350.04 389.231 363.53 387.96 380.17 387.96C396.81 387.96 410.3 389.231 410.3 390.8C410.3 392.368 396.81 393.64 380.17 393.64C363.53 393.64 350.04 392.368 350.04 390.8Z" fill="#dedfe0" fill-rule="nonzero" opacity="1" stroke="none" vectornator:layerName="ellipse"/>
<path d="M319.98 447.72C336.33 435.21 342.8 416.4 334.43 405.71C326.07 395.02 306.04 396.49 289.68 409.01C283.08 413.92 277.8 420.38 274.31 427.85L205.75 481.74L232.97 514.3L297.67 457.71C305.86 456.24 313.51 452.81 319.97 447.72C319.97 447.72 319.98 447.72 319.98 447.72Z" fill="#f3a3a6" fill-rule="nonzero" opacity="1" stroke="none" vectornator:layerName="path"/>
<path d="M274.62 494.54L247.5 446.84L148.81 493.28L204.03 564.26L274.62 494.54Z" fill="#dadbdc" fill-rule="nonzero" opacity="1" stroke="none" vectornator:layerName="polygon"/>
<path d="M215.47 461.91C215.47 461.91 143.53 514.58 146.19 514.29C148.85 514 184.32 494.49 184.32 494.49L215.47 461.91L215.47 461.91C215.47 461.91 215.47 461.91 215.47 461.91Z" fill="#272223" fill-rule="nonzero" opacity="0.1" stroke="none" vectornator:layerName="path"/>
</g>
</svg>
