<?xml version="1.0" encoding="UTF-8" standalone="no"?>
<!DOCTYPE svg PUBLIC "-//W3C//DTD SVG 1.1//EN" "http://www.w3.org/Graphics/SVG/1.1/DTD/svg11.dtd">
<!-- Created with Vectornator (http://vectornator.io/) -->
<svg height="100%" stroke-miterlimit="10" style="fill-rule:nonzero;clip-rule:evenodd;stroke-linecap:round;stroke-linejoin:round;" version="1.1" viewBox="0 0 3453.38 2076.43" width="100%" xml:space="preserve" xmlns="http://www.w3.org/2000/svg" xmlns:vectornator="http://vectornator.io" xmlns:xlink="http://www.w3.org/1999/xlink">
<defs/>
<clipPath id="ArtboardFrame">
<rect height="2076.43" width="3453.38" x="0" y="0"/>
</clipPath>
<g clip-path="url(#ArtboardFrame)" id="Layer-1" vectornator:layerName="Layer 1">
<path d="M2110.31 2774.4L2118.51 3097.85C2118.51 3157.58 2117.07 3209.98 2113.91 3237C2113.94 3237.15 2113.94 3237.29 2113.91 3237.43C2113.82 3243.83 2112.3 3250.11 2109.45 3255.84C2109.45 3255.84 2109.45 3256.19 2109.45 3256.27C2091.63 3268.2 1614.22 3280.63 1597.4 3275.46C1580.58 3270.28 1594.02 3221.98 1612.21 3206.74C1630.39 3191.51 1811.09 3104.97 1811.09 3104.97L1805.84 2781.95L2110.31 2774.4Z" fill="#f7a9a0" fill-rule="nonzero" opacity="1" stroke="none" vectornator:layerName="path"/>
<path d="M2119.01 3033.66C2119.01 3033.66 2118.51 3097.56 2118.51 3097.78C2118.51 3157.51 2117.07 3209.91 2113.91 3236.93C2113.94 3237.07 2113.94 3237.22 2113.91 3237.36C2113.12 3243.65 2111.63 3249.82 2109.45 3255.76C2109.45 3255.76 2109.45 3256.12 2109.45 3256.19C2091.63 3268.13 1614.22 3280.56 1597.4 3275.39C1580.58 3270.21 1594.02 3221.91 1612.21 3206.67C1630.39 3191.43 1811.09 3104.89 1811.09 3104.89L1811.09 3040.2L2119.01 3033.66Z" fill="#ffffff" fill-rule="nonzero" opacity="1" stroke="none" vectornator:layerName="path 1"/>
<path d="M1781.4 3105.11C1813.17 3099.86 1851.77 3105.54 1875.49 3128.61C1876.43 3129.48 1875.13 3130.77 1874.13 3130.48C1844.08 3120 1812.99 3112.78 1781.4 3108.92C1780.59 3108.64 1780.04 3107.88 1780.04 3107.01C1780.04 3106.15 1780.59 3105.39 1781.4 3105.11Z" fill="#263238" fill-rule="nonzero" opacity="1" stroke="none" vectornator:layerName="path 2"/>
<path d="M1758.19 3118.33C1790.03 3113.16 1828.63 3118.84 1852.35 3141.91C1853.28 3142.77 1851.99 3144.07 1850.98 3143.71C1820.92 3133.26 1789.84 3126.03 1758.26 3122.14C1757.44 3121.88 1756.88 3121.13 1756.86 3120.27C1756.84 3119.4 1757.38 3118.63 1758.19 3118.33Z" fill="#263238" fill-rule="nonzero" opacity="1" stroke="none" vectornator:layerName="path 3"/>
<path d="M1735.04 3131.63C1766.89 3126.46 1805.48 3132.14 1829.2 3155.21C1830.14 3156.07 1828.84 3157.36 1827.84 3157C1797.79 3146.52 1766.7 3139.29 1735.12 3135.44C1734.29 3135.18 1733.73 3134.42 1733.72 3133.56C1733.7 3132.7 1734.23 3131.92 1735.04 3131.63Z" fill="#263238" fill-rule="nonzero" opacity="1" stroke="none" vectornator:layerName="path 4"/>
<path d="M1596.97 3275.39C1613.79 3280.56 2091.19 3268.2 2109.02 3256.19C2116.21 3251.74 2118.15 3182.02 2118.44 3098.07L2118.44 3095.41L1810.37 3100.01L1810.37 3105.18C1810.37 3105.18 1629.82 3191.43 1611.56 3206.96C1593.3 3222.48 1580.15 3270.28 1596.97 3275.39Z" fill="#263238" fill-rule="nonzero" opacity="1" stroke="none" vectornator:layerName="path 5"/>
<path d="M2118.51 3095.12L2118.51 3097.85C2118.15 3182.02 2115.92 3251.74 2109.02 3255.98C2100.97 3261.44 1997.47 3266.98 1885.63 3270.93C1751.86 3275.67 1606.1 3278.12 1596.97 3275.24C1580.15 3270.07 1593.66 3221.69 1611.77 3206.46C1629.89 3191.22 1810.59 3104.68 1810.59 3104.68L1810.59 3099.5L1913.3 3097.99L2118.51 3095.12Z" fill="#b2ff77" fill-rule="nonzero" opacity="1" stroke="none" vectornator:layerName="path 6"/>
<path d="M1601.86 3256.77C1682.29 3252.67 2007.03 3243.9 2086.88 3245.99C2087.53 3245.99 2087.53 3246.42 2086.88 3246.49C2007.24 3252.24 1682.43 3258.42 1601.93 3258.06C1600.2 3258.06 1600.2 3256.84 1601.86 3256.77Z" fill="#263238" fill-rule="nonzero" opacity="1" stroke="none" vectornator:layerName="path 7"/>
<path d="M1913.08 3098.21C1905.9 3149.82 1894.11 3225.86 1885.63 3271.15C1751.86 3275.89 1606.1 3278.33 1596.97 3275.46C1580.15 3270.28 1593.66 3221.91 1611.77 3206.67C1629.89 3191.43 1810.59 3104.89 1810.59 3104.89L1810.59 3099.72L1913.08 3098.21Z" fill="#000000" fill-rule="nonzero" opacity="0.1" stroke="none" vectornator:layerName="path 8"/>
<path d="M3235.43 6811.82L2220.82 6821.53C2220.82 6821.53 2163.4 5545.61 2158.97 4994.72C2153.06 4247.96 2156.23 4248.17 2189.58 2478.14L2948.58 2478.14C2948.58 2478.14 3048.42 2738.39 3071.43 2975.84C3082.19 3086.02 3047.79 3197.47 3035.75 3244.75L3003.67 5046.01L3235.43 6811.82Z" fill="#b2ff77" fill-rule="nonzero" opacity="1" stroke="none" vectornator:layerName="path 9"/>
<path d="M3235.43 6811.82L2220.82 6821.53C2220.82 6821.53 2163.4 5545.61 2158.97 4994.72C2153.06 4247.96 2156.23 4248.17 2189.58 2478.14L2948.58 2478.14C2948.58 2478.14 3048.42 2738.39 3071.43 2975.84C3082.19 3086.02 3047.79 3197.47 3035.75 3244.75L3003.67 5046.01L3235.43 6811.82Z" fill="#000000" fill-rule="nonzero" opacity="0.6" stroke="none" vectornator:layerName="path 10"/>
<path d="M2120.45 2911.04C2111.31 2909.85 2102.13 2909.13 2092.92 2908.89C2082.71 2908.17 2072.51 2907.38 2062.3 2906.94C2042.6 2906.15 2022.98 2905.79 2003.29 2905.72C1963.61 2905.72 1924.22 2905.72 1884.33 2907.09C1861.76 2907.81 1839.19 2908.74 1816.7 2910.04C1816.4 2910.13 1816.2 2910.41 1816.2 2910.72C1816.2 2911.03 1816.4 2911.3 1816.7 2911.4C1856.01 2912.84 1895.76 2913.49 1934.72 2914.2C1973.68 2914.92 2013.42 2915.79 2052.67 2914.99C2063.95 2914.99 2075.24 2914.99 2086.45 2914.06C2097.66 2913.13 2109.23 2914.06 2120.3 2912.41C2121.17 2912.34 2121.45 2911.26 2120.45 2911.04Z" fill="#263238" fill-rule="nonzero" opacity="1" stroke="none" vectornator:layerName="path 11"/>
<path d="M2265.98 5277.98C2251 4731.31 2247.2 4067.07 2254.16 3520.4C2257.96 3213.51 2266.2 3024.39 2275.27 2718.34C2275.27 2714.75 2269.99 2714.96 2269.99 2718.34C2246.99 3149.98 2229.89 3699.81 2229.26 4366.79C2229.26 4913.67 2302.5 6241.93 2325.51 6547.98C2325.51 6560.86 2333.95 6552.42 2333.74 6549.67C2321.5 6273.38 2273.16 5551.1 2265.98 5277.98Z" fill="#263238" fill-rule="nonzero" opacity="1" stroke="none" vectornator:layerName="path 12"/>
<path d="M1740.72 2825.72C1740.72 2825.72 1738.06 3138.1 1738.06 3138.32C1738.06 3198.05 1736.7 3250.44 1733.46 3277.47C1733.54 3277.6 1733.54 3277.77 1733.46 3277.9C1733.38 3284.29 1731.85 3290.58 1729.01 3296.3L1728.65 3296.66C1710.82 3308.66 1233.34 3321.1 1216.6 3315.92C1199.85 3310.75 1213.22 3262.45 1231.33 3247.21C1249.44 3231.97 1430.43 3145.43 1430.43 3145.43L1436.04 2833.2L1740.72 2825.72Z" fill="#f7a9a0" fill-rule="nonzero" opacity="1" stroke="none" vectornator:layerName="path 13"/>
<path d="M1738.64 3074.2C1738.64 3074.2 1738.06 3138.1 1738.06 3138.32C1738.06 3198.05 1736.7 3250.44 1733.46 3277.47C1733.54 3277.6 1733.54 3277.77 1733.46 3277.9C1732.68 3284.18 1731.19 3290.36 1729.01 3296.3L1728.65 3296.66C1710.82 3308.66 1233.34 3321.1 1216.6 3315.92C1199.85 3310.75 1213.22 3262.45 1231.33 3247.21C1249.44 3231.97 1430.43 3145.43 1430.43 3145.43L1430.43 3080.31L1738.64 3074.2Z" fill="#ffffff" fill-rule="nonzero" opacity="1" stroke="none" vectornator:layerName="path 14"/>
<path d="M1400.96 3145.58C1432.8 3140.4 1471.4 3146.08 1495.12 3169.15C1496.05 3170.01 1494.76 3171.31 1493.75 3170.95C1463.71 3160.47 1432.62 3153.24 1401.03 3149.39C1400.21 3149.12 1399.65 3148.37 1399.63 3147.51C1399.62 3146.65 1400.15 3145.87 1400.96 3145.58Z" fill="#263238" fill-rule="nonzero" opacity="1" stroke="none" vectornator:layerName="path 15"/>
<path d="M1377.82 3158.66C1409.66 3153.41 1448.25 3159.16 1471.97 3182.23C1472.91 3183.1 1471.97 3184.39 1470.61 3184.03C1440.56 3173.55 1409.48 3166.32 1377.89 3162.47C1377.07 3162.2 1376.5 3161.45 1376.49 3160.59C1376.47 3159.73 1377.01 3158.95 1377.82 3158.66Z" fill="#263238" fill-rule="nonzero" opacity="1" stroke="none" vectornator:layerName="path 16"/>
<path d="M1354.67 3172.17C1386.44 3166.92 1425.11 3172.6 1448.83 3195.75C1449.76 3196.61 1448.47 3197.9 1447.46 3197.54C1417.42 3187.06 1386.33 3179.83 1354.74 3175.98C1353.92 3175.72 1353.36 3174.96 1353.34 3174.1C1353.33 3173.24 1353.86 3172.46 1354.67 3172.17Z" fill="#263238" fill-rule="nonzero" opacity="1" stroke="none" vectornator:layerName="path 17"/>
<path d="M1216.6 3315.92C1233.41 3321.1 1710.75 3308.74 1728.65 3296.66C1735.47 3292.2 1737.77 3222.56 1738.06 3138.53L1738.06 3135.87L1430 3140.47L1430 3145.65C1430 3145.65 1249.37 3231.9 1231.11 3247.43C1212.86 3262.95 1199.78 3310.82 1216.6 3315.92Z" fill="#b2ff77" fill-rule="nonzero" opacity="1" stroke="none" vectornator:layerName="path 18"/>
<path d="M1221.48 3297.24C1301.91 3293.21 1626.65 3284.37 1706.51 3286.45C1707.16 3286.45 1707.16 3286.96 1706.51 3287.03C1626.87 3292.78 1302.06 3298.96 1221.55 3298.6C1219.83 3298.6 1219.76 3297.38 1221.48 3297.24Z" fill="#263238" fill-rule="nonzero" opacity="1" stroke="none" vectornator:layerName="path 19"/>
<path d="M2508.08 3331.07C2508.08 3331.07 2091.85 4760.22 2084.46 5001.27C2077.92 5206.85 2104.3 6893.29 2104.3 6893.29L1050.65 6899.41C1050.65 6899.41 1139.72 5171.39 1156.18 4957.57C1189.53 4522.35 1383.29 3733.37 1599.43 2960.01C1640.16 2813.95 1788.33 2477.93 1788.33 2477.93L2924.1 2477.93C2906.49 2749.42 2823.19 3012.57 2681.37 3244.75C2681.37 3244.75 2575.62 3292.87 2508.08 3331.07Z" fill="#b2ff77" fill-rule="nonzero" opacity="1" stroke="none" vectornator:layerName="path 20"/>
<path d="M2508.08 3331.07C2508.08 3331.07 2091.85 4760.22 2084.46 5001.27C2077.92 5206.85 2104.3 6893.29 2104.3 6893.29L1050.65 6899.41C1050.65 6899.41 1139.72 5171.39 1156.18 4957.57C1189.53 4522.35 1383.29 3733.37 1599.43 2960.01C1640.16 2813.95 1788.33 2477.93 1788.33 2477.93L2924.1 2477.93C2906.49 2749.42 2823.19 3012.57 2681.37 3244.75C2681.37 3244.75 2575.62 3292.87 2508.08 3331.07Z" fill="#000000" fill-rule="nonzero" opacity="0.6" stroke="none" vectornator:layerName="path 21"/>
<path d="M1742.02 2933.32C1700.54 2932.17 1657.56 2930.95 1616.09 2931.96C1574.61 2932.96 1533.79 2933.61 1492.67 2936.05C1469.39 2937.42 1446.17 2938.21 1422.95 2940.51C1422.6 2940.51 1422.31 2940.8 1422.31 2941.16C1422.31 2941.52 1422.6 2941.8 1422.95 2941.8C1464.35 2944.18 1505.97 2943.67 1547.44 2943.31C1588.92 2942.95 1629.74 2942.52 1670.86 2940.65C1694.15 2939.58 1717.36 2938.35 1740.65 2936.77C1743.17 2936.63 1744.46 2933.4 1742.02 2933.32Z" fill="#263238" fill-rule="nonzero" opacity="1" stroke="none" vectornator:layerName="path 22"/>
<path d="M1562.04 2110.4C1561.46 2113.21 1560.81 2116.01 1560.17 2118.81C1548.45 2174.37 1538.6 2222.96 1533.72 2249.92C1518.85 2337 1511.2 2425.15 1510.86 2513.49C1510.14 2602.4 1511.29 2691.46 1511.58 2780.44C1511.87 2869.42 1513.16 2814.51 1510.79 2903.49C1510.79 2904.5 1509.13 2904.64 1509.06 2903.49C1508.7 2892.35 1508.42 2881.28 1508.27 2870.14C1506.69 2780.73 1505.97 2835.28 1505.32 2745.87C1504.68 2656.45 1502.95 2567.83 1504.82 2478.85C1506.95 2391.59 1516.57 2304.69 1533.57 2219.08C1537.96 2196.3 1545.94 2158.49 1555.64 2114.57C1556.21 2111.7 1556.93 2108.75 1557.58 2105.8L1558.01 2106.31C1559.43 2107.6 1560.77 2108.97 1562.04 2110.4Z" fill="#263238" fill-rule="nonzero" opacity="1" stroke="none" vectornator:layerName="path 23"/>
<path d="M1825.48 2980.06C1792.98 3122.75 1753.72 3264.16 1716.99 3406.21C1706.86 3445.05 1684.49 3541.51 1655.99 3665.62C1655.99 3670.26 1653.88 3675.12 1653.04 3679.76L1639.11 3677.44C1640.37 3672.79 1641.43 3667.94 1642.48 3663.3C1676.47 3515.55 1704.33 3398.19 1715.09 3357.03C1748.65 3230.39 1780.31 3103.75 1817.88 2978.16C1818.72 2976.48 1820.62 2975.61 1822.45 2976.06C1824.27 2976.52 1825.53 2978.18 1825.48 2980.06Z" fill="#263238" fill-rule="nonzero" opacity="1" stroke="none" vectornator:layerName="path 24"/>
<path d="M2247.41 3356.4C2299.92 3355.95 2352.31 3351.15 2404.02 3342.05C2455.24 3330.63 2505.83 3316.54 2555.57 3299.83C2604.27 3288.7 2653.62 3280.6 2703.32 3275.56C2753.75 3268.34 2802.83 3253.69 2848.96 3232.08C2851.28 3232.08 2852.97 3234.4 2850.86 3235.46C2806.06 3259.52 2759.32 3279.78 2711.13 3296.04C2661.32 3311.65 2608.97 3313.98 2558.32 3326.22C2507.13 3341.51 2455.03 3353.56 2402.33 3362.31C2350.39 3368.57 2297.83 3367.65 2246.14 3359.57C2244.88 3359.36 2245.51 3356.4 2247.41 3356.4Z" fill="#263238" fill-rule="nonzero" opacity="1" stroke="none" vectornator:layerName="path 25"/>
<path d="M2181.13 4517.28C2191.05 4478.45 2368.99 3739.49 2418.8 3586.05C2447.08 3498.87 2472.2 3410.86 2505.34 3325.59C2505.34 3324.65 2506.09 3323.9 2507.03 3323.9C2507.96 3323.9 2508.71 3324.65 2508.71 3325.59C2492.04 3405.16 2468.61 3483.04 2447.5 3561.56C2426.4 3640.08 2215.33 4463.46 2200.55 4506.1C2185.78 4548.73 2173.32 4594.75 2155.17 4637.38C2155.17 4638.43 2154.32 4639.28 2153.27 4639.28C2152.22 4639.28 2151.37 4638.43 2151.37 4637.38C2158.34 4596.65 2170.79 4556.96 2181.13 4517.28Z" fill="#263238" fill-rule="nonzero" opacity="1" stroke="none" vectornator:layerName="path 26"/>
<path d="M1385.9 1833.39C1391.08 1805.36 1389.42 1814.2 1394.6 1786.1C1399.77 1757.99 1405.59 1731.11 1409.69 1703.44C1410.19 1700.27 1410.55 1697.61 1407.18 1695.53C1400.63 1692.83 1393.73 1691.06 1386.69 1690.28C1369.58 1686.4 1352.33 1683.1 1335.08 1679.65C1299.5 1672.96 1259.25 1666.06 1223.17 1662.83C1219.79 1662.83 1219 1667.07 1222.45 1667.43C1279.73 1673.89 1336.59 1683.68 1392.73 1696.75C1395.75 1697.4 1402.72 1698.26 1404.37 1701.06C1404.2 1703.14 1403.81 1705.18 1403.22 1707.17L1399.77 1725.5C1397.38 1737.72 1394.98 1749.94 1392.58 1762.16C1387.91 1786.67 1390.07 1774.24 1385.4 1798.67C1383.31 1809.89 1381.16 1821.1 1379.07 1832.31L1375.62 1850.64C1375.05 1853.73 1374.69 1856.89 1373.9 1859.84C1373.2 1865.26 1369.12 1869.63 1363.76 1870.69C1352.48 1874.43 1339.97 1876.3 1328.26 1879.03L1288.79 1888.23C1281.96 1890.61 1274.87 1892.16 1267.66 1892.83C1260.48 1892.83 1253.29 1883.63 1248.4 1879.18L1203.48 1838.49C1198.99 1834.28 1195.14 1829.44 1192.05 1824.12C1189.1 1818.15 1213.61 1690.57 1223.17 1664.7C1223.6 1663.55 1220.3 1662.54 1219.86 1663.69C1211.1 1688.13 1182.42 1808.81 1182.34 1821.39C1182.34 1832.1 1191.33 1838.57 1199.31 1845.83L1233.09 1876.23C1238.98 1881.48 1244.73 1886.79 1250.63 1891.97C1254.43 1896.1 1259.48 1898.88 1265 1899.88C1270.17 1899.85 1275.29 1898.98 1280.17 1897.29L1303.17 1891.83L1347.59 1881.19C1357.37 1878.89 1372.96 1877.88 1378.21 1869.04C1380.19 1864.63 1381.41 1859.92 1381.8 1855.1C1383.17 1847.62 1384.53 1840.51 1385.9 1833.39Z" fill="#263238" fill-rule="nonzero" opacity="1" stroke="none" vectornator:layerName="path 27"/>
<path d="M1401.43 1710.55C1369.73 1721.77 1337.96 1732.76 1305.4 1742.18C1301.23 1743.4 1297.06 1744.69 1292.82 1745.77C1286.53 1748.08 1279.47 1746.01 1275.43 1740.67C1269.75 1735.21 1264.28 1729.6 1258.68 1724.21C1245.74 1711.7 1232.59 1699.41 1219.58 1686.98C1218.57 1686.04 1216.85 1686.98 1217.78 1688.13C1231.22 1702.5 1244.59 1717.6 1258.46 1732.04C1267.88 1741.89 1276.58 1755.84 1292.6 1751.74C1310.86 1747.07 1328.54 1740.24 1346.22 1733.91C1365.13 1727.16 1383.82 1719.54 1401.93 1711.56C1402.5 1711.27 1402.14 1710.34 1401.43 1710.55Z" fill="#263238" fill-rule="nonzero" opacity="1" stroke="none" vectornator:layerName="path 28"/>
<path d="M1604.73 1957.16C1604.68 1954.62 1603.43 1952.24 1601.35 1950.77C1598.52 1949.37 1595.2 1949.37 1592.37 1950.77C1591.07 1951.27 1591.94 1953.14 1593.23 1952.63C1594.35 1952.11 1595.59 1951.89 1596.82 1951.99C1597.4 1952.06 1597.94 1952.29 1598.41 1952.63L1599.05 1953.28C1599.34 1953.77 1599.61 1954.27 1599.84 1954.79C1599.84 1954.79 1599.84 1955.29 1599.84 1955.58L1599.84 1955.58C1600.14 1956.73 1600.26 1957.92 1600.2 1959.1C1600.04 1961.21 1598.57 1962.99 1596.54 1963.56C1595.35 1963.97 1594.03 1963.59 1593.23 1962.63C1592.41 1961.58 1591.96 1960.29 1591.94 1958.96C1591.94 1958.96 1591.29 1958.6 1591.29 1958.96C1590.86 1961.29 1591.88 1963.65 1593.88 1964.93C1596.28 1965.91 1599.03 1965.53 1601.06 1963.92C1603.42 1962.49 1604.82 1959.91 1604.73 1957.16Z" fill="#263238" fill-rule="nonzero" opacity="1" stroke="none" vectornator:layerName="path 29"/>
<path d="M2062.94 748.849L1752.87 707.901L1790.66 504.219L2094.81 577.46L2062.94 748.849Z" fill="#263238" fill-rule="nonzero" opacity="1" stroke="none" vectornator:layerName="polygon"/>
<path d="M1922.36 764.468L1466.45 704.102L1522.18 404.806L1969.22 512.451L1922.36 764.468Z" fill="#37474f" fill-rule="nonzero" opacity="1" stroke="none" vectornator:layerName="polygon 1"/>
<path d="M1604.49 737.24L1036.5 662.099L1105.74 289.14L1662.75 423.38L1604.49 737.24Z" fill="#455a64" fill-rule="nonzero" opacity="1" stroke="none" vectornator:layerName="polygon 2"/>
<path d="M1004.42 463.272C985.214 566.063 999.567 655.134 1036.5 662.099C1073.44 669.065 1118.61 590.969 1137.82 487.967C1157.02 384.965 1142.67 296.105 1105.74 289.14C1068.8 282.174 1023.63 360.27 1004.42 463.272Z" fill="#455a64" fill-rule="nonzero" opacity="1" stroke="none" vectornator:layerName="path 30"/>
<path d="M1172.01 305.181C1163.7 305.455 1156.11 310.005 1151.96 317.212C1147.09 323.835 1142.85 330.901 1139.3 338.319C1132.3 353.215 1126.37 368.592 1121.57 384.332C1111.52 415.573 1103.55 447.443 1097.71 479.735C1091.63 512.134 1087.96 544.94 1086.74 577.883C1085.58 594.255 1085.58 610.689 1086.74 627.062C1087.28 635.236 1088.48 643.353 1090.33 651.335C1092.44 658.933 1095.18 667.798 1103.2 670.964C1094.76 668.854 1090.54 659.778 1087.79 652.179C1085.04 644.214 1082.99 636.02 1081.67 627.695C1079.32 611.124 1078.12 594.409 1078.08 577.672C1077.92 544.199 1080.82 510.781 1086.74 477.836C1093.05 445.032 1101.94 412.778 1113.33 381.377C1119.11 365.628 1126.17 350.379 1134.44 335.786C1138.65 328.225 1143.68 321.147 1149.43 314.679C1154.8 307.807 1163.34 304.212 1172.01 305.181Z" fill="#37474f" fill-rule="nonzero" opacity="1" stroke="none" vectornator:layerName="path 31"/>
<path d="M1963.31 785.786L1651.77 757.292L1681.32 552.343L1988.22 613.342L1963.31 785.786Z" fill="#263238" fill-rule="nonzero" opacity="1" stroke="none" vectornator:layerName="polygon 3"/>
<path d="M1823.58 806.893L1365.56 765.101L1409.04 463.905L1860.31 553.399L1823.58 806.893Z" fill="#37474f" fill-rule="nonzero" opacity="1" stroke="none" vectornator:layerName="polygon 4"/>
<path d="M1504.66 792.751L934.136 740.617L988.38 365.336L1550.25 476.78L1504.66 792.751Z" fill="#455a64" fill-rule="nonzero" opacity="1" stroke="none" vectornator:layerName="polygon 5"/>
<path d="M894.032 543.056C879.046 646.691 896.987 735.129 934.136 740.406C971.284 745.683 1013.5 666.11 1028.48 562.475C1043.47 458.839 1025.53 370.401 988.38 365.125C951.232 359.848 909.018 439.632 894.032 543.056Z" fill="#455a64" fill-rule="nonzero" opacity="1" stroke="none" vectornator:layerName="path 32"/>
<path d="M1055.08 378.633C1046.86 379.252 1039.54 384.03 1035.66 391.297C1031.01 397.911 1027.05 404.983 1023.84 412.404C1017.37 427.522 1012.08 443.117 1008.01 459.051C999.205 490.797 992.506 523.091 987.958 555.72C983.307 588.3 980.979 621.169 980.993 654.079C980.849 670.514 981.765 686.941 983.737 703.258C984.581 711.382 986.063 719.428 988.169 727.32C990.702 734.707 993.657 743.572 1001.89 746.316C993.235 744.628 988.592 735.763 985.637 728.164C982.581 720.374 980.25 712.32 978.671 704.102C975.616 687.651 973.712 671.006 972.972 654.29C971.569 620.799 973.123 587.25 977.616 554.032C982.511 520.973 990.064 488.363 1000.2 456.518C1005.38 440.593 1011.73 425.072 1019.2 410.082C1023.18 402.586 1027.92 395.514 1033.34 388.975C1038.27 381.957 1046.52 378.034 1055.08 378.633Z" fill="#37474f" fill-rule="nonzero" opacity="1" stroke="none" vectornator:layerName="path 33"/>
<path d="M1010.33 370.823C1100.88 386.232 1191.01 402.695 1281.13 419.369C1371.26 436.044 1461.39 453.563 1551.3 471.926L1555.95 471.926L1555.95 476.78L1553.84 491.344L1549.83 485.856L1705.59 517.517C1757.52 528.703 1809.44 538.624 1861.15 550.655L1862.84 550.655L1862.84 552.343L1857.35 585.903L1857.35 584.637L1908.64 595.824L1856.93 586.748L1855.88 586.748L1855.88 585.692L1860.1 552.132L1861.57 554.243C1809.23 545.167 1757.31 535.036 1705.17 525.326L1548.98 495.354L1544.34 495.354L1544.34 490.5L1546.45 475.936L1550.46 481.635C1460.33 464.538 1370.63 445.753 1280.5 427.812C1190.37 409.871 1099.83 390.664 1010.33 370.823Z" fill="#263238" fill-rule="nonzero" opacity="1" stroke="none" vectornator:layerName="path 34"/>
<path d="M2259.23 1337.31C2329.52 1345.96 2396.64 1231.78 2421.33 1148.4C2423.23 1142.07 2408.24 1081.92 2392.63 1007.83C2383.34 962.662 2374.05 912.428 2368.77 865.781L2084.68 969.205C2107.76 1025.56 2123.85 1084.54 2132.59 1144.82C2133.22 1151.27 2133.22 1157.78 2132.59 1164.23C2132.48 1165.29 2132.48 1166.35 2132.59 1167.4C2130.9 1204.34 2191.27 1329.08 2259.23 1337.31Z" fill="#f7a9a0" fill-rule="nonzero" opacity="1" stroke="none" vectornator:layerName="path 35"/>
<path d="M2132.8 1164.23L2132.8 1167.4C2142.82 1167.63 2152.84 1167.07 2162.77 1165.71C2321.07 1144.6 2348.93 947.254 2352.73 870.214L2083.83 968.15C2106.94 1024.57 2123.03 1083.62 2131.74 1143.97C2132.8 1150.67 2133.15 1157.46 2132.8 1164.23Z" fill="#263238" fill-rule="nonzero" opacity="1" stroke="none" vectornator:layerName="path 36"/>
<path d="M2484.23 485.856C2515.47 612.498 2447.93 918.971 2355.69 994.112C2221.66 1103.02 2011.86 1102.81 1921.94 944.088C1834.56 790.007 1924.68 402.484 2027.48 335.153C2177.76 236.161 2438.22 299.693 2484.23 485.856Z" fill="#f7a9a0" fill-rule="nonzero" opacity="1" stroke="none" vectornator:layerName="path 37"/>
<path d="M1942.63 512.24C1942.63 512.24 1933.55 586.748 1981.25 611.443C1985.05 613.342 2130.9 981.025 2394.95 960.974C2394.95 960.974 2599.9 742.517 2555.57 536.513C2526.65 403.117 2437.37 362.803 2437.37 362.803C2437.37 362.803 2256.49 190.359 2038.24 265.5C1819.99 340.641 1862.21 500.842 1942.63 512.24Z" fill="#263238" fill-rule="nonzero" opacity="1" stroke="none" vectornator:layerName="path 38"/>
<path d="M1851.02 2168.29L1789.6 2477.93L2948.58 2477.93C2948.58 2477.93 2826.37 1558.72 2519.69 1225.65C2366.24 1059.12 2185.99 1071.57 2071.38 1188.08C2042.25 1217.42 1771.45 1643.15 1734.93 1818.13C1703.27 1972.21 1851.02 2168.29 1851.02 2168.29Z" fill="#b2ff77" fill-rule="nonzero" opacity="1" stroke="none" vectornator:layerName="path 39"/>
<path d="M2980.67 2563.62L1743.59 2563.62L1770.39 2419.46L2963.36 2419.46L2980.67 2563.62Z" fill="#263238" fill-rule="nonzero" opacity="1" stroke="none" vectornator:layerName="polygon 6"/>
<path d="M2242.77 1241.91C2252.69 1236.84 2320.65 1241.91 2317.27 1231.35C2315.16 1225.02 2300.81 1157.69 2264.3 1120.12C2239.06 1099.27 2206.08 1090.27 2173.75 1095.43C2115.07 1103.02 1883.95 1496.46 1849.54 1631.33C1815.14 1766.2 1834.56 2180.11 1858.62 2245.96C1882.68 2311.82 1975.97 2516.34 2001.94 2503.05C2027.9 2489.75 2069.9 2411.65 2069.9 2396.25C2069.9 2380.84 1976.4 2190.88 1959.09 2149.72C1941.78 2108.56 1939.67 1715.76 1945.58 1650.33C1951.49 1584.9 2183.88 1145.87 2190.63 1139.54C2197.39 1133.21 2238.76 1243.81 2242.77 1241.91Z" fill="#263238" fill-rule="nonzero" opacity="1" stroke="none" vectornator:layerName="path 40"/>
<path d="M1038.4 2073.94C952.499 1955.74 982.048 1677.34 1062.25 1103.02C1073.23 1023.66 1639.11 1017.12 1632.14 1103.02C1622.64 1210.67 1562.91 1626.05 1554.68 1656.03C1485.03 1907.41 1096.87 2154.15 1038.4 2073.94Z" fill="#f7a9a0" fill-rule="nonzero" opacity="1" stroke="none" vectornator:layerName="path 41"/>
<path d="M1731.98 475.514C1700.79 457.527 1661.69 460.897 1634.04 483.957C1620.69 457.018 1598.27 435.645 1570.72 423.591C1521.75 404.172 1470.04 472.559 1470.04 472.559C1450.53 447.615 1423.99 429.089 1393.84 419.369C1345.3 405.65 1283.24 467.071 1283.24 467.071C1252.69 453.998 1218.45 452.349 1186.79 462.428C1103.41 492.611 1074.92 625.162 1056.13 709.168C1037.35 793.174 1062.25 1049.41 1062.04 1098.8L1600.69 1225.44C1600.69 1225.44 1792.56 872.536 1800.79 770.589C1808.81 684.051 1788.97 511.185 1731.98 475.514Z" fill="#f7a9a0" fill-rule="nonzero" opacity="1" stroke="none" vectornator:layerName="path 42"/>
<path d="M1635.94 485.223C1650.51 578.305 1635.94 670.753 1628.34 763.624C1628.6 764.326 1628.37 765.115 1627.77 765.564C1627.17 766.012 1626.35 766.012 1625.75 765.564C1625.15 765.115 1624.92 764.326 1625.18 763.624C1634.68 671.175 1625.18 578.094 1631.51 485.645C1631.71 484.636 1632.54 483.876 1633.57 483.779C1634.59 483.681 1635.56 484.269 1635.94 485.223Z" fill="#263238" fill-rule="nonzero" opacity="1" stroke="none" vectornator:layerName="path 43"/>
<path d="M1473 472.559C1474.11 493.777 1472.55 515.051 1468.35 535.88C1465.19 558.253 1461.6 580.838 1457.59 603.211C1449.71 648.098 1440.7 692.775 1430.57 737.24C1430.57 739.351 1426.98 739.14 1427.4 737.24C1435.28 692.493 1442.32 647.606 1448.51 602.578C1451.47 579.993 1454.21 557.409 1456.95 534.824C1457.99 513.409 1461.39 492.173 1467.09 471.504C1467.85 470.499 1469.12 470.008 1470.36 470.23C1471.61 470.452 1472.62 471.351 1473 472.559Z" fill="#263238" fill-rule="nonzero" opacity="1" stroke="none" vectornator:layerName="path 44"/>
<path d="M1283.67 468.971C1284.62 488.448 1282.19 507.944 1276.49 526.593C1272.48 547.7 1268.68 567.329 1264.88 587.803C1257.28 628.539 1249.68 669.487 1243.77 710.434C1243.77 712.545 1240.19 712.334 1240.4 710.434C1246.52 668.22 1252.01 626.006 1258.34 585.059C1261.5 563.952 1264.88 544.112 1268.26 523.638C1269.49 504.668 1274.14 486.077 1281.98 468.76L1283.67 468.971Z" fill="#263238" fill-rule="nonzero" opacity="1" stroke="none" vectornator:layerName="path 45"/>
<path d="M2122.25 1406.54C1828.44 1870.89 1555.74 2081.96 1229.63 2118.06C907.752 2154.15 1041.36 1892 1058.67 1864.77C1123.68 1763.25 1619.9 1361.16 1971.12 1184.07C2322.34 1006.99 2194.85 1291.72 2122.25 1406.54Z" fill="#f7a9a0" fill-rule="nonzero" opacity="1" stroke="none" vectornator:layerName="path 46"/>
<path d="M1591.19 1418.15L1483.13 1500.26C1447.03 1527.48 1410.94 1554.5 1375.27 1582.36C1339.6 1610.22 1303.72 1637.45 1268.47 1665.73C1233.22 1694.02 1198.39 1722.51 1165.26 1753.54C1195.93 1720.16 1228.71 1688.79 1263.4 1659.61C1297.6 1629.85 1333.27 1601.78 1368.94 1573.92C1404.61 1546.06 1441.34 1519.67 1478.27 1493.71C1515.21 1467.75 1552.99 1442.42 1591.19 1418.15Z" fill="#263238" fill-rule="nonzero" opacity="1" stroke="none" vectornator:layerName="path 47"/>
<path d="M3233.32 2940.81L2040.98 2940.81L2063.57 1384.59C2064.38 1331.78 2107.42 1289.39 2160.24 1289.4L3055.38 1289.4C3140.86 1289.39 3210.52 1358.01 3211.79 1443.48L3233.32 2940.81Z" fill="#263238" fill-rule="nonzero" opacity="1" stroke="none" vectornator:layerName="path 48"/>
<path d="M3233.32 2940.81L2053.86 2940.81C2037.04 2940.77 2020.98 2933.84 2009.41 2921.63C1997.84 2909.43 1991.78 2893.01 1992.65 2876.22L2060.82 1564.21L3209.46 1572.65L3233.32 2940.81Z" fill="#37474f" fill-rule="nonzero" opacity="1" stroke="none" vectornator:layerName="path 49"/>
<path d="M2307.56 2940.81L2323.18 1564.21C2323.18 1564.21 2325.29 1406.33 2284.77 1339.84C2260.92 1300.8 2106.42 1290.66 2082.99 1351.87C2059.56 1413.08 2061.88 1518.41 2061.88 1518.41L2063.78 1375.3C2064.47 1327.65 2103.3 1289.39 2150.95 1289.4L3069.74 1289.4C3150.36 1289.39 3216.1 1354.01 3217.49 1434.61L3223.4 1970.94C3236.94 1988.47 3247.56 2008.07 3254.84 2028.99C3270.46 2261.16 3278.91 2711.58 3281.65 2877.27C3281.65 2912.24 3253.3 2940.59 3218.33 2940.59L2307.56 2940.81Z" fill="#455a64" fill-rule="nonzero" opacity="1" stroke="none" vectornator:layerName="path 50"/>
<path d="M2318.33 1831.64C2318.33 1852.74 2318.33 1877.02 2335 1890.1C2353.2 1900.54 2374 1905.52 2394.95 1904.45C2437.16 1904.45 2480.64 1903.4 2523.49 1902.98L2780.78 1901.08L3038.29 1902.98L3167.04 1905.09C3177.27 1906.52 3187.68 1905.88 3197.64 1903.19C3206.69 1898.7 3213.15 1890.29 3215.16 1880.39C3220.01 1859.64 3222.42 1838.39 3222.34 1817.07C3224.13 1838.65 3223.06 1860.36 3219.17 1881.66C3217.31 1893.15 3210.21 1903.13 3199.97 1908.68C3194.69 1911.18 3188.92 1912.47 3183.08 1912.48L3167.04 1912.48L3038.29 1914.59L2780.78 1916.49L2523.49 1915.01C2481.27 1913.95 2437.79 1915.01 2394.53 1912.26C2372.36 1912.14 2350.72 1905.54 2332.26 1893.27C2324.04 1885.63 2319.05 1875.13 2318.33 1863.93C2317.49 1853.18 2317.49 1842.38 2318.33 1831.64Z" fill="#37474f" fill-rule="nonzero" opacity="1" stroke="none" vectornator:layerName="path 51"/>
<path d="M2696.99 1874.9L2876.82 1874.9L2876.82 1874.9L2876.82 1967.14L2876.82 1967.14L2696.99 1967.14L2696.99 1967.14L2696.99 1874.9L2696.99 1874.9Z" fill="#b2ff77" fill-rule="nonzero" opacity="1" stroke="none" vectornator:layerName="rect"/>
<path d="M2099.52 2150.5L2168.32 2151.68L2168.32 2151.68L2166.95 2230.82L2166.95 2230.82L2098.15 2229.64L2098.15 2229.64L2099.52 2150.5L2099.52 2150.5Z" fill="#dbdbdb" fill-rule="nonzero" opacity="1" stroke="none" vectornator:layerName="rect 1"/>
<path d="M2077.07 2203.5L2189.34 2205.44L2189.34 2205.44L2187.78 2295.97L2187.78 2295.97L2075.51 2294.03L2075.51 2294.03L2077.07 2203.5L2077.07 2203.5Z" fill="#c7c7c7" fill-rule="nonzero" opacity="1" stroke="none" vectornator:layerName="rect 2"/>
<path d="M2263.24 2408.91C2261.97 2491.02 2256.27 2823.03 2256.27 2823.03L1989.27 2818.39C1989.27 2818.39 1994.97 2486.37 1996.24 2404.48C1997.5 2322.58 2050.27 2260.11 2132.17 2261.58C2214.06 2263.06 2264.72 2327.02 2263.24 2408.91Z" fill="#b2ff77" fill-rule="nonzero" opacity="1" stroke="none" vectornator:layerName="path 52"/>
<path d="M2263.24 2408.91C2261.97 2491.02 2256.27 2823.03 2256.27 2823.03L1989.27 2818.39C1989.27 2818.39 1994.97 2486.37 1996.24 2404.48C1997.5 2322.58 2050.27 2260.11 2132.17 2261.58C2214.06 2263.06 2264.72 2327.02 2263.24 2408.91Z" fill="#000000" fill-rule="nonzero" opacity="0.1" stroke="none" vectornator:layerName="path 53"/>
<path d="M2117.39 2292.19C2117.39 2296.48 2114.8 2300.34 2110.83 2301.96C2106.86 2303.58 2102.3 2302.64 2099.3 2299.57C2096.3 2296.51 2095.45 2291.94 2097.15 2288C2098.85 2284.07 2102.76 2281.55 2107.05 2281.64C2109.83 2281.63 2112.49 2282.75 2114.44 2284.74C2116.38 2286.72 2117.45 2289.41 2117.39 2292.19Z" fill="#ffffff" fill-rule="nonzero" opacity="1" stroke="none" vectornator:layerName="path 54"/>
<path d="M2248.25 2388.01C2248.14 2393.72 2243.41 2398.26 2237.7 2398.14C2231.99 2398.02 2227.46 2393.3 2227.57 2387.59C2227.69 2381.88 2232.41 2377.35 2238.12 2377.46C2243.84 2377.58 2248.37 2382.3 2248.25 2388.01Z" fill="#ffffff" fill-rule="nonzero" opacity="1" stroke="none" vectornator:layerName="path 55"/>
<path d="M2130.06 2396.46C2130.05 2400.74 2127.46 2404.61 2123.49 2406.23C2119.52 2407.85 2114.97 2406.9 2111.96 2403.84C2108.96 2400.78 2108.11 2396.21 2109.81 2392.27C2111.51 2388.33 2115.43 2385.82 2119.71 2385.9C2122.49 2385.9 2125.16 2387.02 2127.1 2389.01C2129.05 2390.99 2130.11 2393.68 2130.06 2396.46Z" fill="#ffffff" fill-rule="nonzero" opacity="1" stroke="none" vectornator:layerName="path 56"/>
<path d="M2138.71 2496.08C2138.59 2501.79 2133.87 2506.33 2128.16 2506.21C2122.41 2506.1 2117.81 2501.41 2117.81 2495.66C2117.81 2489.83 2122.54 2485.11 2128.37 2485.11C2134.2 2485.11 2138.92 2489.83 2138.92 2495.66L2138.71 2496.08Z" fill="#ffffff" fill-rule="nonzero" opacity="1" stroke="none" vectornator:layerName="path 57"/>
<path d="M2029.38 2598.03C2029.26 2603.77 2024.57 2608.37 2018.82 2608.37C2016.04 2608.32 2013.4 2607.14 2011.49 2605.12C2009.59 2603.09 2008.58 2600.39 2008.69 2597.61C2008.69 2594.84 2009.81 2592.2 2011.81 2590.29C2013.8 2588.38 2016.48 2587.36 2019.24 2587.48C2024.96 2587.59 2029.49 2592.32 2029.38 2598.03Z" fill="#ffffff" fill-rule="nonzero" opacity="1" stroke="none" vectornator:layerName="path 58"/>
<path d="M2019.88 2506C2019.88 2511.83 2015.15 2516.56 2009.32 2516.56C2003.5 2516.56 1998.77 2511.83 1998.77 2506C1998.89 2500.26 2003.58 2495.66 2009.32 2495.66C2012.1 2495.6 2014.79 2496.67 2016.77 2498.61C2018.76 2500.56 2019.88 2503.22 2019.88 2506Z" fill="#ffffff" fill-rule="nonzero" opacity="1" stroke="none" vectornator:layerName="path 59"/>
<path d="M2024.94 2407.43C2024.94 2411.72 2022.35 2415.58 2018.38 2417.2C2014.41 2418.82 2009.85 2417.88 2006.85 2414.82C2003.85 2411.76 2003 2407.18 2004.7 2403.25C2006.4 2399.31 2010.31 2396.79 2014.6 2396.88C2020.3 2397.1 2024.84 2401.73 2024.94 2407.43Z" fill="#ffffff" fill-rule="nonzero" opacity="1" stroke="none" vectornator:layerName="path 60"/>
<path d="M2070.96 2348.33C2070.84 2354.08 2066.15 2358.68 2060.4 2358.68C2057.62 2358.62 2054.98 2357.45 2053.07 2355.42C2051.17 2353.4 2050.16 2350.69 2050.27 2347.91C2050.27 2342.08 2055 2337.36 2060.82 2337.36C2066.65 2337.36 2071.38 2342.08 2071.38 2347.91L2070.96 2348.33Z" fill="#ffffff" fill-rule="nonzero" opacity="1" stroke="none" vectornator:layerName="path 61"/>
<path d="M2079.61 2451.76C2079.49 2457.47 2074.77 2462 2069.06 2461.88C2063.35 2461.77 2058.81 2457.04 2058.93 2451.33C2059.05 2445.62 2063.77 2441.09 2069.48 2441.2C2072.24 2441.2 2074.88 2442.33 2076.8 2444.32C2078.71 2446.31 2079.72 2449 2079.61 2451.76Z" fill="#ffffff" fill-rule="nonzero" opacity="1" stroke="none" vectornator:layerName="path 62"/>
<path d="M2183.46 2341.16C2183.23 2346.94 2178.48 2351.5 2172.69 2351.5C2166.86 2351.5 2162.14 2346.77 2162.14 2340.95C2162.14 2335.12 2166.86 2330.39 2172.69 2330.39C2175.56 2330.33 2178.34 2331.45 2180.37 2333.48C2182.4 2335.51 2183.51 2338.28 2183.46 2341.16Z" fill="#ffffff" fill-rule="nonzero" opacity="1" stroke="none" vectornator:layerName="path 63"/>
<path d="M2194.22 2442.68C2194.22 2445.44 2193.1 2448.09 2191.11 2450C2189.11 2451.91 2186.43 2452.93 2183.67 2452.81C2177.92 2452.7 2173.32 2448.01 2173.32 2442.26C2173.38 2439.48 2174.55 2436.84 2176.58 2434.93C2178.6 2433.02 2181.31 2432.01 2184.09 2432.13C2186.85 2432.13 2189.49 2433.25 2191.41 2435.24C2193.32 2437.24 2194.34 2439.92 2194.22 2442.68Z" fill="#ffffff" fill-rule="nonzero" opacity="1" stroke="none" vectornator:layerName="path 64"/>
<path d="M2083.2 2548.22C2083.2 2554.04 2078.47 2558.77 2072.64 2558.77C2066.82 2558.77 2062.09 2554.04 2062.09 2548.22C2062.09 2542.39 2066.82 2537.66 2072.64 2537.66C2078.47 2537.66 2083.2 2542.39 2083.2 2548.22Z" fill="#ffffff" fill-rule="nonzero" opacity="1" stroke="none" vectornator:layerName="path 65"/>
<path d="M2194.22 2632.64C2194.11 2638.36 2189.38 2642.89 2183.67 2642.78C2177.92 2642.66 2173.32 2637.97 2173.32 2632.22C2173.32 2626.39 2178.05 2621.67 2183.88 2621.67C2189.71 2621.67 2194.43 2626.39 2194.43 2632.22L2194.22 2632.64Z" fill="#ffffff" fill-rule="nonzero" opacity="1" stroke="none" vectornator:layerName="path 66"/>
<path d="M2191.27 2710.95C2191.03 2716.63 2186.26 2721.06 2180.58 2720.86C2174.9 2720.67 2170.44 2715.93 2170.59 2710.25C2170.74 2704.57 2175.45 2700.08 2181.13 2700.19C2183.92 2700.24 2186.56 2701.41 2188.46 2703.44C2190.37 2705.46 2191.38 2708.17 2191.27 2710.95Z" fill="#ffffff" fill-rule="nonzero" opacity="1" stroke="none" vectornator:layerName="path 67"/>
<path d="M2088.26 2632.64C2088.15 2638.35 2083.42 2642.89 2077.71 2642.77C2072 2642.65 2067.47 2637.93 2067.58 2632.22C2067.7 2626.51 2072.42 2621.98 2078.13 2622.09C2080.89 2622.09 2083.54 2623.21 2085.45 2625.21C2087.36 2627.2 2088.38 2629.88 2088.26 2632.64Z" fill="#ffffff" fill-rule="nonzero" opacity="1" stroke="none" vectornator:layerName="path 68"/>
<path d="M2035.5 2753.59C2035.5 2759.42 2030.77 2764.14 2024.94 2764.14C2019.11 2764.14 2014.39 2759.42 2014.39 2753.59C2014.5 2747.84 2019.2 2743.24 2024.94 2743.24C2027.72 2743.19 2030.41 2744.25 2032.39 2746.2C2034.38 2748.14 2035.5 2750.81 2035.5 2753.59Z" fill="#ffffff" fill-rule="nonzero" opacity="1" stroke="none" vectornator:layerName="path 69"/>
<path d="M2142.93 2586.84C2142.81 2592.55 2138.09 2597.09 2132.38 2596.97C2126.67 2596.85 2122.13 2592.13 2122.25 2586.42C2122.37 2580.71 2127.09 2576.17 2132.8 2576.29C2135.56 2576.29 2138.2 2577.41 2140.12 2579.4C2142.03 2581.4 2143.05 2584.08 2142.93 2586.84Z" fill="#ffffff" fill-rule="nonzero" opacity="1" stroke="none" vectornator:layerName="path 70"/>
<path d="M2142.72 2671.27C2142.72 2677.1 2137.99 2681.82 2132.17 2681.82C2126.34 2681.82 2121.61 2677.1 2121.61 2671.27C2121.61 2665.44 2126.34 2660.72 2132.17 2660.72C2137.99 2660.72 2142.72 2665.44 2142.72 2671.27Z" fill="#ffffff" fill-rule="nonzero" opacity="1" stroke="none" vectornator:layerName="path 71"/>
<path d="M2141.45 2755.49C2141.23 2761.27 2136.47 2765.83 2130.69 2765.83C2124.86 2765.71 2120.23 2760.89 2120.35 2755.07C2120.47 2749.24 2125.29 2744.61 2131.11 2744.73C2136.94 2744.84 2141.57 2749.66 2141.45 2755.49Z" fill="#ffffff" fill-rule="nonzero" opacity="1" stroke="none" vectornator:layerName="path 72"/>
<path d="M2193.59 2795.38C2193.47 2801.12 2188.78 2805.72 2183.03 2805.72C2180.25 2805.67 2177.61 2804.49 2175.7 2802.47C2173.8 2800.44 2172.79 2797.74 2172.9 2794.96C2172.9 2792.19 2174.03 2789.55 2176.02 2787.64C2178.01 2785.73 2180.7 2784.71 2183.46 2784.83C2189.17 2784.94 2193.71 2789.67 2193.59 2795.38Z" fill="#ffffff" fill-rule="nonzero" opacity="1" stroke="none" vectornator:layerName="path 73"/>
<path d="M2035.71 2674.86C2035.71 2679.15 2033.11 2683.01 2029.14 2684.63C2025.17 2686.25 2020.62 2685.3 2017.62 2682.24C2014.62 2679.18 2013.77 2674.61 2015.47 2670.67C2017.17 2666.73 2021.08 2664.22 2025.36 2664.3C2028.14 2664.3 2030.81 2665.42 2032.75 2667.41C2034.7 2669.39 2035.76 2672.08 2035.71 2674.86Z" fill="#ffffff" fill-rule="nonzero" opacity="1" stroke="none" vectornator:layerName="path 74"/>
<path d="M2087 2712.64C2086.88 2718.39 2082.19 2722.98 2076.44 2722.98C2070.74 2722.76 2066.21 2718.13 2066.1 2712.43C2066.1 2706.6 2070.83 2701.87 2076.65 2701.87C2082.48 2701.87 2087.21 2706.6 2087.21 2712.43L2087 2712.64Z" fill="#ffffff" fill-rule="nonzero" opacity="1" stroke="none" vectornator:layerName="path 75"/>
<path d="M2243.82 2757.18C2243.71 2762.92 2239.02 2767.52 2233.27 2767.52C2227.44 2767.52 2222.71 2762.79 2222.71 2756.96C2222.71 2751.14 2227.44 2746.41 2233.27 2746.41C2236.1 2746.41 2238.82 2747.55 2240.81 2749.58C2242.79 2751.6 2243.88 2754.34 2243.82 2757.18Z" fill="#ffffff" fill-rule="nonzero" opacity="1" stroke="none" vectornator:layerName="path 76"/>
<path d="M2087.84 2794.53C2087.84 2800.36 2083.12 2805.09 2077.29 2805.09C2071.46 2805.09 2066.73 2800.36 2066.73 2794.53C2066.85 2788.79 2071.54 2784.19 2077.29 2784.19C2080.07 2784.14 2082.75 2785.2 2084.74 2787.15C2086.72 2789.09 2087.84 2791.75 2087.84 2794.53Z" fill="#ffffff" fill-rule="nonzero" opacity="1" stroke="none" vectornator:layerName="path 77"/>
<path d="M2248.25 2591.49C2248.25 2595.77 2245.66 2599.63 2241.69 2601.25C2237.72 2602.87 2233.16 2601.93 2230.16 2598.87C2227.16 2595.81 2226.31 2591.23 2228.01 2587.3C2229.71 2583.36 2233.63 2580.85 2237.91 2580.93C2240.69 2580.93 2243.35 2582.05 2245.3 2584.04C2247.25 2586.02 2248.31 2588.71 2248.25 2591.49Z" fill="#ffffff" fill-rule="nonzero" opacity="1" stroke="none" vectornator:layerName="path 78"/>
<path d="M2246.78 2673.17C2246.78 2679 2242.05 2683.72 2236.22 2683.72C2230.39 2683.72 2225.67 2679 2225.67 2673.17C2225.78 2667.42 2230.48 2662.83 2236.22 2662.83C2239 2662.77 2241.69 2663.83 2243.67 2665.78C2245.66 2667.73 2246.78 2670.39 2246.78 2673.17Z" fill="#ffffff" fill-rule="nonzero" opacity="1" stroke="none" vectornator:layerName="path 79"/>
<path d="M2197.81 2548.22C2197.69 2553.96 2193 2558.56 2187.26 2558.56C2181.43 2558.56 2176.7 2553.83 2176.7 2548.01C2176.7 2542.18 2181.43 2537.45 2187.26 2537.45C2190.13 2537.33 2192.92 2538.43 2194.93 2540.48C2196.95 2542.53 2197.99 2545.35 2197.81 2548.22Z" fill="#ffffff" fill-rule="nonzero" opacity="1" stroke="none" vectornator:layerName="path 80"/>
<path d="M2255.01 2496.5C2255.01 2499.27 2253.89 2501.91 2251.89 2503.82C2249.9 2505.73 2247.21 2506.75 2244.45 2506.64C2241.69 2506.64 2239.05 2505.51 2237.14 2503.52C2235.22 2501.53 2234.21 2498.84 2234.32 2496.08C2234.32 2490.25 2239.05 2485.53 2244.88 2485.53C2250.71 2485.53 2255.43 2490.25 2255.43 2496.08L2255.01 2496.5Z" fill="#ffffff" fill-rule="nonzero" opacity="1" stroke="none" vectornator:layerName="path 81"/>
<path d="M1965.42 2834.85C2025.15 2917.8 2270.21 2904.08 2285.82 2871.57C2292.37 2857.86 2285.82 2518.24 2285.82 2518.24C2285.82 2518.24 2074.76 2537.87 1960.57 2497.14C1959.72 2496.29 1946.85 2808.89 1965.42 2834.85Z" fill="#455a64" fill-rule="nonzero" opacity="1" stroke="none" vectornator:layerName="path 82"/>
<path d="M3052.22 1307.34L2221.87 1307.34C2186.03 1307.39 2151.63 1293.18 2126.29 1267.84C2100.94 1242.49 2086.73 1208.1 2086.79 1172.25L2086.79 1145.45C2086.73 1109.6 2100.94 1075.21 2126.29 1049.87C2151.63 1024.52 2186.03 1010.31 2221.87 1010.36L3048.21 1010.36C3115.11 1010.26 3171.97 1059.22 3181.81 1125.4L3185.82 1152.2C3191.66 1191.1 3180.26 1230.61 3154.59 1260.41C3128.93 1290.21 3091.55 1307.34 3052.22 1307.34Z" fill="#b2ff77" fill-rule="nonzero" opacity="1" stroke="none" vectornator:layerName="path 83"/>
<path d="M3052.22 1307.34L2221.87 1307.34C2186.03 1307.39 2151.63 1293.18 2126.29 1267.84C2100.94 1242.49 2086.73 1208.1 2086.79 1172.25L2086.79 1145.45C2086.73 1109.6 2100.94 1075.21 2126.29 1049.87C2151.63 1024.52 2186.03 1010.31 2221.87 1010.36L3048.21 1010.36C3115.11 1010.26 3171.97 1059.22 3181.81 1125.4L3185.82 1152.2C3191.66 1191.1 3180.26 1230.61 3154.59 1260.41C3128.93 1290.21 3091.55 1307.34 3052.22 1307.34Z" fill="#000000" fill-rule="nonzero" opacity="0.3" stroke="none" vectornator:layerName="path 84"/>
<path d="M2112.96 1157.06C2112.96 1097.02 2146.32 1048.36 2187.47 1048.36C2228.62 1048.36 2261.97 1097.02 2261.97 1157.06C2261.97 1217.09 2228.62 1265.76 2187.47 1265.76C2146.32 1265.76 2112.96 1217.09 2112.96 1157.06Z" fill="#000000" fill-rule="nonzero" opacity="0.1" stroke="none" vectornator:layerName="ellipse"/>
<path d="M2391.78 880.767C2472.2 904.618 2628.18 1057.85 2637.04 1187.45C2645.91 1317.05 2554.94 1469.23 2514.84 1466.7C2474.73 1464.16 2344.71 1377.2 2279.7 1273.57C2214.69 1169.93 2352.1 870.003 2391.78 880.767Z" fill="#263238" fill-rule="nonzero" opacity="1" stroke="none" vectornator:layerName="path 85"/>
<path d="M2391.36 882.034C2389.25 880.134 2391.36 875.913 2393.89 877.39C2457.21 910.528 2512.94 968.994 2562.75 1019.23C2606.12 1057.84 2640.86 1105.16 2664.69 1158.11C2685.24 1210.49 2681.93 1269.22 2655.62 1318.95C2626.78 1380 2582.83 1432.67 2527.92 1471.97C2526.23 1471.97 2523.7 1471.97 2525.18 1469.44C2611.93 1380.79 2707.96 1267.24 2643.38 1138.48C2589.76 1028.52 2480.22 959.707 2391.36 882.034Z" fill="#263238" fill-rule="nonzero" opacity="1" stroke="none" vectornator:layerName="path 86"/>
<path d="M2519.48 1434.61C2577.73 1476.83 2674.61 1686.84 2635.99 1821.08C2597.36 1955.32 2403.81 2078.16 2365.4 2074.37C2326.98 2070.57 2252.26 1879.13 2253.53 1770.21C2253.53 1697.61 2314.53 1645.26 2364.13 1587.85C2437.37 1502.58 2510.4 1428.07 2519.48 1434.61Z" fill="#263238" fill-rule="nonzero" opacity="1" stroke="none" vectornator:layerName="path 87"/>
<path d="M2224.4 1734.12C2272.95 1602.41 2408.24 1520.1 2510.4 1433.35C2511.46 1432.29 2512.94 1433.35 2512.09 1435.04C2430.83 1527.7 2315.16 1587.01 2252.69 1696.34C2212.64 1759.54 2205.79 1838.25 2234.32 1907.41C2261.76 1967.99 2311.79 2016.11 2355.27 2065.29C2358.01 2068.46 2352.73 2072.47 2349.99 2069.3C2261.55 1974.74 2174.17 1870.05 2224.4 1734.12Z" fill="#263238" fill-rule="nonzero" opacity="1" stroke="none" vectornator:layerName="path 88"/>
<path d="M2526.44 1453.4C2524.12 1450.02 2528.98 1446.22 2531.3 1449.6C2597.15 1540.99 2670.39 1661.94 2668.28 1778.66C2665.75 1905.3 2557.26 1978.75 2462.49 2041.65C2462.02 2042 2461.36 2041.9 2461.01 2041.44C2460.66 2040.97 2460.76 2040.31 2461.22 2039.96C2555.99 1975.37 2665.54 1890.73 2659.42 1762.83C2654.56 1652.86 2588.08 1540.99 2526.44 1453.4Z" fill="#263238" fill-rule="nonzero" opacity="1" stroke="none" vectornator:layerName="path 89"/>
<path d="M2360.12 2066.77C2306.3 2069.72 2209.21 2116.16 2155.59 2197.42C2063.57 2336.51 2020.3 2281.85 1838.99 2248.5C1685.33 2220.43 1585.71 2362.26 1626.44 2471.81C1626.44 2471.81 1626.44 2357.2 1740.42 2351.92C1876.98 2345.8 2080.03 2576.71 2277.59 2475.82C2532.78 2345.38 2360.12 2066.77 2360.12 2066.77Z" fill="#263238" fill-rule="nonzero" opacity="1" stroke="none" vectornator:layerName="path 90"/>
<path d="M2270.21 2109.82C2272.95 2108.56 2270.21 2103.92 2268.09 2104.97C2240.82 2115.45 2215.65 2130.75 2193.8 2150.14C2165.73 2175.68 2149.68 2209.87 2123.51 2236.89C2057.03 2305.91 1958.88 2258 1884.58 2231.82C1784.75 2195.52 1680.69 2219.79 1629.4 2318.99C1629.4 2320.26 1630.88 2321.53 1631.72 2320.05C1664.55 2258.05 1729.16 2219.48 1799.31 2220C1866.43 2221.27 1924.47 2262.22 1989.27 2274.25C2033.81 2282.48 2081.3 2283.32 2117.39 2253.14C2135.69 2234.66 2151.96 2214.29 2165.94 2192.35C2193.08 2156.4 2228.98 2127.99 2270.21 2109.82Z" fill="#263238" fill-rule="nonzero" opacity="1" stroke="none" vectornator:layerName="path 91"/>
<path d="M2377.43 2096.32C2377.43 2095.26 2374.9 2096.32 2375.32 2096.32C2405.92 2174.83 2439.69 2254.83 2420.28 2340.95C2399.17 2433.39 2317.49 2499.04 2227.78 2520.57C2127.31 2544.84 2058.92 2481.52 1982.94 2427.91C1927.85 2389.07 1869.38 2354.45 1800.79 2348.76C1798.68 2348.76 1798.25 2351.92 1800.79 2352.34C1906.32 2373.45 1981.04 2440.36 2068.21 2497.35C2139.34 2543.99 2211.53 2544.21 2287.51 2506.64C2454.47 2424.74 2454.68 2244.91 2377.43 2096.32Z" fill="#263238" fill-rule="nonzero" opacity="1" stroke="none" vectornator:layerName="path 92"/>
<path d="M2455.1 865.57C2465.94 861.199 2478.28 866.444 2482.65 877.285C2487.02 888.126 2481.77 900.458 2470.93 904.829C2460.09 909.201 2447.76 903.956 2443.39 893.115C2439.02 882.274 2444.26 869.942 2455.1 865.57Z" fill="#b2ff77" fill-rule="nonzero" opacity="1" stroke="none" vectornator:layerName="path 93"/>
<path d="M2423.23 888.788C2434.07 884.358 2446.45 889.556 2450.88 900.397C2455.31 911.238 2450.11 923.617 2439.27 928.047C2428.43 932.477 2416.05 927.279 2411.62 916.438C2407.19 905.597 2412.39 893.218 2423.23 888.788Z" fill="#b2ff77" fill-rule="nonzero" opacity="1" stroke="none" vectornator:layerName="path 94"/>
<path d="M2387.77 906.729C2398.61 902.358 2410.94 907.602 2415.32 918.443C2419.69 929.284 2414.44 941.616 2403.6 945.988C2392.76 950.359 2380.43 945.115 2376.06 934.273C2371.69 923.432 2376.93 911.1 2387.77 906.729Z" fill="#b2ff77" fill-rule="nonzero" opacity="1" stroke="none" vectornator:layerName="path 95"/>
<path d="M2351.05 919.182C2361.89 914.752 2374.27 919.95 2378.7 930.791C2383.12 941.632 2377.93 954.011 2367.09 958.441C2356.25 962.871 2343.87 957.673 2339.44 946.832C2335.01 935.991 2340.2 923.612 2351.05 919.182Z" fill="#b2ff77" fill-rule="nonzero" opacity="1" stroke="none" vectornator:layerName="path 96"/>
<path d="M2312 925.514C2322.84 921.084 2335.22 926.282 2339.65 937.123C2344.08 947.964 2338.88 960.343 2328.04 964.773C2317.2 969.203 2304.82 964.005 2300.39 953.164C2295.96 942.323 2301.16 929.944 2312 925.514Z" fill="#b2ff77" fill-rule="nonzero" opacity="1" stroke="none" vectornator:layerName="path 97"/>
<path d="M2273.16 924.459C2284 920.087 2296.33 925.332 2300.7 936.173C2305.08 947.014 2299.83 959.346 2288.99 963.718C2278.15 968.089 2265.82 962.844 2261.45 952.003C2257.07 941.162 2262.32 928.83 2273.16 924.459Z" fill="#b2ff77" fill-rule="nonzero" opacity="1" stroke="none" vectornator:layerName="path 98"/>
</g>
</svg>
