<?xml version="1.0" encoding="UTF-8" standalone="no"?>
<!DOCTYPE svg PUBLIC "-//W3C//DTD SVG 1.1//EN" "http://www.w3.org/Graphics/SVG/1.1/DTD/svg11.dtd">
<!-- Created with Vectornator (http://vectornator.io/) -->
<svg height="100%" stroke-miterlimit="10" style="fill-rule:nonzero;clip-rule:evenodd;stroke-linecap:round;stroke-linejoin:round;" version="1.1" viewBox="0 0 1881.86 1653.47" width="100%" xml:space="preserve" xmlns="http://www.w3.org/2000/svg" xmlns:vectornator="http://vectornator.io" xmlns:xlink="http://www.w3.org/1999/xlink">
<defs/>
<clipPath id="ArtboardFrame">
<rect height="1653.47" width="1881.86" x="0" y="0"/>
</clipPath>
<g clip-path="url(#ArtboardFrame)" id="Layer-1" vectornator:layerName="Layer 1">
<path d="M1551.58 536.529C1551.58 536.529 1617.49 476.6 1594.98 432.642C1563.29 371.344 1431.01 418.648 1403.18 312.834C1382.19 232.828 1449.11 168.183 1398.51 106.074C1364.54 64.1441 1214.47 75.6533 1214.47 75.6533C1311.16 0.158965 1451.65-30.8196 1535.71 39.1483C1611.26 101.815 1577.14 197.286 1609.84 244.844C1656.23 312.277 1762.65 314.508 1760.78 403.336C1758.6 506.26 1624.69 531.155 1615.47 544.185L1551.58 536.529Z" fill="#92e3a9" fill-rule="nonzero" opacity="0.5" stroke="none" vectornator:layerName="path"/>
<path d="M1769.29 426.203L1750.18 429.752L1745.87 449.931L1741.61 429.752L1722.45 426.203L1741.51 421.538L1745.87 402.424L1750.23 421.538L1769.29 426.203Z" fill="#ffffff" fill-rule="nonzero" opacity="1" stroke="none" vectornator:layerName="polygon"/>
<path d="M1537.03 296.357L1517.87 299.906L1513.61 320.085L1509.35 299.906L1490.18 296.357L1509.25 291.692L1513.61 272.628L1517.97 291.692L1537.03 296.357Z" fill="#ffffff" fill-rule="nonzero" opacity="1" stroke="none" vectornator:layerName="polygon 1"/>
<path d="M1581.09 235.464L1570.39 237.441L1567.96 248.748L1565.58 237.441L1554.88 235.464L1565.53 232.828L1567.96 222.18L1570.44 232.828L1581.09 235.464Z" fill="#ffffff" fill-rule="nonzero" opacity="1" stroke="none" vectornator:layerName="polygon 2"/>
<path d="M1429.65 183.952L1418.95 185.929L1416.56 197.185L1414.13 185.929L1403.43 183.952L1414.08 181.315L1416.56 170.668L1419 181.315L1429.65 183.952Z" fill="#ffffff" fill-rule="nonzero" opacity="1" stroke="none" vectornator:layerName="polygon 3"/>
<path d="M1653.09 497.337L1642.39 499.314L1639.95 510.621L1637.57 499.314L1626.87 497.337L1637.52 494.751L1639.95 484.053L1642.44 494.751L1653.09 497.337Z" fill="#ffffff" fill-rule="nonzero" opacity="1" stroke="none" vectornator:layerName="polygon 4"/>
<path d="M1510.36 14.4061L1499.66 16.3834L1497.23 27.6898L1494.85 16.3834L1484.15 14.4061L1494.8 11.8203L1497.23 1.17299L1499.66 11.8203L1510.36 14.4061Z" fill="#ffffff" fill-rule="nonzero" opacity="1" stroke="none" vectornator:layerName="polygon 5"/>
<path d="M1702.62 380.572C1701.05 380.772 1699.88 382.108 1699.88 383.69C1699.88 385.272 1701.05 386.607 1702.62 386.808C1704.19 386.607 1705.37 385.272 1705.37 383.69C1705.37 382.108 1704.19 380.772 1702.62 380.572Z" fill="#ffffff" fill-rule="nonzero" opacity="1" stroke="none" vectornator:layerName="path 1"/>
<path d="M1342.08 11.3133C1340.51 11.5138 1339.34 12.8493 1339.34 14.4314C1339.34 16.0135 1340.51 17.349 1342.08 17.5495C1343.65 17.349 1344.83 16.0135 1344.83 14.4314C1344.83 12.8493 1343.65 11.5138 1342.08 11.3133Z" fill="#ffffff" fill-rule="nonzero" opacity="1" stroke="none" vectornator:layerName="path 2"/>
<path d="M1438.32 107.24C1436.61 107.24 1435.22 108.625 1435.22 110.333C1435.22 112.041 1436.61 113.426 1438.32 113.426C1440.02 113.426 1441.41 112.041 1441.41 110.333C1441.41 108.625 1440.02 107.24 1438.32 107.24Z" fill="#ffffff" fill-rule="nonzero" opacity="1" stroke="none" vectornator:layerName="path 3"/>
<path d="M1283.78 50.3026C1282.57 50.3026 1281.6 51.2787 1281.6 52.4828C1281.6 53.6869 1282.57 54.663 1283.78 54.663C1284.98 54.663 1285.96 53.6869 1285.96 52.4828C1285.96 51.2787 1284.98 50.3026 1283.78 50.3026Z" fill="#ffffff" fill-rule="nonzero" opacity="1" stroke="none" vectornator:layerName="path 4"/>
<path d="M1581.65 363.029C1580.56 363.195 1579.75 364.132 1579.75 365.234C1579.75 366.337 1580.56 367.274 1581.65 367.44C1582.74 367.274 1583.54 366.337 1583.54 365.234C1583.54 364.132 1582.74 363.195 1581.65 363.029Z" fill="#ffffff" fill-rule="nonzero" opacity="1" stroke="none" vectornator:layerName="path 5"/>
<path d="M1412.41 294.176C1411.2 294.176 1410.23 295.152 1410.23 296.357C1410.23 297.561 1411.2 298.537 1412.41 298.537C1413.61 298.537 1414.59 297.561 1414.59 296.357C1414.59 295.152 1413.61 294.176 1412.41 294.176Z" fill="#ffffff" fill-rule="nonzero" opacity="1" stroke="none" vectornator:layerName="path 6"/>
<path d="M1714.23 333.571C1711.15 333.856 1708.8 336.438 1708.8 339.529C1708.8 342.62 1711.15 345.202 1714.23 345.486C1717.31 345.202 1719.66 342.62 1719.66 339.529C1719.66 336.438 1717.31 333.856 1714.23 333.571Z" fill="#ffffff" fill-rule="nonzero" opacity="1" stroke="none" vectornator:layerName="path 7"/>
<path d="M1470.21 327.639C1467.13 327.924 1464.77 330.506 1464.77 333.597C1464.77 336.688 1467.13 339.27 1470.21 339.554C1473.28 339.27 1475.64 336.688 1475.64 333.597C1475.64 330.506 1473.28 327.924 1470.21 327.639Z" fill="#ffffff" fill-rule="nonzero" opacity="1" stroke="none" vectornator:layerName="path 8"/>
<path d="M769.615 1161.68C795.366 1177.92 822.804 1191.31 851.447 1201.63C805.308 1139.06 805.815 992.487 811.95 1013.07C841.509 1111.53 917.054 1217.25 944.281 1221.25C944.281 1221.25 944.585 1221.25 944.737 1221.25C1017.6 1225.97 1082.64 1205.38 1136.54 1175.62C1136.58 1175.52 1136.58 1175.41 1136.54 1175.32C1077.17 1104.89 1073.32 955.982 1077.47 964.854C1122.65 1059.82 1209.96 1112.24 1224.51 1111.38L1224.51 1111.38C1277.03 1062.61 1303.96 1015.05 1296 1010.94C1238.04 979.811 1186.28 894.734 1138.82 804.384L1138.82 804.384C1092.08 715.353 1060.89 580.69 996.858 502.306C938.501 430.563 827.566 421.995 766.725 463.164C607.624 571.158 733.617 1139.27 769.615 1161.68Z" fill="#263238" fill-rule="nonzero" opacity="1" stroke="none" vectornator:layerName="path 9"/>
<path d="M778.031 456.421C764.495 463.307 752.518 472.903 742.844 484.611C733.286 495.772 724.799 507.808 717.494 520.558C703.908 545.769 693.275 572.462 685.805 600.109C670.443 654.663 672.065 760.122 673.13 815.894C675.209 871.728 682.663 927.232 695.388 981.637C698.328 995.275 702.232 1008.71 705.528 1022.2L717.189 1062.51L730.524 1102.31L745.227 1141.7L733.262 1101.6L722.259 1061.03L712.119 1020.47C709.229 1006.89 705.832 993.45 703.348 979.913C691.947 925.721 685.314 870.635 683.524 815.285C681.496 760.122 680.177 655.576 693.664 601.376C700.216 574.044 709.807 547.531 722.259 522.333C728.747 509.515 736.437 497.343 745.227 485.98C749.805 480.241 754.786 474.836 760.133 469.806C765.451 464.537 771.474 460.032 778.031 456.421Z" fill="#263238" fill-rule="nonzero" opacity="1" stroke="none" vectornator:layerName="path 10"/>
<path d="M1302.23 995.478C1284.35 977.801 1267.43 959.184 1251.53 939.707C1235.46 920.592 1220.25 900.971 1206.15 880.69C1192.06 860.41 1178.62 839.825 1166.71 818.53C1154.79 797.236 1143.69 775.333 1132.13 753.734C1108.45 710.688 1078.99 618.564 1052.48 576.735C1039.09 555.897 1025.25 535.261 1009.89 515.488C1002.08 505.564 993.713 496.085 984.842 487.095C976.055 477.506 965.389 469.826 953.509 464.533C964.7 470.654 974.613 478.864 982.713 488.718C990.903 498.046 998.539 507.849 1005.58 518.074C1019.93 538.354 1032.91 559.091 1045.33 580.234C1070.27 622.569 1099.73 714.491 1122.6 757.689C1134.51 779.186 1145.82 800.835 1158.09 822.282C1170.51 843.853 1184.26 864.63 1199.26 884.493C1229.46 925.112 1263.99 962.326 1302.23 995.478Z" fill="#263238" fill-rule="nonzero" opacity="1" stroke="none" vectornator:layerName="path 11"/>
<path d="M886.583 985.338C985.095 1079.24 1167.92 1219.78 1243.77 1241.63C1328.09 1265.92 1495.81 1061.69 1606.04 936.817C1627.94 911.973 1445.77 729.803 1423.51 757.486C1366.17 829.887 1250.67 993.349 1229.88 994.211C1212.85 995.072 1050.04 936.411 958.528 902.238C812.863 847.886 817.274 919.223 886.583 985.338Z" fill="#d3766a" fill-rule="nonzero" opacity="1" stroke="none" vectornator:layerName="path 12"/>
<path d="M1379.55 802.965L1561.32 1019.71C1561.32 1019.71 1354.3 1251.32 1270.85 1252.28C1187.39 1253.24 959.745 1067.98 886.836 990.814C813.928 913.646 823.003 856.86 933.583 892.098C1044.16 927.335 1215.43 985.135 1230.79 981.535C1246.16 977.935 1379.55 802.965 1379.55 802.965Z" fill="#ebebeb" fill-rule="nonzero" opacity="1" stroke="none" vectornator:layerName="path 13"/>
<path d="M1497.99 1068.49C1436.59 971.496 1357.35 878.916 1344.67 861.778C1344.06 860.967 1342.84 861.778 1343.5 862.793C1356.79 878.966 1435.88 994.616 1496.67 1069.65C1497.59 1070.52 1498.8 1069.4 1497.99 1068.49Z" fill="#263238" fill-rule="nonzero" opacity="1" stroke="none" vectornator:layerName="path 14"/>
<path d="M1343.71 1221.76C1316.28 1240.01 1290.72 1252.18 1270.85 1252.18C1187.39 1253.19 959.694 1067.88 886.836 990.763C855.655 957.706 839.481 928.451 839.836 908.424C960.556 983.969 1241.9 1158.69 1343.71 1221.76Z" fill="#c7c7c7" fill-rule="nonzero" opacity="1" stroke="none" vectornator:layerName="path 15"/>
<path d="M1544.79 1006.68L1382.54 810.976C1384.88 805.348 1397.75 792.013 1409.11 773.659C1409.11 773.659 1434.21 708.305 1434.46 644.574C1434.46 591.084 1428.78 511.584 1457.53 510.621C1499.51 509.1 1518.98 608.677 1526.69 666.527C1552.04 647.464 1575.67 633.419 1592.6 630.276C1648.37 619.831 1726.4 862.336 1688.93 905.99C1652.38 948.072 1576.07 1002.93 1544.79 1006.68Z" fill="#d3766a" fill-rule="nonzero" opacity="1" stroke="none" vectornator:layerName="path 16"/>
<g opacity="0.7" vectornator:layerName="g">
<path d="M1709.67 1029.7C1698.79 1122.68 1618.69 1191.95 1525.12 1189.32C1431.54 1186.69 1355.47 1113.03 1349.82 1019.59C1344.18 926.143 1410.84 843.862 1503.42 829.989L1534.39 563.654L1519.89 561.981L1523.19 533.487L1646.19 547.835L1642.9 576.33L1628.34 574.656L1597.31 841.244C1672.99 871.521 1719.02 948.729 1709.67 1029.7Z" fill="#ffffff" fill-rule="nonzero" opacity="1" stroke="none" vectornator:layerName="path"/>
<path d="M1709.67 1029.7C1705.75 1063.17 1692.6 1094.89 1671.69 1121.32L1667.84 1126.39C1666.47 1128.01 1665 1129.48 1663.53 1131C1660.64 1134.04 1657.85 1137.19 1654.86 1140.08C1648.74 1145.82 1642.25 1151.15 1635.44 1156.05C1628.62 1160.94 1621.51 1165.41 1614.15 1169.43C1610.4 1171.31 1606.54 1172.98 1602.74 1174.76C1600.81 1175.62 1598.94 1176.58 1597.01 1177.34L1591.03 1179.42C1575.22 1185.12 1558.67 1188.54 1541.9 1189.56L1529.32 1190.02C1525.12 1190.02 1520.96 1189.61 1516.75 1189.41C1508.36 1188.83 1500.01 1187.71 1491.75 1186.06C1458.67 1178.89 1428.23 1162.65 1403.84 1139.17L1399.22 1134.81L1395.07 1130.09C1392.33 1126.9 1389.39 1123.85 1386.8 1120.51C1381.67 1113.93 1376.98 1107.02 1372.76 1099.82C1368.51 1092.55 1364.73 1085.02 1361.45 1077.26C1359.93 1073.3 1358.61 1069.3 1357.19 1065.34C1356.53 1063.37 1355.77 1061.39 1355.16 1059.36L1353.69 1053.23C1336.56 985.945 1359.08 914.767 1411.8 869.586C1437.79 847.51 1469.37 833.036 1503.06 827.758L1501.13 829.735C1506.2 785.321 1511.27 740.906 1516.34 696.543L1532.26 563.451L1534.04 565.682L1519.54 563.958L1517.56 563.958L1517.56 561.981L1520.96 533.436L1520.96 531.56L1522.89 531.56L1645.84 546.264L1647.36 546.264L1647.36 547.785L1643.96 576.33L1643.96 577.8L1642.49 577.8L1627.94 576.076L1629.51 574.859L1597.97 841.244L1597.57 840.535C1673.34 871.152 1719.26 948.691 1709.67 1029.85L1709.67 1029.7ZM1709.67 1029.7C1718.88 948.786 1672.74 871.73 1597.06 841.65L1596.55 841.65L1596.55 841.143L1626.98 574.707L1626.98 573.288L1628.39 573.288L1643 574.91L1641.32 576.228L1644.57 547.683L1645.94 549.407L1522.89 535.414L1525.01 533.74L1521.77 562.285L1520.05 560.054L1534.55 561.677L1536.57 561.93L1536.32 563.958L1521.11 697.151C1516.04 741.565 1510.72 785.929 1505.44 830.344L1505.44 832.017L1503.72 832.321C1470.81 837.367 1439.93 851.403 1414.49 872.882C1362.51 916.845 1340 986.505 1356.43 1052.57L1357.85 1058.6C1358.41 1060.63 1359.17 1062.56 1359.83 1064.53C1361.2 1068.44 1362.47 1072.39 1363.94 1076.3C1367.12 1083.97 1370.81 1091.42 1374.99 1098.6C1379.09 1105.84 1383.68 1112.79 1388.73 1119.39C1391.26 1122.69 1394.1 1125.73 1396.79 1128.87L1400.9 1133.59L1405.41 1137.9C1429.4 1161.26 1459.42 1177.49 1492.11 1184.75C1500.27 1186.42 1508.54 1187.58 1516.85 1188.19C1521.01 1188.19 1525.17 1188.9 1529.32 1188.9L1541.85 1188.5C1558.52 1187.47 1574.97 1184.06 1590.67 1178.36L1596.61 1176.33C1598.53 1175.57 1600.41 1174.61 1602.28 1173.79C1606.09 1172.02 1609.94 1170.4 1613.69 1168.72C1621.04 1164.78 1628.14 1160.38 1634.94 1155.54C1641.74 1150.71 1648.23 1145.45 1654.35 1139.77C1657.4 1136.88 1660.18 1133.79 1663.07 1130.8C1664.49 1129.28 1666.02 1127.81 1667.38 1126.24L1671.24 1121.17C1692.3 1094.84 1705.61 1063.17 1709.67 1029.7Z" fill="#263238" fill-rule="nonzero" opacity="1" stroke="none" vectornator:layerName="path"/>
</g>
<path d="M1677.42 1025.95C1670.41 1085.92 1627.73 1135.64 1569.52 1151.66C1511.31 1167.69 1449.2 1146.81 1412.49 1098.88C1375.77 1050.96 1371.79 985.55 1402.42 933.521C1430.48 949.353 1460.72 960.969 1492.16 967.998C1555.03 982.194 1605.43 952.331 1661.71 940.214C1675.44 966.564 1680.92 996.441 1677.42 1025.95Z" fill="#92e3a9" fill-rule="nonzero" opacity="1" stroke="none" vectornator:layerName="path 17"/>
<path d="M1382.9 991.625C1382.9 991.625 1390.61 889.309 1498.4 867.051" fill="#ffffff" fill-rule="nonzero" opacity="1" stroke="none" vectornator:layerName="path 18"/>
<path d="M1509.85 663.485C1504.78 692.487 1541.95 681.636 1541.95 681.636C1541.95 681.636 1492.46 710.08 1499 741.971C1505.34 772.645 1549.71 757.942 1552.75 757.181C1550.16 758.753 1505.34 786.081 1515.23 817.415C1525.37 849.965 1567.35 827.555 1570.04 826.135C1568.06 828.366 1542 858.077 1554.83 880.183C1576.98 918.158 1645.68 843.982 1681.28 844.134C1681.28 844.134 1687.97 904.52 1688.53 906.244C1688.53 906.244 1755.3 836.985 1752.77 788.921C1752.31 774.434 1741.71 762.277 1727.41 759.869C1727.41 759.869 1751.4 739.892 1744.4 714.998C1740.8 702.221 1717.12 696.593 1717.12 696.593C1717.12 696.593 1735.68 679.862 1728.07 658.06C1722.09 640.67 1699.28 637.78 1699.28 637.78C1699.28 637.78 1709.42 613.392 1697.7 597.624C1674.08 565.48 1520.35 601.376 1509.85 663.485Z" fill="#d3766a" fill-rule="nonzero" opacity="1" stroke="none" vectornator:layerName="path 19"/>
<path d="M1696.03 636.512C1696.54 636.512 1696.54 635.65 1696.03 635.65C1642.59 635.143 1583.73 650.861 1539.87 681.991C1538.45 683.056 1539.46 685.794 1541.29 684.983C1592.6 661.609 1639.95 644.929 1696.03 636.512Z" fill="#263238" fill-rule="nonzero" opacity="1" stroke="none" vectornator:layerName="path 20"/>
<path d="M1718.14 695.884C1718.74 695.884 1718.59 694.768 1718.14 694.768C1663.07 694.515 1597.26 714.136 1550.82 755.914C1549.2 757.334 1549.2 760.224 1551.18 758.703C1584.18 733.25 1667.64 703.185 1718.14 695.884Z" fill="#263238" fill-rule="nonzero" opacity="1" stroke="none" vectornator:layerName="path 21"/>
<path d="M1567.81 829.938C1613.79 791.557 1667.43 771.834 1725.44 759.412C1726.2 759.412 1725.84 758.246 1725.18 758.196C1695.17 756.522 1659.02 768.336 1631.69 779.794C1606.08 789.972 1583.59 806.705 1566.49 828.316C1565.83 829.177 1566.84 830.749 1567.81 829.938Z" fill="#263238" fill-rule="nonzero" opacity="1" stroke="none" vectornator:layerName="path 22"/>
<path d="M1540.99 681.332C1539.26 682.549 1542.96 683.715 1541.29 684.983C1534.19 690.357 1494.29 726.456 1502.35 743.847C1508.84 757.79 1532.06 758.703 1541.14 755.559L1563.95 747.7L1545.3 762.911C1536.94 769.656 1529.75 777.723 1524 786.791C1518.15 794.976 1516.05 805.259 1518.22 815.082C1520.47 824.395 1528.93 830.864 1538.5 830.597C1548.85 830.178 1558.92 827.124 1567.76 821.724L1592.65 807.68L1573.79 829.025C1568.52 834.94 1564.06 841.52 1560.51 848.596C1556.83 855.152 1555.17 862.649 1555.74 870.144C1556.58 876.981 1561.21 882.754 1567.71 885.05C1575.22 886.538 1582.99 885.834 1590.12 883.022C1605.6 877.196 1620.6 870.161 1634.99 861.981C1642.39 858.128 1649.84 854.224 1657.5 850.675C1664.95 846.695 1673.15 844.345 1681.58 843.779C1673.39 845.273 1665.56 848.319 1658.51 852.754C1651.26 856.81 1644.16 861.271 1637.06 865.682C1622.93 875.012 1607.96 883.007 1592.35 889.563C1583.95 893.243 1574.66 894.389 1565.63 892.858C1555.74 890.049 1548.45 881.649 1547.07 871.462C1546.06 862.201 1547.82 852.847 1552.14 844.591C1556 836.656 1560.87 829.259 1566.64 822.586L1572.67 829.837C1562.33 836.4 1550.44 840.14 1538.2 840.687C1531.41 840.776 1524.8 838.519 1519.49 834.298C1514.42 829.97 1510.78 824.208 1509.04 817.77C1506.22 805.35 1508.86 792.317 1516.29 781.974C1522.77 772.098 1530.82 763.347 1540.12 756.066L1544.28 763.519C1532.62 767.119 1506.56 768.944 1493.58 748.562C1480.9 719.561 1531.35 686.707 1540.99 681.332Z" fill="#263238" fill-rule="nonzero" opacity="1" stroke="none" vectornator:layerName="path 23"/>
<path d="M1541.95 681.636C1535.91 682.184 1529.82 681.808 1523.9 680.521C1519.04 679.572 1515.07 676.086 1513.51 671.395C1512.54 666.095 1513.16 660.628 1515.28 655.677C1517.26 650.1 1519.69 644.32 1522.38 638.49C1517.09 642.362 1512.66 647.302 1509.4 652.99C1505.45 659.132 1504.08 666.584 1505.6 673.727C1506.85 677.514 1509.22 680.836 1512.39 683.259C1515.5 685.383 1519.13 686.627 1522.89 686.859C1529.63 687.184 1536.31 685.355 1541.95 681.636Z" fill="#263238" fill-rule="nonzero" opacity="1" stroke="none" vectornator:layerName="path 24"/>
<path d="M640.58 1436.43C640.58 1436.43 647.779 1517.85 658.477 1635.68L658.477 1635.68C658.781 1639.08 659.086 1642.53 659.44 1645.82C664.511 1703.68 670.645 1769.59 676.932 1838.49L1047.05 1838.49C1020.54 1631.07 997.619 1452.4 995.641 1437.19L995.641 1436.07L640.58 1436.43Z" fill="#37474f" fill-rule="nonzero" opacity="1" stroke="none" vectornator:layerName="path 25"/>
<path d="M692.447 1483.07C694.712 1511.57 697.095 1540.06 699.596 1568.56L699.596 1568.56C700.306 1576.82 701.117 1585.03 701.827 1593.25L701.827 1593.5C708.976 1675.28 716.53 1757.11 724.947 1838.79L730.27 1838.79C721.245 1754.73 712.829 1670.62 704.311 1586.4L704.311 1586.4C703.399 1577.28 702.486 1568.2 701.523 1559.02L701.523 1559.02C698.988 1533.67 696.452 1508.63 693.816 1483.38C693.664 1482.21 692.346 1482.21 692.447 1483.07Z" fill="#263238" fill-rule="nonzero" opacity="1" stroke="none" vectornator:layerName="path 26"/>
<path d="M554.184 1436.43C554.184 1436.43 571.068 1531.95 594.745 1665.75L594.745 1665.75C595.202 1667.88 595.557 1670.01 595.962 1672.29L595.962 1672.29C605.038 1723.45 615.026 1779.98 625.47 1838.74L883.287 1838.74L889.168 1799.96L889.168 1799.96L890.284 1792.35L890.588 1790.37L894.847 1761.88L894.847 1761.88L896.52 1751.23L944.332 1436.43L554.184 1436.43Z" fill="#263238" fill-rule="nonzero" opacity="1" stroke="none" vectornator:layerName="path 27"/>
<path d="M455.012 1838.85L805.207 1838.85C805.207 1837.32 805.207 1836.16 805.207 1835.19C805.207 1834.23 805.207 1832.81 805.207 1832.81C807.184 1831.75 809.111 1830.63 811.088 1829.62C831.673 1818.41 849.773 1809.69 864.629 1803.05L871.981 1799.75C878.724 1796.81 884.757 1794.38 889.777 1792.4C902.655 1787.33 910.057 1785.05 910.057 1785.05C910.463 1783.94 910.869 1782.92 911.224 1781.86C961.925 1652.67 992.346 1455.85 995.388 1437.54L995.388 1436.12L495.624 1436.12C495.624 1436.12 476.56 1621.29 455.012 1838.85Z" fill="#37474f" fill-rule="nonzero" opacity="1" stroke="none" vectornator:layerName="path 28"/>
<path d="M504.243 1838.85L508.908 1838.85C518.085 1722.89 526.603 1606.89 535.476 1490.93C535.476 1489.01 532.687 1489.01 532.586 1490.93C523.189 1606.87 513.742 1722.84 504.243 1838.85Z" fill="#263238" fill-rule="nonzero" opacity="1" stroke="none" vectornator:layerName="path 29"/>
<path d="M928.158 1775.77C885.752 1791.2 844.766 1810.29 805.663 1832.81C804.142 1833.67 805.156 1836.06 806.779 1835.35C848.05 1817.65 890.132 1800.67 930.389 1780.69C931.747 1780.07 932.348 1778.47 931.732 1777.12C931.116 1775.76 929.516 1775.16 928.158 1775.77Z" fill="#263238" fill-rule="nonzero" opacity="1" stroke="none" vectornator:layerName="path 30"/>
<path d="M941.289 1492.61C941.289 1491.19 938.653 1490.88 938.653 1492.61C938.663 1538.66 936.361 1584.69 931.758 1630.51C929.831 1651.76 912.745 1769.23 875.986 1760.66C869.801 1759.24 866.657 1753.16 865.846 1743.83C864.68 1732.68 868.888 1718.94 870.916 1707.83C875.023 1683.24 878.318 1658.55 880.397 1633.71C884.7 1587.46 884.207 1540.88 878.927 1494.73C878.81 1494.17 878.312 1493.76 877.735 1493.76C877.158 1493.76 876.661 1494.17 876.544 1494.73C876.544 1558.92 874.921 1623.01 865.339 1686.59C860.725 1717.01 845.312 1763.15 877.254 1767.71C909.195 1772.27 930.896 1695.46 934.85 1674.37C945.346 1615.61 945.903 1552.13 941.289 1492.61Z" fill="#263238" fill-rule="nonzero" opacity="1" stroke="none" vectornator:layerName="path 31"/>
<path d="M876.848 1763.6C873.573 1771.53 870.812 1779.66 868.584 1787.94C866.193 1794.34 865.023 1801.14 865.136 1807.97C865.136 1809.29 866.961 1809.39 867.671 1808.53C871.484 1802.5 874.372 1795.94 876.24 1789.06C879.028 1781.5 882.02 1773.85 884.605 1766.44C885.1 1764.39 883.976 1762.29 881.992 1761.57C880.009 1760.84 877.796 1761.72 876.848 1763.6Z" fill="#263238" fill-rule="nonzero" opacity="1" stroke="none" vectornator:layerName="path 32"/>
<path d="M710.091 1531.04C710.156 1525.92 709.629 1520.82 708.519 1515.83C708.401 1515.51 708.098 1515.3 707.759 1515.3C707.42 1515.3 707.116 1515.51 706.998 1515.83C705.967 1520.15 705.389 1524.57 705.274 1529.01C704.767 1534.08 704.108 1539.15 703.551 1544.22C702.472 1554.56 700.676 1564.81 698.176 1574.89C693.527 1594.02 683.806 1611.53 670.037 1625.59C656.363 1639.04 640.19 1649.69 622.428 1656.93C602.604 1665.29 581.867 1668.44 561.333 1674.47C560.471 1674.47 560.725 1675.94 561.587 1675.94C584.189 1675.9 606.57 1671.5 627.499 1662.96C646.088 1655.98 663.012 1645.18 677.186 1631.27C691.406 1616.9 701.418 1598.91 706.136 1579.25C708.437 1569.15 709.761 1558.84 710.091 1548.48C710.427 1542.67 710.427 1536.85 710.091 1531.04Z" fill="#263238" fill-rule="nonzero" opacity="1" stroke="none" vectornator:layerName="path 33"/>
<path d="M1041.93 1531.7L999.647 1296.39C999.647 1296.39 1044.21 1228.2 1037.72 1147.63C1033.01 1089.02 905.9 883.986 895.303 873.845C852.004 833.284 778.994 849.559 749.03 872.223C582.983 997.76 519.91 1267.14 463.682 1531.7L1041.93 1531.7Z" fill="#92e3a9" fill-rule="nonzero" opacity="1" stroke="none" vectornator:layerName="path 34"/>
<path d="M842.118 1274.54C866.026 1273.14 890.006 1273.51 913.86 1275.65C925.673 1276.87 937.385 1278.65 949.351 1280.72C955.182 1281.74 961.012 1282.55 966.894 1283.31C973.027 1284.3 979.259 1284.54 985.45 1284.02C985.634 1284.08 985.757 1284.26 985.757 1284.45C985.757 1284.64 985.634 1284.82 985.45 1284.88C979.71 1286.02 973.9 1286.78 968.06 1287.16C962.373 1287.3 956.683 1287.08 951.024 1286.5C938.957 1285.34 926.992 1283.66 915.026 1282.4C890.791 1279.91 866.556 1277.33 842.168 1276.62C840.951 1276.52 840.951 1274.59 842.118 1274.54Z" fill="#263238" fill-rule="nonzero" opacity="1" stroke="none" vectornator:layerName="path 35"/>
<path d="M786.904 1304.15C806.03 1299.14 825.431 1295.25 845.008 1292.49C854.793 1291.12 864.578 1290.36 874.465 1289.85C879.18 1289.6 883.896 1289.44 888.611 1289.34C893.326 1289.24 899.005 1289.85 904.227 1289.65C904.734 1289.65 904.886 1290.46 904.227 1290.51C899.157 1290.81 894.492 1291.98 889.625 1292.59L874.972 1294.36C865.187 1295.58 855.401 1296.9 845.616 1298.01C825.995 1300.24 806.525 1302.68 787.005 1305.62C786.042 1305.92 785.89 1304.4 786.904 1304.15Z" fill="#263238" fill-rule="nonzero" opacity="1" stroke="none" vectornator:layerName="path 36"/>
<path d="M903.923 882.718L961.266 1149.1L1013.03 1838.64L1131.32 1838.64C1131.32 1838.64 1008.87 1283.92 1009.33 1279.46C1009.79 1274.99 1063.28 1216.23 1048.32 1135.72C1033.36 1055.2 914.266 890.07 903.923 882.718Z" fill="#ebebeb" fill-rule="nonzero" opacity="1" stroke="none" vectornator:layerName="path 37"/>
<path d="M916.395 904.165C921.922 917.854 927.6 931.493 933.329 945.081C939.059 958.669 944.686 972.358 950.517 985.895C962.111 1012.94 973.941 1039.98 986.008 1067.02L987.174 1061.95C974.347 1072.39 948.388 1096.37 948.388 1096.37L994.425 1159.14C994.425 1159.14 990.318 1349.78 988.847 1367.02C992.244 1349.98 1002.18 1157.11 1002.18 1157.11L956.551 1094.9L955.384 1100.94C967.958 1090.24 980.431 1079.49 992.853 1068.54L995.337 1066.31L993.968 1063.37C981.462 1036.66 968.77 1010.03 955.891 983.462C949.503 970.127 942.912 956.945 936.371 943.712C929.831 930.479 923.189 917.297 916.395 904.165Z" fill="#dbdbdb" fill-rule="nonzero" opacity="1" stroke="none" vectornator:layerName="path 38"/>
<path d="M793.596 877.8C796.588 888.346 844.298 949.847 892.768 945.233C908.536 943.712 910.362 862.184 910.362 862.184L911.477 855.745L927.144 765.192L818.592 702.88L803.382 694.717C803.382 694.717 800.695 719.764 797.703 750.945C797.703 752.365 797.399 753.835 797.247 755.407C797.095 756.979 796.841 758.804 796.689 760.477C796.182 765.091 795.675 769.857 795.32 774.623C794.965 778.223 794.661 781.721 794.458 785.524C794.255 789.326 793.951 793.078 793.647 796.881C791.365 834.501 792.379 873.338 793.596 877.8Z" fill="#d3766a" fill-rule="nonzero" opacity="1" stroke="none" vectornator:layerName="path 39"/>
<path d="M797.5 750.945C818.247 800.93 859.931 839.257 911.477 855.745L927.144 765.192L818.592 702.88L803.382 694.717C803.382 694.717 800.492 719.561 797.5 750.945Z" fill="#263238" fill-rule="nonzero" opacity="1" stroke="none" vectornator:layerName="path 40"/>
<path d="M1045.58 605.635C1079.55 763.114 989.05 801.241 955.08 808.441C924.254 815.082 818.186 833.791 768.347 680.521C718.508 527.251 780.769 461.795 850.483 442.934C920.198 424.073 1011.61 448.106 1045.58 605.635Z" fill="#d3766a" fill-rule="nonzero" opacity="1" stroke="none" vectornator:layerName="path 41"/>
<path d="M1011.26 582.667C1007.55 582.616 1003.84 582.362 1000.15 581.907C996.218 582.203 992.296 581.187 988.999 579.017C987.099 577.213 986.681 574.343 987.985 572.071C991.213 568.099 996.322 566.164 1001.37 567.001C1006.57 567.014 1011.58 568.967 1015.41 572.476C1016.97 574.224 1017.39 576.701 1016.51 578.865C1015.62 581.029 1013.59 582.503 1011.26 582.667Z" fill="#263238" fill-rule="nonzero" opacity="1" stroke="none" vectornator:layerName="path 42"/>
<path d="M905.545 623.228C909.195 622.265 912.44 620.744 915.989 619.426C919.844 618.579 923.315 616.496 925.876 613.494C927.157 611.226 926.762 608.382 924.913 606.548C920.712 603.56 915.224 603.076 910.564 605.28C905.59 606.723 901.339 609.98 898.65 614.406C897.52 616.544 897.751 619.146 899.24 621.051C900.729 622.955 903.198 623.808 905.545 623.228Z" fill="#263238" fill-rule="nonzero" opacity="1" stroke="none" vectornator:layerName="path 43"/>
<path d="M932.569 642.951C932.569 642.596 931.808 643.61 931.859 644.067C934.039 654.815 934.698 667.491 925.521 672.764C925.217 672.764 925.521 673.423 925.521 673.321C937.335 669.671 936.321 652.838 932.569 642.951Z" fill="#263238" fill-rule="nonzero" opacity="1" stroke="none" vectornator:layerName="path 44"/>
<path d="M921.009 633.369C903.365 634.991 907.827 670.127 924.203 668.86C940.58 667.592 935.763 631.949 921.009 633.369Z" fill="#263238" fill-rule="nonzero" opacity="1" stroke="none" vectornator:layerName="path 45"/>
<path d="M914.316 636.005C911.528 638.388 908.942 642.292 905.291 643.154C901.641 644.016 897.382 640.822 894.137 637.678C893.782 637.323 893.529 637.678 893.579 638.135C894.34 644.878 897.788 651.469 905.139 651.52C912.491 651.57 915.837 645.03 916.649 638.084C916.801 636.766 915.482 635.042 914.316 636.005Z" fill="#263238" fill-rule="nonzero" opacity="1" stroke="none" vectornator:layerName="path 46"/>
<path d="M993.157 628.907C993.157 628.501 994.07 629.363 994.07 629.82C994.475 640.822 996.808 653.294 1006.95 656.235C1007.3 656.235 1007.3 656.894 1006.95 656.843C994.729 655.982 991.788 639.402 993.157 628.907Z" fill="#263238" fill-rule="nonzero" opacity="1" stroke="none" vectornator:layerName="path 47"/>
<path d="M1002.18 616.84C1019.67 614.254 1023.48 649.492 1007.25 651.824C991.028 654.156 987.478 618.969 1002.18 616.84Z" fill="#263238" fill-rule="nonzero" opacity="1" stroke="none" vectornator:layerName="path 48"/>
<path d="M1009.28 618.158C1012.58 619.781 1015.97 622.975 1019.72 622.924C1023.48 622.874 1026.87 618.868 1029.31 615.015C1029.56 614.609 1029.92 615.015 1029.97 615.37C1030.78 622.113 1028.95 629.313 1021.8 631.087C1014.65 632.862 1009.94 627.285 1007.51 620.643C1007.05 619.223 1007.96 617.246 1009.28 618.158Z" fill="#263238" fill-rule="nonzero" opacity="1" stroke="none" vectornator:layerName="path 49"/>
<path d="M944.484 727.166C947.323 729.499 950.213 732.794 954.218 732.845C958.295 732.432 962.236 731.153 965.778 729.093C965.934 729.035 966.109 729.077 966.221 729.2C966.333 729.323 966.358 729.501 966.285 729.651C963.451 734.274 958.316 736.978 952.9 736.698C948.231 735.89 944.508 732.348 943.47 727.724C943.267 727.116 944.078 726.811 944.484 727.166Z" fill="#263238" fill-rule="nonzero" opacity="1" stroke="none" vectornator:layerName="path 50"/>
<path d="M984.436 681.535C984.436 681.535 988.949 697.455 990.014 705.111C990.014 705.821 988.34 706.429 985.755 706.936C985.755 706.936 985.755 706.936 985.45 706.936C972.385 711.248 958.005 707.903 948.185 698.266C947.576 697.607 948.438 696.695 949.199 697.05C959.872 702.439 972.006 704.218 983.777 702.12C983.777 699.889 975.107 675.096 976.324 674.842C982.348 674.532 988.387 675.044 994.272 676.363C985.856 642.951 972.116 611.111 964.207 577.699C963.953 576.532 965.677 575.924 966.133 576.938C982.915 609.286 993.411 647.514 1003.04 681.789C1004.26 685.946 987.681 682.397 984.436 681.535Z" fill="#263238" fill-rule="nonzero" opacity="1" stroke="none" vectornator:layerName="path 51"/>
<path d="M759.322 676.617C786.701 678.746 792.988 621.302 792.988 621.302C792.988 621.302 848.759 621.302 866.961 541.498C865.359 565.394 856.813 588.303 842.371 607.41C842.371 607.41 940.478 597.269 981.749 514.93C981.749 514.93 965.271 556.759 949.858 571.614C949.858 571.614 990.977 560.156 1011.05 526.744C1011.05 526.744 1028.24 574.099 1041.48 587.18C1041.48 587.18 1037.47 415.555 878.42 433.808C878.42 433.808 778.842 440.399 743.098 519.24C707.353 598.081 759.322 676.617 759.322 676.617Z" fill="#263238" fill-rule="nonzero" opacity="1" stroke="none" vectornator:layerName="path 52"/>
<path d="M852.41 618.462C852.41 618.462 756.838 636.715 738.788 652.23C731.386 658.618 739.701 693.298 745.734 697.557C749.537 700.244 801.506 676.87 857.277 669.265C857.328 669.265 847.036 640.315 852.41 618.462Z" fill="#455a64" fill-rule="nonzero" opacity="1" stroke="none" vectornator:layerName="path 53"/>
<path d="M1048.78 657.756C1047.58 659.632 1046.24 661.412 1044.77 663.08C1038.89 669.62 1031.13 672.662 1018 669.316C1009.43 667.136 1002.79 658.77 988.797 660.342C980.098 660.99 971.747 664.025 964.663 669.113C960.023 672.389 955.586 675.945 951.379 679.76C950.314 680.622 949.25 681.586 948.185 682.549C947.223 683.459 946.188 684.29 945.092 685.033C943.485 686.239 941.79 687.324 940.022 688.278C919.285 699.382 884.91 699.838 871.727 690.053C859.66 681.129 850.483 655.018 851.903 629.82C852.144 624.408 852.96 619.037 854.337 613.798C855.677 608.647 857.67 603.689 860.269 599.044C860.776 598.182 861.232 597.371 861.739 596.61C863.213 594.411 864.912 592.372 866.809 590.526C879.332 577.597 903.466 567.203 929.679 560.916L937.74 559.193C943.571 557.976 949.452 557.012 955.283 556.252C962.026 555.39 968.77 554.782 975.259 554.579C998.278 553.666 1018.51 556.911 1029.16 565.429C1036.67 571.934 1042.29 580.34 1045.43 589.765C1047.14 594.26 1048.52 598.868 1049.59 603.556C1052.96 618.525 1053.68 633.97 1051.72 649.188C1051.25 652.195 1050.26 655.096 1048.78 657.756Z" fill="#ffffff" fill-rule="nonzero" opacity="0.2" stroke="none" vectornator:layerName="path 54"/>
<g opacity="0.2" vectornator:layerName="g 1">
<path d="M1048.78 657.756C1047.58 659.632 1046.24 661.412 1044.77 663.08L990.977 636.005C987.422 634.248 985.781 630.08 987.183 626.371C988.586 622.662 992.574 620.623 996.402 621.657C996.923 621.78 997.432 621.949 997.923 622.164L1051.67 649.137C1051.22 652.159 1050.24 655.077 1048.78 657.756Z" fill="#ffffff" fill-rule="nonzero" opacity="1" stroke="none" vectornator:layerName="path"/>
<path d="M964.663 669.113C960.023 672.389 955.586 675.945 951.379 679.76L851.802 629.82C852.043 624.408 852.859 619.037 854.235 613.798L964.663 669.113Z" fill="#ffffff" fill-rule="nonzero" opacity="1" stroke="none" vectornator:layerName="path"/>
<path d="M933.481 629.921C932.434 632.156 929.93 633.312 927.549 632.659C927.179 632.569 926.821 632.432 926.485 632.253L860.167 599.044C860.674 598.182 861.131 597.371 861.638 596.61C863.112 594.411 864.811 592.372 866.708 590.526L931.301 622.924C932.541 623.54 933.475 624.635 933.886 625.957C934.298 627.278 934.152 628.71 933.481 629.921Z" fill="#ffffff" fill-rule="nonzero" opacity="1" stroke="none" vectornator:layerName="path"/>
<path d="M1049.33 603.556L955.03 556.252C961.773 555.39 968.516 554.782 975.006 554.579L1045.18 589.765C1046.88 594.26 1048.27 598.868 1049.33 603.556Z" fill="#ffffff" fill-rule="nonzero" opacity="1" stroke="none" vectornator:layerName="path"/>
<path d="M1030.88 608.931C1030.31 609.988 1029.1 610.529 1027.94 610.249L1027.38 610.249L929.425 561.119L937.487 559.395L1029.71 605.635C1030.92 606.247 1031.43 607.697 1030.88 608.931Z" fill="#ffffff" fill-rule="nonzero" opacity="1" stroke="none" vectornator:layerName="path"/>
<path d="M945.346 685.033C943.738 686.239 942.044 687.324 940.275 688.278L889.574 662.928C888.96 662.614 888.497 662.068 888.288 661.411C888.078 660.754 888.14 660.041 888.459 659.429C888.982 658.327 890.228 657.769 891.399 658.111L891.957 658.111L945.346 685.033Z" fill="#ffffff" fill-rule="nonzero" opacity="1" stroke="none" vectornator:layerName="path"/>
</g>
<path d="M885.518 699.686C879.809 698.34 874.484 695.704 869.953 691.98C851.497 676.11 838.721 627.386 859.457 595.191L859.457 595.191C873.4 573.592 915.229 559.7 946.917 554.629C976.223 549.914 1013.59 549.559 1030.52 563.299C1058.46 585.76 1058.61 641.227 1051.21 658.618C1046.14 670.482 1032.86 675.654 1017.34 671.699C1014.1 670.761 1010.97 669.469 1008.01 667.846C1002.22 664.441 995.613 662.688 988.898 662.776C975.919 663.435 968.618 668.606 949.858 684.425C931.743 698.817 908.167 704.409 885.518 699.686ZM863.818 597.878C845.109 626.93 856.162 673.119 873.35 687.923C889.016 701.461 925.978 697.709 946.562 680.42C964.764 665.209 973.434 658.314 988.645 657.553C996.248 657.4 1003.74 659.366 1010.29 663.232C1012.94 664.667 1015.73 665.823 1018.61 666.68C1028.75 669.265 1041.58 667.998 1046.44 656.539C1053.19 640.67 1052.93 587.89 1027.28 567.254C1014.25 556.759 983.777 553.869 947.729 559.7C907.472 566.24 874.516 581.197 863.818 597.827L863.818 597.878Z" fill="#455a64" fill-rule="nonzero" opacity="1" stroke="none" vectornator:layerName="path 55"/>
<path d="M795.979 687.315C795.979 687.315 754.759 641.684 733.718 657.148C712.677 672.612 748.016 741.464 775.851 748.005C782.953 750.198 790.642 749.398 797.141 745.79C803.639 742.182 808.384 736.078 810.277 728.89L795.979 687.315Z" fill="#d3766a" fill-rule="nonzero" opacity="1" stroke="none" vectornator:layerName="path 56"/>
<path d="M744.365 676.668C744.206 676.727 744.101 676.878 744.101 677.048C744.101 677.218 744.206 677.369 744.365 677.428C763.936 682.498 775.952 698.621 784.926 715.708C778.538 709.522 770.476 706.683 762.111 714.44C761.654 714.846 762.111 715.556 762.719 715.353C769.157 712.369 776.778 713.771 781.732 718.851C785.767 723.015 789.338 727.605 792.379 732.541C793.495 734.112 796.385 732.845 795.472 731.02C795.491 730.868 795.491 730.715 795.472 730.563C792.836 706.784 770.172 675.856 744.365 676.668Z" fill="#263238" fill-rule="nonzero" opacity="1" stroke="none" vectornator:layerName="path 57"/>
<path d="M779.856 749.069C779.856 753.942 783.806 757.891 788.678 757.891C793.551 757.891 797.5 753.942 797.5 749.069C797.5 744.197 793.551 740.247 788.678 740.247C783.806 740.247 779.856 744.197 779.856 749.069Z" fill="#ffffff" fill-rule="nonzero" opacity="1" stroke="none" vectornator:layerName="path 58"/>
<path d="M909.855 870.803L905.545 915.725C903.466 964.905 897.027 984.577 886.431 985.338C851.599 987.721 797.196 896.864 793.444 877.8C789.692 858.736 909.855 870.803 909.855 870.803Z" fill="#d3766a" fill-rule="nonzero" opacity="1" stroke="none" vectornator:layerName="path 59"/>
<path d="M400.508 1838.85L870.865 1838.85L791.568 853.463C791.568 853.463 774.685 852.297 732.755 881.349C687.985 912.328 642.506 975.755 581.005 1108.74C439.041 1415.79 400.508 1838.85 400.508 1838.85Z" fill="#ebebeb" fill-rule="nonzero" opacity="1" stroke="none" vectornator:layerName="path 60"/>
<path d="M775.141 962.37C759.373 1013.07 623.493 1346.13 574.059 1405.75C536.49 1451.08 418.355 1509.39 386.819 1389.68C365.829 1309.93 607.725 988.025 716.784 893.771C766.877 850.523 808.452 855.694 775.141 962.37Z" fill="#ebebeb" fill-rule="nonzero" opacity="1" stroke="none" vectornator:layerName="path 61"/>
<path d="M464.696 1461.02C484.859 1459.99 504.544 1454.52 522.344 1445C540.088 1435.78 555.918 1423.27 568.989 1408.14C575.515 1400.63 581.496 1392.67 586.887 1384.31C592.261 1375.89 597.027 1367.07 602.097 1358.25C611.578 1340.5 620.451 1322.35 629.02 1304.05C646.664 1267.69 662.99 1230.73 679.721 1193.82L729.003 1082.84C722.259 1101.95 714.908 1120.81 707.759 1139.77C700.61 1158.74 692.548 1177.34 685.095 1196.1C669.648 1233.55 653.306 1270.63 636.067 1307.34C627.245 1325.59 618.119 1343.7 608.333 1361.54C603.263 1370.41 598.193 1379.29 592.717 1387.86C587.114 1396.5 580.732 1404.61 573.654 1412.09C559.67 1427.2 542.925 1439.48 524.321 1448.29C515.027 1452.57 505.306 1455.85 495.32 1458.08C485.298 1460.48 474.991 1461.47 464.696 1461.02Z" fill="#263238" fill-rule="nonzero" opacity="1" stroke="none" vectornator:layerName="path 62"/>
<path d="M710.446 1127.45C714.026 1121.59 717.989 1115.96 722.31 1110.62C726.518 1105.3 730.777 1100.13 735.239 1094.75C733.095 1101.43 729.648 1107.62 725.099 1112.95C720.909 1118.44 715.978 1123.32 710.446 1127.45Z" fill="#263238" fill-rule="nonzero" opacity="1" stroke="none" vectornator:layerName="path 63"/>
<path d="M791.568 853.463C784.419 869.789 734.986 1015.71 721.702 1048.56L720.485 1051.55L723.071 1053.63C740.816 1067.63 758.646 1081.54 776.561 1095.36L775.648 1088.52L725.961 1154.43L724.338 1156.61L725.302 1159.09C739.701 1195.5 830.862 1363.11 838.923 1380.96C832.687 1362.4 748.523 1192 734.326 1155.59L733.667 1160.26L783.456 1094.7L786.397 1090.8L782.543 1087.86C764.561 1074.13 746.529 1060.49 728.445 1046.94L729.814 1052.01C742.54 1018.7 785.687 870.296 791.568 853.463Z" fill="#dbdbdb" fill-rule="nonzero" opacity="1" stroke="none" vectornator:layerName="path 64"/>
<path d="M523.003 1593.65C521.127 1652.97 523.865 1720.05 536.49 1732.37C560.116 1755.49 623.088 1753.57 642.962 1753.36C662.837 1753.16 733.262 1753.36 749.79 1716.81C757.091 1700.79 759.018 1617.99 758.815 1588.68C758.815 1576.82 756.077 1518.26 755.165 1511.72C755.165 1510.15 750.804 1510.35 750.652 1511.36C749.638 1518.06 750.297 1542.34 749.942 1546.86C636.473 1561.46 566.201 1549.24 529.797 1542.24C529.797 1531.29 529.797 1522.77 529.797 1511.82C565.262 1518.33 601.228 1521.72 637.284 1521.96C676.693 1521.15 716.036 1518.36 755.165 1513.6C756.077 1513.6 755.418 1509.08 754.049 1509.13C739.244 1509.13 688.137 1514.2 636.371 1514.2C599.441 1513.51 562.585 1510.63 525.994 1505.58C523.916 1506.45 523.865 1565.21 523.003 1593.65ZM543.284 1725.48C530.76 1711.08 529.189 1669.71 529.239 1644.91C529.239 1610.79 529.239 1583.56 529.239 1549.44C616.598 1569.72 712.778 1559.58 749.233 1552.38C749.233 1553.85 749.892 1625.8 749.233 1648.71C748.371 1678.02 747.458 1704.49 736.202 1719.7C726.569 1732.78 699.342 1745.86 636.828 1745.81C591.957 1745.86 553.829 1737.65 543.385 1725.63L543.284 1725.48Z" fill="#dbdbdb" fill-rule="nonzero" opacity="1" stroke="none" vectornator:layerName="path 65"/>
<path d="M445.734 827.302C462.567 760.325 492.227 667.541 518.744 650.303C546.528 632.253 646.866 572.679 674.651 566.341C702.435 560.004 806.474 574.809 826.755 589.918C843.182 601.985 823.155 639.301 765.609 642.647C711.815 645.791 698.785 643.915 683.878 648.478C668.972 653.041 628.462 696.441 635.712 718.344C639.971 731.273 674.144 749.627 697.517 742.022C720.891 734.417 731.943 708.863 759.626 690.864C787.309 672.865 831.876 680.369 833.143 692.74C834.411 705.111 818.947 709.167 791.518 747.751C773.873 772.595 765.153 818.074 726.67 859.903C707.404 880.944 671.406 938.591 671.406 938.591L445.734 827.302Z" fill="#d3766a" fill-rule="nonzero" opacity="1" stroke="none" vectornator:layerName="path 66"/>
<path d="M518.744 650.303C544.095 618.716 606.103 563.553 663.192 548.545C701.776 538.405 822.496 614.457 816.108 638.337C809.719 662.218 787.968 659.987 756.128 652.635C744.568 649.948 684.842 620.845 672.826 632.76C655.587 649.796 629.222 711.702 629.222 711.702L518.744 650.303Z" fill="#d3766a" fill-rule="nonzero" opacity="1" stroke="none" vectornator:layerName="path 67"/>
<path d="M814.029 628.299C801.1 600.514 767.992 582.667 734.783 568.065C734.225 567.812 733.87 568.623 734.377 568.826C742.844 572.628 796.131 604.317 813.573 628.704C813.775 629.11 814.13 628.755 814.029 628.299Z" fill="#263238" fill-rule="nonzero" opacity="1" stroke="none" vectornator:layerName="path 68"/>
<path d="M518.744 650.303C544.095 618.716 606.103 563.553 663.192 548.545C701.776 538.405 794.002 628.806 787.614 652.787C781.225 676.769 749.74 675.248 716.632 659.48C705.883 654.41 671 623.989 659.238 635.752C641.999 652.838 599.816 695.275 599.816 695.275L518.744 650.303Z" fill="#d3766a" fill-rule="nonzero" opacity="1" stroke="none" vectornator:layerName="path 69"/>
<path d="M624.203 668.86C628.259 663.79 629.628 662.116 633.786 657.249C637.943 652.382 642.151 647.514 646.613 642.951C650.204 638.648 654.509 634.995 659.339 632.152C664.274 630.007 669.773 629.527 675.006 630.783C686.87 633.217 696.858 642.039 706.39 648.985C717.037 656.742 739.447 669.874 757.7 669.924C762.694 670.197 767.689 669.402 772.352 667.592C775.878 666.443 779.065 664.44 781.631 661.761C790.909 649.34 782.746 633.115 773.924 621.2C757.497 599.145 734.022 581.907 711.054 567.355C705.376 563.756 699.647 560.359 693.917 556.911C687.548 552.55 680.324 549.595 672.724 548.241C660.201 546.821 638.247 557.317 631.453 560.46C630.946 560.714 630.693 559.852 631.2 559.598C639.413 555.643 660.201 542.106 680.329 545.351C687.59 547.256 694.456 550.432 700.61 554.731C707.303 558.533 713.894 562.59 720.384 566.747C733.103 574.799 745.173 583.835 756.483 593.771C767.864 603.038 777.452 614.311 784.774 627.031C790.894 638.54 790.213 652.476 783 663.333C776.459 671.902 764.443 672.865 758.967 672.966C753.58 673.061 748.206 672.412 742.996 671.04C731.496 667.204 720.28 662.561 709.432 657.148C698.937 651.57 689.912 643.103 679.011 638.439C673.834 636.01 667.9 635.754 662.533 637.729C657.594 640.327 653.066 643.641 649.097 647.565C640.732 654.157 633.008 661.524 626.028 669.569C624.102 671.851 622.479 670.888 624.203 668.86Z" fill="#263238" fill-rule="nonzero" opacity="1" stroke="none" vectornator:layerName="path 70"/>
<path d="M499.427 678.189C509.161 662.978 529.848 597.776 545.058 578.763C560.268 559.75 626.535 495.562 653.559 501.596C687.58 509.201 644.94 567.508 624.102 590.932C603.263 614.356 601.59 658.263 601.59 658.263L499.427 678.189Z" fill="#d3766a" fill-rule="nonzero" opacity="1" stroke="none" vectornator:layerName="path 71"/>
<path d="M653.711 551.283C646.41 558.686 639.768 567.051 633.431 575.113C626.797 582.553 620.713 590.466 615.229 598.79C610.476 607.403 607.17 616.738 605.443 626.423C604.48 631.138 603.77 635.904 603.213 640.72C602.655 645.537 602.503 651.317 601.844 656.539C601.907 656.723 602.08 656.846 602.275 656.846C602.469 656.846 602.642 656.723 602.706 656.539C604.357 647.017 606.644 637.617 609.55 628.4C612.322 618.798 616.255 609.569 621.262 600.92C631.403 583.783 644.838 568.978 654.979 551.892C655.232 551.385 654.218 550.776 653.711 551.283Z" fill="#263238" fill-rule="nonzero" opacity="1" stroke="none" vectornator:layerName="path 72"/>
<path d="M601.083 665.615C600.74 673.737 601.577 681.866 603.567 689.749C605.332 697.654 607.636 705.43 610.463 713.021C613.179 720.623 616.31 728.07 619.843 735.329C623.189 742.63 627.549 749.373 631.707 756.472C640.626 770.442 647.266 785.742 651.379 801.799C655.177 817.87 656.087 834.488 654.066 850.878C654.229 834.624 652.113 818.428 647.779 802.762C643.004 787.353 636.183 772.653 627.499 759.057C623.083 752.103 619.087 744.89 615.533 737.459C612.055 729.944 609.091 722.203 606.66 714.288C602.046 698.621 598.092 681.941 601.083 665.615Z" fill="#263238" fill-rule="nonzero" opacity="1" stroke="none" vectornator:layerName="path 73"/>
<path d="M685.602 743.492C696.686 742.523 706.968 737.31 714.299 728.941C721.296 721.944 727.837 714.44 734.935 707.494C741.607 700.299 749.293 694.116 757.75 689.14C767.726 684.277 778.346 680.862 789.287 679C799.713 676.312 810.65 676.312 821.076 679C829.544 681.586 839.075 688.633 836.287 698.926C834.68 703.565 832.221 707.864 829.037 711.601C826.015 715.332 822.746 718.855 819.251 722.147C812.254 728.89 804.649 735.126 798.312 742.427C789.794 752.568 784.876 764.888 779.248 776.6C777.169 780.96 764.037 810.317 758.967 820.355C754.646 828.944 749.555 837.124 743.757 844.794C738.021 851.841 731.857 858.529 725.302 864.821C718.169 871.671 711.795 879.269 706.289 887.484C706.289 887.89 705.528 887.484 705.68 887.078C711.815 870.803 725.2 858.534 737.267 846.517C752.883 831.053 782.036 758.652 787.968 748.613C797.5 731.78 814.232 721.995 825.69 706.936C828.327 703.489 832.383 698.469 831.622 693.754C830.232 689.311 826.647 685.899 822.141 684.729C811.953 682.005 801.194 682.287 791.163 685.54C780.689 687.584 770.483 690.816 760.742 695.174C752.364 699.578 744.649 705.143 737.825 711.702C729.915 719.003 722.614 726.507 714.046 733.25C706.137 740.275 695.926 744.154 685.349 744.151C684.943 744.303 685.045 743.543 685.602 743.492Z" fill="#263238" fill-rule="nonzero" opacity="1" stroke="none" vectornator:layerName="path 74"/>
<path d="M809.06 584.036C801.506 581.603 793.85 578.966 786.447 576.634L786.447 576.33C795.32 578.459 804.446 579.98 813.37 582.059C820.757 583.037 827.415 587.017 831.774 593.061C834.888 599.434 834.446 606.971 830.608 612.936C826.186 619.129 820.501 624.313 813.928 628.146C813.788 628.244 813.595 628.21 813.497 628.07C813.399 627.93 813.433 627.737 813.573 627.639C822.851 620.237 836.997 606.091 826.755 593.771C821.885 588.933 815.754 585.56 809.06 584.036Z" fill="#263238" fill-rule="nonzero" opacity="1" stroke="none" vectornator:layerName="path 75"/>
<path d="M784.724 656.843C793.06 656.562 801.146 653.925 808.046 649.238C810.846 647.049 812.943 644.088 814.08 640.72C814.654 638.883 814.928 636.966 814.891 635.042C815.036 633.017 814.461 631.006 813.268 629.363C812.863 629.008 813.623 628.552 813.775 629.008C813.928 629.465 815.043 630.935 815.55 631.949C815.984 632.805 816.324 633.706 816.564 634.636C817.022 636.493 817.125 638.42 816.868 640.315C816.286 644.465 814.279 648.283 811.19 651.114C803.866 657.293 794.059 659.66 784.724 657.503C784.589 657.449 784.5 657.318 784.5 657.173C784.5 657.028 784.589 656.897 784.724 656.843Z" fill="#263238" fill-rule="nonzero" opacity="1" stroke="none" vectornator:layerName="path 76"/>
<path d="M671.558 938.591C663.243 1004 569.445 1348 539.278 1400.68C509.111 1453.36 430.98 1486.88 393.664 1405.04C356.347 1323.21 427.482 895.292 445.785 827.302C455.925 789.478 674.549 914.914 671.558 938.591Z" fill="#d3766a" fill-rule="nonzero" opacity="1" stroke="none" vectornator:layerName="path 77"/>
<path d="M706.593 976.769L424.794 863.502C424.794 863.502 368.668 1261.05 383.625 1379.03C394.374 1463.71 497.297 1508.83 561.08 1383.14C624.862 1257.45 706.593 976.769 706.593 976.769Z" fill="#ebebeb" fill-rule="nonzero" opacity="1" stroke="none" vectornator:layerName="path 78"/>
<path d="M677.744 1028.23C635.307 1013.02 463.936 943.205 427.938 925.662C425.453 924.445 425.606 922.569 428.394 923.482C556.669 966.73 637.436 1009.22 678.301 1026.51C679.315 1026.96 678.808 1028.84 677.744 1028.23Z" fill="#263238" fill-rule="nonzero" opacity="1" stroke="none" vectornator:layerName="path 79"/>
<path d="M623.595 1242.6C643.875 1186.83 662.483 1131.05 678.504 1074.32C682.966 1058.4 687.326 1042.48 691.484 1026.51C695.641 1010.54 699.596 995.732 702.942 980.166C696.909 977.175 670.798 964.956 667.857 962.928C667.477 962.622 667.354 962.097 667.557 961.654C667.761 961.211 668.239 960.963 668.719 961.052C672.014 961.812 702.08 973.879 708.621 977.428C709.533 977.885 701.827 1008.36 698.481 1023.06C695.134 1037.76 691.534 1052.06 687.783 1066.46C680.346 1094.99 672.183 1123.35 663.294 1151.54C653.762 1181.96 643.469 1211.99 632.417 1241.63C622.834 1267.14 597.838 1314.09 623.595 1242.6Z" fill="#263238" fill-rule="nonzero" opacity="1" stroke="none" vectornator:layerName="path 80"/>
</g>
</svg>
